G04*
G04 #@! TF.GenerationSoftware,Altium Limited,Altium Designer,22.3.1 (43)*
G04*
G04 Layer_Physical_Order=1*
G04 Layer_Color=255*
%FSLAX25Y25*%
%MOIN*%
G70*
G04*
G04 #@! TF.SameCoordinates,C0646150-8C3F-47E1-8FD3-6E96B4F631F1*
G04*
G04*
G04 #@! TF.FilePolarity,Positive*
G04*
G01*
G75*
%ADD49C,0.09449*%
%ADD50C,0.06000*%
%ADD51O,0.08661X0.07087*%
%ADD52C,0.12205*%
%ADD53O,0.07087X0.08661*%
%ADD54C,0.08661*%
%ADD55C,0.08661*%
%ADD56C,0.10630*%
%ADD57C,0.07874*%
%ADD58C,0.09843*%
%ADD59O,0.07087X0.10236*%
%ADD60O,0.11811X0.06299*%
%ADD61O,0.14173X0.10236*%
%ADD62C,0.06299*%
%ADD63O,0.10236X0.11811*%
%ADD64C,0.08268*%
%ADD65C,0.30000*%
%ADD66C,0.04000*%
%ADD67C,0.06300*%
%ADD68R,0.06300X0.06300*%
%ADD69C,0.07874*%
%ADD70O,0.11811X0.08661*%
G04:AMPARAMS|DCode=71|XSize=157.48mil|YSize=98.43mil|CornerRadius=24.61mil|HoleSize=0mil|Usage=FLASHONLY|Rotation=180.000|XOffset=0mil|YOffset=0mil|HoleType=Round|Shape=RoundedRectangle|*
%AMROUNDEDRECTD71*
21,1,0.15748,0.04921,0,0,180.0*
21,1,0.10827,0.09843,0,0,180.0*
1,1,0.04921,-0.05413,0.02461*
1,1,0.04921,0.05413,0.02461*
1,1,0.04921,0.05413,-0.02461*
1,1,0.04921,-0.05413,-0.02461*
%
%ADD71ROUNDEDRECTD71*%
G04:AMPARAMS|DCode=72|XSize=157.48mil|YSize=98.43mil|CornerRadius=24.61mil|HoleSize=0mil|Usage=FLASHONLY|Rotation=90.000|XOffset=0mil|YOffset=0mil|HoleType=Round|Shape=RoundedRectangle|*
%AMROUNDEDRECTD72*
21,1,0.15748,0.04921,0,0,90.0*
21,1,0.10827,0.09843,0,0,90.0*
1,1,0.04921,0.02461,0.05413*
1,1,0.04921,0.02461,-0.05413*
1,1,0.04921,-0.02461,-0.05413*
1,1,0.04921,-0.02461,0.05413*
%
%ADD72ROUNDEDRECTD72*%
%ADD73C,0.05000*%
G36*
X353679Y302103D02*
X353372Y300959D01*
X353047Y298489D01*
Y295999D01*
X353372Y293529D01*
X354017Y291124D01*
X354970Y288823D01*
X356215Y286666D01*
X357732Y284690D01*
X359493Y282928D01*
X361469Y281412D01*
X363626Y280167D01*
X365927Y279214D01*
X368333Y278569D01*
X370802Y278244D01*
X373292D01*
X375762Y278569D01*
X376603Y278795D01*
X377000Y278490D01*
Y174966D01*
X376378D01*
X375112Y174841D01*
X373894Y174472D01*
X372771Y173872D01*
X371788Y173064D01*
X370980Y172081D01*
X370380Y170958D01*
X370011Y169740D01*
X369886Y168474D01*
Y157647D01*
X370011Y156381D01*
X370380Y155163D01*
X370980Y154041D01*
X371788Y153057D01*
X372771Y152249D01*
X373894Y151649D01*
X375112Y151280D01*
X376378Y151155D01*
X377000D01*
Y36470D01*
X376603Y36166D01*
X375762Y36391D01*
X373292Y36717D01*
X370802D01*
X368333Y36391D01*
X365927Y35747D01*
X363626Y34794D01*
X361469Y33549D01*
X359493Y32032D01*
X357732Y30271D01*
X356215Y28295D01*
X354970Y26138D01*
X354017Y23837D01*
X353372Y21431D01*
X353047Y18962D01*
Y16471D01*
X353372Y14002D01*
X353668Y12897D01*
X353364Y12500D01*
X346832D01*
X346660Y13000D01*
X347465Y14506D01*
X347986Y16225D01*
X348162Y18013D01*
Y19587D01*
X347986Y21375D01*
X347465Y23094D01*
X346618Y24678D01*
X345479Y26066D01*
X344090Y27206D01*
X342506Y28052D01*
X340788Y28574D01*
X339000Y28750D01*
X337213Y28574D01*
X335494Y28052D01*
X333910Y27206D01*
X332521Y26066D01*
X331382Y24678D01*
X330683Y23371D01*
X330117D01*
X329418Y24678D01*
X328279Y26066D01*
X326890Y27206D01*
X325306Y28052D01*
X323587Y28574D01*
X321800Y28750D01*
X320013Y28574D01*
X318294Y28052D01*
X316710Y27206D01*
X315321Y26066D01*
X314182Y24678D01*
X313335Y23094D01*
X312814Y21375D01*
X312638Y19587D01*
Y18013D01*
X312814Y16225D01*
X313335Y14506D01*
X314140Y13000D01*
X313968Y12500D01*
X278481D01*
X278336Y12979D01*
X278462Y13063D01*
X279437Y14038D01*
X280203Y15185D01*
X280731Y16458D01*
X281000Y17811D01*
Y19190D01*
X280731Y20542D01*
X280203Y21816D01*
X279437Y22963D01*
X278462Y23938D01*
X277316Y24704D01*
X276042Y25231D01*
X274689Y25500D01*
X273311D01*
X271958Y25231D01*
X270684Y24704D01*
X269538Y23938D01*
X269000Y23400D01*
X268462Y23938D01*
X267316Y24704D01*
X266042Y25231D01*
X264689Y25500D01*
X263311D01*
X261958Y25231D01*
X260684Y24704D01*
X259538Y23938D01*
X259000Y23400D01*
X258462Y23938D01*
X257316Y24704D01*
X256042Y25231D01*
X254689Y25500D01*
X253311D01*
X251958Y25231D01*
X250684Y24704D01*
X249538Y23938D01*
X249000Y23400D01*
X248462Y23938D01*
X247316Y24704D01*
X246042Y25231D01*
X244689Y25500D01*
X243311D01*
X241958Y25231D01*
X240684Y24704D01*
X239538Y23938D01*
X239000Y23400D01*
X238462Y23938D01*
X237316Y24704D01*
X236042Y25231D01*
X234689Y25500D01*
X233311D01*
X231958Y25231D01*
X230684Y24704D01*
X229538Y23938D01*
X229000Y23400D01*
X228462Y23938D01*
X227316Y24704D01*
X226042Y25231D01*
X224689Y25500D01*
X223311D01*
X221958Y25231D01*
X220684Y24704D01*
X219538Y23938D01*
X219000Y23400D01*
X218462Y23938D01*
X217316Y24704D01*
X216042Y25231D01*
X214689Y25500D01*
X213311D01*
X211958Y25231D01*
X210684Y24704D01*
X209538Y23938D01*
X209000Y23400D01*
X208462Y23938D01*
X207316Y24704D01*
X206042Y25231D01*
X204689Y25500D01*
X203311D01*
X201958Y25231D01*
X200684Y24704D01*
X199538Y23938D01*
X199000Y23400D01*
X198462Y23938D01*
X197316Y24704D01*
X196042Y25231D01*
X194689Y25500D01*
X193311D01*
X191958Y25231D01*
X190684Y24704D01*
X189538Y23938D01*
X189000Y23400D01*
X188462Y23938D01*
X187316Y24704D01*
X186042Y25231D01*
X184689Y25500D01*
X183311D01*
X181958Y25231D01*
X180684Y24704D01*
X179538Y23938D01*
X179000Y23400D01*
X178462Y23938D01*
X177316Y24704D01*
X176042Y25231D01*
X174689Y25500D01*
X173311D01*
X171958Y25231D01*
X170684Y24704D01*
X169538Y23938D01*
X169000Y23400D01*
X168462Y23938D01*
X167316Y24704D01*
X166042Y25231D01*
X164689Y25500D01*
X163311D01*
X161958Y25231D01*
X160684Y24704D01*
X159538Y23938D01*
X159000Y23400D01*
X158462Y23938D01*
X157316Y24704D01*
X156042Y25231D01*
X154689Y25500D01*
X153311D01*
X151958Y25231D01*
X150684Y24704D01*
X149538Y23938D01*
X149000Y23400D01*
X148462Y23938D01*
X147316Y24704D01*
X146042Y25231D01*
X144689Y25500D01*
X143311D01*
X141958Y25231D01*
X140684Y24704D01*
X139538Y23938D01*
X139000Y23400D01*
X138462Y23938D01*
X137316Y24704D01*
X136042Y25231D01*
X134689Y25500D01*
X133311D01*
X131958Y25231D01*
X130684Y24704D01*
X129538Y23938D01*
X129000Y23400D01*
X128462Y23938D01*
X127316Y24704D01*
X126042Y25231D01*
X124689Y25500D01*
X123311D01*
X121958Y25231D01*
X120684Y24704D01*
X119538Y23938D01*
X119000Y23400D01*
X118462Y23938D01*
X117316Y24704D01*
X116042Y25231D01*
X114689Y25500D01*
X113311D01*
X111958Y25231D01*
X110684Y24704D01*
X109538Y23938D01*
X109000Y23400D01*
X108462Y23938D01*
X107316Y24704D01*
X106042Y25231D01*
X104689Y25500D01*
X103311D01*
X101958Y25231D01*
X100684Y24704D01*
X99538Y23938D01*
X99000Y23400D01*
X98462Y23938D01*
X97316Y24704D01*
X96042Y25231D01*
X94689Y25500D01*
X93311D01*
X91958Y25231D01*
X90684Y24704D01*
X89538Y23938D01*
X89000Y23400D01*
X88462Y23938D01*
X87316Y24704D01*
X86042Y25231D01*
X84689Y25500D01*
X83311D01*
X81958Y25231D01*
X80684Y24704D01*
X79538Y23938D01*
X79000Y23400D01*
X78462Y23938D01*
X77316Y24704D01*
X76042Y25231D01*
X74689Y25500D01*
X73311D01*
X71958Y25231D01*
X70684Y24704D01*
X69538Y23938D01*
X69000Y23400D01*
X68462Y23938D01*
X67316Y24704D01*
X66042Y25231D01*
X64689Y25500D01*
X63311D01*
X61958Y25231D01*
X60684Y24704D01*
X59538Y23938D01*
X59000Y23400D01*
X58462Y23938D01*
X57316Y24704D01*
X56042Y25231D01*
X54689Y25500D01*
X53311D01*
X51958Y25231D01*
X50684Y24704D01*
X49538Y23938D01*
X49000Y23400D01*
X48462Y23938D01*
X47316Y24704D01*
X46042Y25231D01*
X44689Y25500D01*
X43311D01*
X41958Y25231D01*
X40684Y24704D01*
X39538Y23938D01*
X38563Y22963D01*
X37797Y21816D01*
X37269Y20542D01*
X37115Y19767D01*
X36608Y19784D01*
X36391Y21431D01*
X35747Y23837D01*
X34794Y26138D01*
X33548Y28295D01*
X32032Y30271D01*
X30271Y32032D01*
X28295Y33549D01*
X26138Y34794D01*
X23837Y35747D01*
X21431Y36391D01*
X18962Y36717D01*
X16471D01*
X14002Y36391D01*
X13355Y36218D01*
X12958Y36522D01*
X12768Y147029D01*
X13169Y147327D01*
X13292Y147290D01*
X14925Y147129D01*
X18075D01*
X19708Y147290D01*
X21278Y147766D01*
X22726Y148540D01*
X23994Y149581D01*
X25035Y150849D01*
X25809Y152297D01*
X26285Y153867D01*
X26446Y155500D01*
X26285Y157133D01*
X25809Y158703D01*
X25035Y160151D01*
X23994Y161419D01*
X22726Y162460D01*
X22183Y162750D01*
Y163250D01*
X22726Y163540D01*
X23994Y164581D01*
X25035Y165849D01*
X25809Y167297D01*
X26285Y168867D01*
X26446Y170500D01*
X26285Y172133D01*
X25809Y173704D01*
X25035Y175151D01*
X23994Y176419D01*
X22726Y177460D01*
X21278Y178234D01*
X19708Y178710D01*
X18075Y178871D01*
X14925D01*
X13292Y178710D01*
X13115Y178656D01*
X12713Y178954D01*
X12541Y278550D01*
X12938Y278854D01*
X14002Y278569D01*
X16471Y278244D01*
X18962D01*
X21431Y278569D01*
X23837Y279214D01*
X26138Y280167D01*
X28295Y281412D01*
X30271Y282928D01*
X32032Y284690D01*
X33548Y286666D01*
X34794Y288823D01*
X35747Y291124D01*
X36391Y293529D01*
X36717Y295999D01*
Y298489D01*
X36391Y300959D01*
X36085Y302103D01*
X36389Y302500D01*
X160850D01*
Y301292D01*
X161125Y299911D01*
X161664Y298609D01*
X162447Y297438D01*
X163442Y296443D01*
X164613Y295660D01*
X165915Y295121D01*
X167296Y294846D01*
X168704D01*
X170086Y295121D01*
X171387Y295660D01*
X172558Y296443D01*
X173554Y297438D01*
X174336Y298609D01*
X174875Y299911D01*
X175150Y301292D01*
Y302500D01*
X353375D01*
X353679Y302103D01*
D02*
G37*
%LPC*%
G36*
X92848Y301831D02*
X91207D01*
X89597Y301511D01*
X88081Y300883D01*
X86717Y299971D01*
X85557Y298811D01*
X84895Y297821D01*
X84395D01*
X83735Y298811D01*
X82574Y299971D01*
X81210Y300883D01*
X79694Y301511D01*
X78084Y301831D01*
X76443D01*
X74834Y301511D01*
X73317Y300883D01*
X71953Y299971D01*
X70793Y298811D01*
X70132Y297821D01*
X69632D01*
X68971Y298811D01*
X67810Y299971D01*
X66446Y300883D01*
X64930Y301511D01*
X63320Y301831D01*
X61680D01*
X60070Y301511D01*
X58554Y300883D01*
X57190Y299971D01*
X56029Y298811D01*
X55368Y297821D01*
X54868D01*
X54207Y298811D01*
X53047Y299971D01*
X51682Y300883D01*
X50166Y301511D01*
X48557Y301831D01*
X46916D01*
X45306Y301511D01*
X43790Y300883D01*
X42426Y299971D01*
X41265Y298811D01*
X40354Y297446D01*
X39726Y295930D01*
X39406Y294321D01*
Y292680D01*
X39726Y291070D01*
X40354Y289554D01*
X41265Y288190D01*
X42426Y287029D01*
X43790Y286118D01*
X45306Y285490D01*
X46916Y285169D01*
X48557D01*
X50166Y285490D01*
X51682Y286118D01*
X53047Y287029D01*
X54207Y288190D01*
X54868Y289179D01*
X55368D01*
X56029Y288190D01*
X57190Y287029D01*
X58554Y286118D01*
X60070Y285490D01*
X61680Y285169D01*
X63320D01*
X64930Y285490D01*
X66446Y286118D01*
X67810Y287029D01*
X68971Y288190D01*
X69632Y289179D01*
X70132D01*
X70793Y288190D01*
X71953Y287029D01*
X73317Y286118D01*
X74834Y285490D01*
X76443Y285169D01*
X78084D01*
X79694Y285490D01*
X81210Y286118D01*
X82574Y287029D01*
X83735Y288190D01*
X84395Y289179D01*
X84895D01*
X85557Y288190D01*
X86717Y287029D01*
X88081Y286118D01*
X89597Y285490D01*
X91207Y285169D01*
X92848D01*
X94457Y285490D01*
X95973Y286118D01*
X97338Y287029D01*
X98498Y288190D01*
X99410Y289554D01*
X100038Y291070D01*
X100358Y292680D01*
Y294321D01*
X100038Y295930D01*
X99410Y297446D01*
X98498Y298811D01*
X97338Y299971D01*
X95973Y300883D01*
X94457Y301511D01*
X92848Y301831D01*
D02*
G37*
G36*
X318842Y294155D02*
X317364Y294009D01*
X315942Y293578D01*
X314631Y292877D01*
X313921Y292294D01*
X313211Y292877D01*
X311900Y293578D01*
X310479Y294009D01*
X309000Y294155D01*
X307521Y294009D01*
X306099Y293578D01*
X304789Y292877D01*
X304079Y292295D01*
X303368Y292877D01*
X302058Y293578D01*
X300636Y294009D01*
X299157Y294155D01*
X297679Y294009D01*
X296257Y293578D01*
X294946Y292877D01*
X293798Y291935D01*
X292855Y290786D01*
X292155Y289475D01*
X291723Y288054D01*
X291578Y286575D01*
Y283425D01*
X291723Y281946D01*
X292155Y280525D01*
X292855Y279214D01*
X293798Y278065D01*
X294946Y277123D01*
X296257Y276422D01*
X297679Y275991D01*
X299157Y275845D01*
X300636Y275991D01*
X302058Y276422D01*
X303368Y277123D01*
X304079Y277706D01*
X304789Y277123D01*
X306099Y276422D01*
X307521Y275991D01*
X309000Y275845D01*
X310479Y275991D01*
X311900Y276422D01*
X313211Y277123D01*
X313921Y277706D01*
X314631Y277123D01*
X315942Y276422D01*
X317364Y275991D01*
X318842Y275845D01*
X320321Y275991D01*
X321743Y276422D01*
X323054Y277123D01*
X324202Y278065D01*
X325145Y279214D01*
X325845Y280525D01*
X326277Y281946D01*
X326422Y283425D01*
Y286575D01*
X326277Y288054D01*
X325845Y289475D01*
X325145Y290786D01*
X324202Y291935D01*
X323054Y292877D01*
X321743Y293578D01*
X320321Y294009D01*
X318842Y294155D01*
D02*
G37*
G36*
X235301Y297394D02*
X233699D01*
X232127Y297082D01*
X230647Y296469D01*
X229315Y295579D01*
X228182Y294446D01*
X227292Y293113D01*
X226679Y291633D01*
X226366Y290062D01*
Y288459D01*
X226679Y286888D01*
X227292Y285408D01*
X228182Y284076D01*
X229315Y282943D01*
X230647Y282052D01*
X232127Y281439D01*
X233699Y281127D01*
X235301D01*
X236873Y281439D01*
X238353Y282052D01*
X239685Y282943D01*
X240818Y284076D01*
X241708Y285408D01*
X242321Y286888D01*
X242634Y288459D01*
Y290062D01*
X242321Y291633D01*
X241708Y293113D01*
X240818Y294446D01*
X239685Y295579D01*
X238353Y296469D01*
X236873Y297082D01*
X235301Y297394D01*
D02*
G37*
G36*
X218282Y290937D02*
X216718D01*
X215185Y290632D01*
X213740Y290034D01*
X212440Y289165D01*
X211335Y288059D01*
X210466Y286760D01*
X209868Y285315D01*
X209563Y283782D01*
Y282218D01*
X209868Y280685D01*
X210466Y279240D01*
X211335Y277941D01*
X212440Y276835D01*
X213740Y275966D01*
X215185Y275368D01*
X216718Y275063D01*
X218282D01*
X219815Y275368D01*
X221260Y275966D01*
X222559Y276835D01*
X223665Y277941D01*
X224534Y279240D01*
X225132Y280685D01*
X225437Y282218D01*
Y283782D01*
X225132Y285315D01*
X224534Y286760D01*
X223665Y288059D01*
X222559Y289165D01*
X221260Y290034D01*
X219815Y290632D01*
X218282Y290937D01*
D02*
G37*
G36*
X188754D02*
X187191D01*
X185657Y290632D01*
X184213Y290034D01*
X182913Y289165D01*
X181807Y288059D01*
X180939Y286760D01*
X180340Y285315D01*
X180035Y283782D01*
Y282218D01*
X180340Y280685D01*
X180939Y279240D01*
X181807Y277941D01*
X182913Y276835D01*
X184213Y275966D01*
X185657Y275368D01*
X187191Y275063D01*
X188754D01*
X190287Y275368D01*
X191732Y275966D01*
X193032Y276835D01*
X194138Y277941D01*
X195006Y279240D01*
X195604Y280685D01*
X195909Y282218D01*
Y283782D01*
X195604Y285315D01*
X195006Y286760D01*
X194138Y288059D01*
X193032Y289165D01*
X191732Y290034D01*
X190287Y290632D01*
X188754Y290937D01*
D02*
G37*
G36*
X127023Y284563D02*
X125033D01*
X123081Y284175D01*
X121242Y283413D01*
X119588Y282308D01*
X118181Y280901D01*
X117075Y279246D01*
X116314Y277407D01*
X115925Y275456D01*
Y273466D01*
X116314Y271514D01*
X117075Y269675D01*
X118181Y268021D01*
X119588Y266614D01*
X121242Y265508D01*
X123081Y264746D01*
X125033Y264358D01*
X127023D01*
X128974Y264746D01*
X130813Y265508D01*
X132467Y266614D01*
X133875Y268021D01*
X134980Y269675D01*
X135742Y271514D01*
X136130Y273466D01*
Y275456D01*
X135742Y277407D01*
X134980Y279246D01*
X133875Y280901D01*
X132467Y282308D01*
X130813Y283413D01*
X128974Y284175D01*
X127023Y284563D01*
D02*
G37*
G36*
X97495D02*
X95505D01*
X93553Y284175D01*
X91715Y283413D01*
X90060Y282308D01*
X88653Y280901D01*
X87547Y279246D01*
X86786Y277407D01*
X86398Y275456D01*
Y273466D01*
X86786Y271514D01*
X87547Y269675D01*
X88653Y268021D01*
X90060Y266614D01*
X91715Y265508D01*
X93553Y264746D01*
X95505Y264358D01*
X97495D01*
X99447Y264746D01*
X101285Y265508D01*
X102940Y266614D01*
X104347Y268021D01*
X105453Y269675D01*
X106214Y271514D01*
X106602Y273466D01*
Y275456D01*
X106214Y277407D01*
X105453Y279246D01*
X104347Y280901D01*
X102940Y282308D01*
X101285Y283413D01*
X99447Y284175D01*
X97495Y284563D01*
D02*
G37*
G36*
X328321Y271331D02*
X326679D01*
X325070Y271011D01*
X323554Y270383D01*
X322189Y269471D01*
X321029Y268310D01*
X320117Y266946D01*
X319489Y265430D01*
X319169Y263821D01*
Y262179D01*
X319489Y260570D01*
X320117Y259054D01*
X321029Y257689D01*
X322189Y256529D01*
X323554Y255617D01*
X325070Y254989D01*
X326679Y254669D01*
X328321D01*
X329930Y254989D01*
X331446Y255617D01*
X332810Y256529D01*
X333971Y257689D01*
X334883Y259054D01*
X335511Y260570D01*
X335831Y262179D01*
Y263821D01*
X335511Y265430D01*
X334883Y266946D01*
X333971Y268310D01*
X332810Y269471D01*
X331446Y270383D01*
X329930Y271011D01*
X328321Y271331D01*
D02*
G37*
G36*
X58530Y266980D02*
X56966D01*
X55433Y266675D01*
X53988Y266077D01*
X52688Y265209D01*
X51583Y264103D01*
X50714Y262803D01*
X50116Y261359D01*
X49811Y259825D01*
Y258262D01*
X50116Y256728D01*
X50714Y255284D01*
X51583Y253984D01*
X52688Y252878D01*
X53988Y252010D01*
X55433Y251412D01*
X56966Y251106D01*
X58530D01*
X60063Y251412D01*
X61508Y252010D01*
X62808Y252878D01*
X63913Y253984D01*
X64782Y255284D01*
X65380Y256728D01*
X65685Y258262D01*
Y259825D01*
X65380Y261359D01*
X64782Y262803D01*
X63913Y264103D01*
X62808Y265209D01*
X61508Y266077D01*
X60063Y266675D01*
X58530Y266980D01*
D02*
G37*
G36*
X27034D02*
X25470D01*
X23937Y266675D01*
X22492Y266077D01*
X21192Y265209D01*
X20087Y264103D01*
X19218Y262803D01*
X18620Y261359D01*
X18315Y259825D01*
Y258262D01*
X18620Y256728D01*
X19218Y255284D01*
X20087Y253984D01*
X21192Y252878D01*
X22492Y252010D01*
X23937Y251412D01*
X25470Y251106D01*
X27034D01*
X28567Y251412D01*
X30012Y252010D01*
X31312Y252878D01*
X32417Y253984D01*
X33286Y255284D01*
X33884Y256728D01*
X34189Y258262D01*
Y259825D01*
X33884Y261359D01*
X33286Y262803D01*
X32417Y264103D01*
X31312Y265209D01*
X30012Y266077D01*
X28567Y266675D01*
X27034Y266980D01*
D02*
G37*
G36*
X359320Y241591D02*
X357680D01*
X356070Y241271D01*
X354554Y240643D01*
X353189Y239732D01*
X352029Y238571D01*
X351117Y237207D01*
X350489Y235691D01*
X350169Y234081D01*
Y232440D01*
X350489Y230831D01*
X351117Y229315D01*
X352029Y227950D01*
X353189Y226790D01*
X354554Y225878D01*
X356070Y225250D01*
X357680Y224930D01*
X359320D01*
X360930Y225250D01*
X362446Y225878D01*
X363810Y226790D01*
X364971Y227950D01*
X365883Y229315D01*
X366511Y230831D01*
X366831Y232440D01*
Y234081D01*
X366511Y235691D01*
X365883Y237207D01*
X364971Y238571D01*
X363810Y239732D01*
X362446Y240643D01*
X360930Y241271D01*
X359320Y241591D01*
D02*
G37*
G36*
X58530Y239815D02*
X56966D01*
X55433Y239510D01*
X53988Y238912D01*
X52688Y238043D01*
X51583Y236938D01*
X50714Y235638D01*
X50116Y234193D01*
X49811Y232660D01*
Y231096D01*
X50116Y229563D01*
X50714Y228118D01*
X51583Y226818D01*
X52688Y225713D01*
X53988Y224844D01*
X55433Y224246D01*
X56966Y223941D01*
X58530D01*
X60063Y224246D01*
X61508Y224844D01*
X62808Y225713D01*
X63913Y226818D01*
X64782Y228118D01*
X65380Y229563D01*
X65685Y231096D01*
Y232660D01*
X65380Y234193D01*
X64782Y235638D01*
X63913Y236938D01*
X62808Y238043D01*
X61508Y238912D01*
X60063Y239510D01*
X58530Y239815D01*
D02*
G37*
G36*
X27034D02*
X25470D01*
X23937Y239510D01*
X22492Y238912D01*
X21192Y238043D01*
X20087Y236938D01*
X19218Y235638D01*
X18620Y234193D01*
X18315Y232660D01*
Y231096D01*
X18620Y229563D01*
X19218Y228118D01*
X20087Y226818D01*
X21192Y225713D01*
X22492Y224844D01*
X23937Y224246D01*
X25470Y223941D01*
X27034D01*
X28567Y224246D01*
X30012Y224844D01*
X31312Y225713D01*
X32417Y226818D01*
X33286Y228118D01*
X33884Y229563D01*
X34189Y231096D01*
Y232660D01*
X33884Y234193D01*
X33286Y235638D01*
X32417Y236938D01*
X31312Y238043D01*
X30012Y238912D01*
X28567Y239510D01*
X27034Y239815D01*
D02*
G37*
G36*
X292560Y268022D02*
X290803D01*
X289079Y267680D01*
X287455Y267007D01*
X285994Y266031D01*
X284752Y264788D01*
X283775Y263327D01*
X283103Y261703D01*
X282760Y259980D01*
Y258223D01*
X283103Y256499D01*
X283775Y254875D01*
X284752Y253414D01*
X285994Y252172D01*
X286297Y251969D01*
Y251469D01*
X285994Y251267D01*
X284752Y250024D01*
X283775Y248563D01*
X283103Y246940D01*
X282760Y245216D01*
Y243459D01*
X283103Y241735D01*
X283775Y240112D01*
X284752Y238650D01*
X285994Y237408D01*
X286297Y237206D01*
Y236705D01*
X285994Y236503D01*
X284752Y235261D01*
X283775Y233799D01*
X283103Y232176D01*
X282760Y230452D01*
Y228695D01*
X283103Y226971D01*
X283775Y225348D01*
X284752Y223887D01*
X285994Y222644D01*
X287455Y221668D01*
X289079Y220995D01*
X290803Y220652D01*
X292560D01*
X294283Y220995D01*
X295907Y221668D01*
X297368Y222644D01*
X298611Y223887D01*
X299587Y225348D01*
X300260Y226971D01*
X300603Y228695D01*
Y230452D01*
X300260Y232176D01*
X299587Y233799D01*
X298611Y235261D01*
X297368Y236503D01*
X297065Y236705D01*
Y237206D01*
X297368Y237408D01*
X298611Y238650D01*
X299587Y240112D01*
X300260Y241735D01*
X300603Y243459D01*
Y245216D01*
X300260Y246940D01*
X299587Y248563D01*
X298611Y250024D01*
X297368Y251267D01*
X297065Y251469D01*
Y251969D01*
X297368Y252172D01*
X298611Y253414D01*
X299587Y254875D01*
X300260Y256499D01*
X300603Y258223D01*
Y259980D01*
X300260Y261703D01*
X299587Y263327D01*
X298611Y264788D01*
X297368Y266031D01*
X295907Y267007D01*
X294283Y267680D01*
X292560Y268022D01*
D02*
G37*
G36*
X190198D02*
X188440D01*
X186717Y267680D01*
X185093Y267007D01*
X183632Y266031D01*
X182389Y264788D01*
X181413Y263327D01*
X180741Y261703D01*
X180398Y259980D01*
Y258223D01*
X180741Y256499D01*
X181413Y254875D01*
X182389Y253414D01*
X183632Y252172D01*
X185093Y251195D01*
X186123Y250769D01*
Y250228D01*
X186119Y250226D01*
X185012Y249487D01*
X184071Y248546D01*
X183332Y247439D01*
X182823Y246210D01*
X182563Y244904D01*
Y243574D01*
X182823Y242268D01*
X183332Y241039D01*
X184071Y239932D01*
X185012Y238991D01*
X185940Y238371D01*
X185918Y237821D01*
X185093Y237479D01*
X183632Y236503D01*
X182389Y235260D01*
X181413Y233799D01*
X180741Y232176D01*
X180398Y230452D01*
Y228695D01*
X180741Y226971D01*
X181413Y225348D01*
X182389Y223886D01*
X183632Y222644D01*
X185093Y221668D01*
X186717Y220995D01*
X188440Y220652D01*
X190198D01*
X191921Y220995D01*
X193545Y221668D01*
X195006Y222644D01*
X196249Y223886D01*
X197225Y225348D01*
X197897Y226971D01*
X198240Y228695D01*
Y230452D01*
X197897Y232176D01*
X197225Y233799D01*
X196249Y235260D01*
X195006Y236503D01*
X193545Y237479D01*
X192720Y237821D01*
X192698Y238371D01*
X193626Y238991D01*
X194567Y239932D01*
X195306Y241039D01*
X195815Y242268D01*
X196075Y243574D01*
Y244904D01*
X195815Y246210D01*
X195306Y247439D01*
X194567Y248546D01*
X193626Y249487D01*
X192519Y250226D01*
X192515Y250228D01*
Y250769D01*
X193545Y251195D01*
X195006Y252172D01*
X196249Y253414D01*
X197225Y254875D01*
X197897Y256499D01*
X198240Y258223D01*
Y259980D01*
X197897Y261703D01*
X197225Y263327D01*
X196249Y264788D01*
X195006Y266031D01*
X193545Y267007D01*
X191921Y267680D01*
X190198Y268022D01*
D02*
G37*
G36*
X168704Y246154D02*
X167296D01*
X165915Y245879D01*
X164613Y245340D01*
X163442Y244557D01*
X162447Y243562D01*
X161664Y242391D01*
X161125Y241090D01*
X160850Y239708D01*
Y238300D01*
X161125Y236919D01*
X161664Y235617D01*
X162447Y234446D01*
X163442Y233451D01*
X164482Y232756D01*
X164381Y232243D01*
X163902Y232196D01*
X162555Y231787D01*
X161313Y231123D01*
X160224Y230230D01*
X159331Y229141D01*
X158667Y227899D01*
X158258Y226552D01*
X158120Y225150D01*
X158258Y223748D01*
X158667Y222401D01*
X159331Y221159D01*
X160224Y220070D01*
X161313Y219177D01*
X161473Y219091D01*
Y218591D01*
X161253Y218474D01*
X160164Y217580D01*
X159271Y216491D01*
X158607Y215249D01*
X158198Y213902D01*
X158060Y212500D01*
X158198Y211099D01*
X158607Y209751D01*
X159271Y208509D01*
X160164Y207420D01*
X160373Y207248D01*
Y206748D01*
X160144Y206560D01*
X159251Y205471D01*
X158587Y204229D01*
X158178Y202882D01*
X158040Y201480D01*
X158178Y200079D01*
X158587Y198731D01*
X159251Y197489D01*
X160144Y196400D01*
X161233Y195507D01*
X162475Y194843D01*
X163823Y194434D01*
X165224Y194296D01*
X170736D01*
X172137Y194434D01*
X173485Y194843D01*
X174727Y195507D01*
X175816Y196400D01*
X176709Y197489D01*
X177373Y198731D01*
X177782Y200079D01*
X177920Y201480D01*
X177782Y202882D01*
X177373Y204229D01*
X176709Y205471D01*
X175816Y206560D01*
X175607Y206732D01*
Y207232D01*
X175836Y207420D01*
X176729Y208509D01*
X177393Y209751D01*
X177802Y211099D01*
X177940Y212500D01*
X177802Y213902D01*
X177393Y215249D01*
X176729Y216491D01*
X175836Y217580D01*
X174747Y218474D01*
X174587Y218559D01*
Y219059D01*
X174807Y219177D01*
X175896Y220070D01*
X176789Y221159D01*
X177453Y222401D01*
X177862Y223748D01*
X178000Y225150D01*
X177862Y226552D01*
X177453Y227899D01*
X176789Y229141D01*
X175896Y230230D01*
X174807Y231123D01*
X173565Y231787D01*
X172218Y232196D01*
X171659Y232251D01*
X171533Y232766D01*
X172558Y233451D01*
X173554Y234446D01*
X174336Y235617D01*
X174875Y236919D01*
X175150Y238300D01*
Y239708D01*
X174875Y241090D01*
X174336Y242391D01*
X173554Y243562D01*
X172558Y244557D01*
X171387Y245340D01*
X170086Y245879D01*
X168704Y246154D01*
D02*
G37*
G36*
X350969Y207383D02*
X347031D01*
X345244Y207207D01*
X343525Y206686D01*
X341941Y205839D01*
X340553Y204700D01*
X339413Y203311D01*
X338567Y201728D01*
X338045Y200009D01*
X337869Y198221D01*
X338045Y196434D01*
X338567Y194715D01*
X339413Y193131D01*
X340553Y191743D01*
X341941Y190603D01*
X343525Y189756D01*
X345244Y189235D01*
X347031Y189059D01*
X350969D01*
X352756Y189235D01*
X354475Y189756D01*
X356059Y190603D01*
X357447Y191743D01*
X358587Y193131D01*
X359433Y194715D01*
X359955Y196434D01*
X360131Y198221D01*
X359955Y200009D01*
X359433Y201728D01*
X358587Y203311D01*
X357447Y204700D01*
X356059Y205839D01*
X354475Y206686D01*
X352756Y207207D01*
X350969Y207383D01*
D02*
G37*
G36*
X67005Y203331D02*
X65364D01*
X63755Y203011D01*
X62239Y202383D01*
X60874Y201471D01*
X59714Y200310D01*
X58802Y198946D01*
X58174Y197430D01*
X57854Y195820D01*
Y194179D01*
X58174Y192570D01*
X58802Y191054D01*
X59714Y189690D01*
X60874Y188529D01*
X62239Y187617D01*
X63755Y186989D01*
X65364Y186669D01*
X67005D01*
X68615Y186989D01*
X70131Y187617D01*
X71495Y188529D01*
X72656Y189690D01*
X73568Y191054D01*
X74196Y192570D01*
X74516Y194179D01*
Y195820D01*
X74196Y197430D01*
X73568Y198946D01*
X72656Y200310D01*
X71495Y201471D01*
X70131Y202383D01*
X68615Y203011D01*
X67005Y203331D01*
D02*
G37*
G36*
X27635D02*
X25995D01*
X24385Y203011D01*
X22869Y202383D01*
X21505Y201471D01*
X20344Y200310D01*
X19432Y198946D01*
X18804Y197430D01*
X18484Y195820D01*
Y194179D01*
X18804Y192570D01*
X19432Y191054D01*
X20344Y189690D01*
X21505Y188529D01*
X22869Y187617D01*
X24385Y186989D01*
X25995Y186669D01*
X27635D01*
X29245Y186989D01*
X30761Y187617D01*
X32125Y188529D01*
X33286Y189690D01*
X34198Y191054D01*
X34826Y192570D01*
X35146Y194179D01*
Y195820D01*
X34826Y197430D01*
X34198Y198946D01*
X33286Y200310D01*
X32125Y201471D01*
X30761Y202383D01*
X29245Y203011D01*
X27635Y203331D01*
D02*
G37*
G36*
X60859Y182224D02*
X59141D01*
X57455Y181889D01*
X55867Y181231D01*
X54439Y180277D01*
X53223Y179061D01*
X52268Y177632D01*
X51611Y176045D01*
X51276Y174359D01*
Y172641D01*
X51611Y170955D01*
X52268Y169368D01*
X53223Y167938D01*
X54439Y166723D01*
X55867Y165769D01*
X57455Y165111D01*
X59141Y164776D01*
X60859D01*
X62545Y165111D01*
X64133Y165769D01*
X65561Y166723D01*
X66777Y167938D01*
X67731Y169368D01*
X68389Y170955D01*
X68724Y172641D01*
Y174359D01*
X68389Y176045D01*
X67731Y177632D01*
X66777Y179061D01*
X65561Y180277D01*
X64133Y181231D01*
X62545Y181889D01*
X60859Y182224D01*
D02*
G37*
G36*
X41174D02*
X39456D01*
X37770Y181889D01*
X36182Y181231D01*
X34754Y180277D01*
X33538Y179061D01*
X32583Y177632D01*
X31926Y176045D01*
X31591Y174359D01*
Y172641D01*
X31926Y170955D01*
X32583Y169368D01*
X33538Y167938D01*
X34754Y166723D01*
X36182Y165769D01*
X37770Y165111D01*
X39456Y164776D01*
X41174D01*
X42860Y165111D01*
X44448Y165769D01*
X45877Y166723D01*
X47092Y167938D01*
X48046Y169368D01*
X48704Y170955D01*
X49039Y172641D01*
Y174359D01*
X48704Y176045D01*
X48046Y177632D01*
X47092Y179061D01*
X45877Y180277D01*
X44448Y181231D01*
X42860Y181889D01*
X41174Y182224D01*
D02*
G37*
G36*
X190198Y208967D02*
X188440D01*
X186717Y208624D01*
X185093Y207952D01*
X183632Y206976D01*
X182389Y205733D01*
X181413Y204272D01*
X180741Y202648D01*
X180398Y200925D01*
Y199167D01*
X180741Y197444D01*
X181413Y195820D01*
X182389Y194359D01*
X183632Y193116D01*
X185093Y192140D01*
X186123Y191714D01*
Y191173D01*
X186119Y191171D01*
X185012Y190431D01*
X184071Y189490D01*
X183332Y188384D01*
X182823Y187154D01*
X182563Y185849D01*
Y184518D01*
X182823Y183213D01*
X183332Y181984D01*
X184071Y180877D01*
X185012Y179936D01*
X185940Y179316D01*
X185917Y178766D01*
X185093Y178425D01*
X183632Y177448D01*
X182389Y176206D01*
X181413Y174744D01*
X180741Y173121D01*
X180398Y171397D01*
Y169640D01*
X180741Y167916D01*
X181413Y166293D01*
X182389Y164832D01*
X183632Y163589D01*
X185093Y162613D01*
X186717Y161940D01*
X188440Y161597D01*
X190198D01*
X191921Y161940D01*
X193545Y162613D01*
X195006Y163589D01*
X196249Y164832D01*
X197225Y166293D01*
X197897Y167916D01*
X198240Y169640D01*
Y171397D01*
X197897Y173121D01*
X197225Y174744D01*
X196249Y176206D01*
X195006Y177448D01*
X193545Y178425D01*
X192721Y178766D01*
X192698Y179316D01*
X193626Y179936D01*
X194567Y180877D01*
X195306Y181984D01*
X195815Y183213D01*
X196075Y184518D01*
Y185849D01*
X195815Y187154D01*
X195306Y188384D01*
X194567Y189490D01*
X193626Y190431D01*
X192519Y191171D01*
X192515Y191173D01*
Y191714D01*
X193545Y192140D01*
X195006Y193116D01*
X196249Y194359D01*
X197225Y195820D01*
X197897Y197444D01*
X198240Y199167D01*
Y200925D01*
X197897Y202648D01*
X197225Y204272D01*
X196249Y205733D01*
X195006Y206976D01*
X193545Y207952D01*
X191921Y208624D01*
X190198Y208967D01*
D02*
G37*
G36*
X350969Y177462D02*
X347031D01*
X345244Y177286D01*
X343525Y176765D01*
X341941Y175918D01*
X340553Y174779D01*
X339413Y173390D01*
X338567Y171806D01*
X338045Y170088D01*
X337869Y168300D01*
X338045Y166513D01*
X338567Y164794D01*
X339413Y163210D01*
X340553Y161821D01*
X341941Y160682D01*
X343525Y159835D01*
X345244Y159314D01*
X347031Y159138D01*
X350969D01*
X352756Y159314D01*
X354475Y159835D01*
X356059Y160682D01*
X357447Y161821D01*
X358587Y163210D01*
X359433Y164794D01*
X359955Y166513D01*
X360131Y168300D01*
X359955Y170088D01*
X359433Y171806D01*
X358587Y173390D01*
X357447Y174779D01*
X356059Y175918D01*
X354475Y176765D01*
X352756Y177286D01*
X350969Y177462D01*
D02*
G37*
G36*
X324500Y169628D02*
X323021Y169482D01*
X321599Y169051D01*
X320289Y168350D01*
X319140Y167408D01*
X318198Y166259D01*
X317497Y164949D01*
X317066Y163527D01*
X316920Y162048D01*
Y160473D01*
X317066Y158994D01*
X317497Y157573D01*
X318198Y156262D01*
X319140Y155113D01*
X320289Y154171D01*
X321599Y153470D01*
X323021Y153039D01*
X324500Y152893D01*
X325979Y153039D01*
X327401Y153470D01*
X328711Y154171D01*
X329860Y155113D01*
X330802Y156262D01*
X331503Y157573D01*
X331934Y158994D01*
X332080Y160473D01*
Y162048D01*
X331934Y163527D01*
X331503Y164949D01*
X330802Y166259D01*
X329860Y167408D01*
X328711Y168350D01*
X327401Y169051D01*
X325979Y169482D01*
X324500Y169628D01*
D02*
G37*
G36*
X70445Y162315D02*
X68610D01*
X66811Y161957D01*
X65115Y161255D01*
X63590Y160235D01*
X62292Y158938D01*
X61273Y157412D01*
X60571Y155717D01*
X60213Y153917D01*
Y152083D01*
X60571Y150283D01*
X61273Y148588D01*
X62292Y147062D01*
X63590Y145765D01*
X65115Y144745D01*
X66811Y144043D01*
X68610Y143685D01*
X70445D01*
X72245Y144043D01*
X73940Y144745D01*
X75466Y145765D01*
X76763Y147062D01*
X77782Y148588D01*
X78485Y150283D01*
X78843Y152083D01*
Y153917D01*
X78485Y155717D01*
X77782Y157412D01*
X76763Y158938D01*
X75466Y160235D01*
X73940Y161255D01*
X72245Y161957D01*
X70445Y162315D01*
D02*
G37*
G36*
X40917D02*
X39083D01*
X37283Y161957D01*
X35588Y161255D01*
X34062Y160235D01*
X32765Y158938D01*
X31745Y157412D01*
X31043Y155717D01*
X30685Y153917D01*
Y152083D01*
X31043Y150283D01*
X31745Y148588D01*
X32765Y147062D01*
X34062Y145765D01*
X35588Y144745D01*
X37283Y144043D01*
X39083Y143685D01*
X40917D01*
X42717Y144043D01*
X44412Y144745D01*
X45938Y145765D01*
X47235Y147062D01*
X48255Y148588D01*
X48957Y150283D01*
X49315Y152083D01*
Y153917D01*
X48957Y155717D01*
X48255Y157412D01*
X47235Y158938D01*
X45938Y160235D01*
X44412Y161255D01*
X42717Y161957D01*
X40917Y162315D01*
D02*
G37*
G36*
X354700Y154710D02*
X352913Y154534D01*
X351194Y154013D01*
X349610Y153166D01*
X348221Y152027D01*
X347082Y150638D01*
X346235Y149054D01*
X345714Y147336D01*
X345538Y145548D01*
Y143973D01*
X345714Y142186D01*
X346235Y140467D01*
X347082Y138883D01*
X348221Y137495D01*
X349610Y136355D01*
X351194Y135508D01*
X352913Y134987D01*
X354700Y134811D01*
X356487Y134987D01*
X358206Y135508D01*
X359790Y136355D01*
X361179Y137495D01*
X362318Y138883D01*
X363165Y140467D01*
X363686Y142186D01*
X363862Y143973D01*
Y145548D01*
X363686Y147336D01*
X363165Y149054D01*
X362318Y150638D01*
X361179Y152027D01*
X359790Y153166D01*
X358206Y154013D01*
X356487Y154534D01*
X354700Y154710D01*
D02*
G37*
G36*
X172787Y157080D02*
X171213D01*
X169734Y156934D01*
X168312Y156503D01*
X167001Y155802D01*
X165853Y154860D01*
X164910Y153711D01*
X164210Y152401D01*
X163778Y150979D01*
X163633Y149500D01*
X163778Y148021D01*
X164210Y146599D01*
X164910Y145289D01*
X165558Y144500D01*
X164910Y143711D01*
X164210Y142401D01*
X163778Y140979D01*
X163633Y139500D01*
X163778Y138021D01*
X164210Y136599D01*
X164910Y135289D01*
X165853Y134140D01*
X167001Y133198D01*
X168312Y132497D01*
X169734Y132066D01*
X171213Y131920D01*
X172787D01*
X174266Y132066D01*
X175688Y132497D01*
X176998Y133198D01*
X178147Y134140D01*
X179090Y135289D01*
X179790Y136599D01*
X180222Y138021D01*
X180367Y139500D01*
X180222Y140979D01*
X179790Y142401D01*
X179090Y143711D01*
X178442Y144500D01*
X179090Y145289D01*
X179790Y146599D01*
X180222Y148021D01*
X180367Y149500D01*
X180222Y150979D01*
X179790Y152401D01*
X179090Y153711D01*
X178147Y154860D01*
X176998Y155802D01*
X175688Y156503D01*
X174266Y156934D01*
X172787Y157080D01*
D02*
G37*
G36*
X122146Y147513D02*
X111319D01*
X110052Y147388D01*
X108835Y147019D01*
X107712Y146419D01*
X106728Y145612D01*
X105921Y144628D01*
X105321Y143506D01*
X104952Y142288D01*
X104827Y141021D01*
Y136100D01*
X104952Y134834D01*
X105321Y133616D01*
X105921Y132493D01*
X106728Y131509D01*
X107712Y130702D01*
X108835Y130102D01*
X110052Y129733D01*
X111319Y129608D01*
X122146D01*
X123412Y129733D01*
X124630Y130102D01*
X125752Y130702D01*
X126736Y131509D01*
X127543Y132493D01*
X128143Y133616D01*
X128513Y134834D01*
X128638Y136100D01*
Y141021D01*
X128513Y142288D01*
X128143Y143506D01*
X127543Y144628D01*
X126736Y145612D01*
X125752Y146419D01*
X124630Y147019D01*
X123412Y147388D01*
X122146Y147513D01*
D02*
G37*
G36*
X264689Y112115D02*
X263311D01*
X261958Y111846D01*
X260684Y111319D01*
X259538Y110553D01*
X259000Y110015D01*
X258462Y110553D01*
X257316Y111319D01*
X256042Y111846D01*
X254689Y112115D01*
X253311D01*
X251958Y111846D01*
X250684Y111319D01*
X249538Y110553D01*
X249000Y110015D01*
X248462Y110553D01*
X247316Y111319D01*
X246042Y111846D01*
X244689Y112115D01*
X243311D01*
X241958Y111846D01*
X240684Y111319D01*
X239538Y110553D01*
X239000Y110015D01*
X238462Y110553D01*
X237316Y111319D01*
X236042Y111846D01*
X234689Y112115D01*
X233311D01*
X231958Y111846D01*
X230684Y111319D01*
X229538Y110553D01*
X229000Y110015D01*
X228462Y110553D01*
X227316Y111319D01*
X226042Y111846D01*
X224689Y112115D01*
X223311D01*
X221958Y111846D01*
X220684Y111319D01*
X219538Y110553D01*
X219000Y110015D01*
X218462Y110553D01*
X217316Y111319D01*
X216042Y111846D01*
X214689Y112115D01*
X213311D01*
X211958Y111846D01*
X210684Y111319D01*
X209538Y110553D01*
X209000Y110015D01*
X208462Y110553D01*
X207316Y111319D01*
X206042Y111846D01*
X204689Y112115D01*
X203311D01*
X201958Y111846D01*
X200684Y111319D01*
X199538Y110553D01*
X199000Y110015D01*
X198462Y110553D01*
X197316Y111319D01*
X196042Y111846D01*
X194689Y112115D01*
X193311D01*
X191958Y111846D01*
X190684Y111319D01*
X189538Y110553D01*
X189000Y110015D01*
X188462Y110553D01*
X187316Y111319D01*
X186042Y111846D01*
X184689Y112115D01*
X183311D01*
X181958Y111846D01*
X180684Y111319D01*
X179538Y110553D01*
X179000Y110015D01*
X178462Y110553D01*
X177316Y111319D01*
X176042Y111846D01*
X174689Y112115D01*
X173311D01*
X171958Y111846D01*
X170684Y111319D01*
X169538Y110553D01*
X169000Y110015D01*
X168462Y110553D01*
X167316Y111319D01*
X166042Y111846D01*
X164689Y112115D01*
X163311D01*
X161958Y111846D01*
X160684Y111319D01*
X159538Y110553D01*
X159000Y110015D01*
X158462Y110553D01*
X157316Y111319D01*
X156042Y111846D01*
X154689Y112115D01*
X153311D01*
X151958Y111846D01*
X150684Y111319D01*
X149538Y110553D01*
X149000Y110015D01*
X148462Y110553D01*
X147316Y111319D01*
X146042Y111846D01*
X144689Y112115D01*
X143311D01*
X141958Y111846D01*
X140684Y111319D01*
X139538Y110553D01*
X139000Y110015D01*
X138462Y110553D01*
X137316Y111319D01*
X136042Y111846D01*
X134689Y112115D01*
X133311D01*
X131958Y111846D01*
X130684Y111319D01*
X129538Y110553D01*
X129000Y110015D01*
X128462Y110553D01*
X127316Y111319D01*
X126042Y111846D01*
X124689Y112115D01*
X123311D01*
X121958Y111846D01*
X120684Y111319D01*
X119538Y110553D01*
X119000Y110015D01*
X118462Y110553D01*
X117316Y111319D01*
X116042Y111846D01*
X114689Y112115D01*
X113311D01*
X111958Y111846D01*
X110684Y111319D01*
X109538Y110553D01*
X109000Y110015D01*
X108462Y110553D01*
X107316Y111319D01*
X106042Y111846D01*
X104689Y112115D01*
X103311D01*
X101958Y111846D01*
X100684Y111319D01*
X99538Y110553D01*
X99000Y110015D01*
X98462Y110553D01*
X97316Y111319D01*
X96042Y111846D01*
X94689Y112115D01*
X93311D01*
X91958Y111846D01*
X90684Y111319D01*
X89538Y110553D01*
X89000Y110015D01*
X88462Y110553D01*
X87316Y111319D01*
X86042Y111846D01*
X84689Y112115D01*
X83311D01*
X81958Y111846D01*
X80684Y111319D01*
X79538Y110553D01*
X79000Y110015D01*
X78462Y110553D01*
X77316Y111319D01*
X76042Y111846D01*
X74689Y112115D01*
X73311D01*
X71958Y111846D01*
X70684Y111319D01*
X69538Y110553D01*
X69000Y110015D01*
X68462Y110553D01*
X67316Y111319D01*
X66042Y111846D01*
X64689Y112115D01*
X63311D01*
X61958Y111846D01*
X60684Y111319D01*
X59538Y110553D01*
X59000Y110015D01*
X58462Y110553D01*
X57316Y111319D01*
X56042Y111846D01*
X54689Y112115D01*
X53311D01*
X51958Y111846D01*
X50684Y111319D01*
X49538Y110553D01*
X49000Y110015D01*
X48462Y110553D01*
X47316Y111319D01*
X46042Y111846D01*
X44689Y112115D01*
X43311D01*
X41958Y111846D01*
X40684Y111319D01*
X39538Y110553D01*
X38563Y109578D01*
X37797Y108431D01*
X37269Y107157D01*
X37000Y105805D01*
Y104426D01*
X37269Y103074D01*
X37797Y101800D01*
X38563Y100653D01*
X39538Y99678D01*
X40684Y98912D01*
X41958Y98384D01*
X43311Y98115D01*
X44689D01*
X46042Y98384D01*
X47316Y98912D01*
X48462Y99678D01*
X49000Y100216D01*
X49538Y99678D01*
X50684Y98912D01*
X51958Y98384D01*
X53311Y98115D01*
X54689D01*
X56042Y98384D01*
X57316Y98912D01*
X58462Y99678D01*
X59000Y100216D01*
X59538Y99678D01*
X60684Y98912D01*
X61958Y98384D01*
X63311Y98115D01*
X64689D01*
X66042Y98384D01*
X67316Y98912D01*
X68462Y99678D01*
X69000Y100216D01*
X69538Y99678D01*
X70684Y98912D01*
X71958Y98384D01*
X73311Y98115D01*
X74689D01*
X76042Y98384D01*
X77316Y98912D01*
X78462Y99678D01*
X79000Y100216D01*
X79538Y99678D01*
X80684Y98912D01*
X81958Y98384D01*
X83311Y98115D01*
X84689D01*
X86042Y98384D01*
X87316Y98912D01*
X88462Y99678D01*
X89000Y100216D01*
X89538Y99678D01*
X90684Y98912D01*
X91958Y98384D01*
X93311Y98115D01*
X94689D01*
X96042Y98384D01*
X97316Y98912D01*
X98462Y99678D01*
X99000Y100216D01*
X99538Y99678D01*
X100684Y98912D01*
X101958Y98384D01*
X103311Y98115D01*
X104689D01*
X106042Y98384D01*
X107316Y98912D01*
X108462Y99678D01*
X109000Y100216D01*
X109538Y99678D01*
X110684Y98912D01*
X111958Y98384D01*
X113311Y98115D01*
X114689D01*
X116042Y98384D01*
X117316Y98912D01*
X118462Y99678D01*
X119000Y100216D01*
X119538Y99678D01*
X120684Y98912D01*
X121958Y98384D01*
X123311Y98115D01*
X124689D01*
X126042Y98384D01*
X127316Y98912D01*
X128462Y99678D01*
X129000Y100216D01*
X129538Y99678D01*
X130684Y98912D01*
X131958Y98384D01*
X133311Y98115D01*
X134689D01*
X136042Y98384D01*
X137316Y98912D01*
X138462Y99678D01*
X139000Y100216D01*
X139538Y99678D01*
X140684Y98912D01*
X141958Y98384D01*
X143311Y98115D01*
X144689D01*
X146042Y98384D01*
X147316Y98912D01*
X148462Y99678D01*
X149000Y100216D01*
X149538Y99678D01*
X150684Y98912D01*
X151958Y98384D01*
X153311Y98115D01*
X154689D01*
X156042Y98384D01*
X157316Y98912D01*
X158462Y99678D01*
X159000Y100216D01*
X159538Y99678D01*
X160684Y98912D01*
X161958Y98384D01*
X163311Y98115D01*
X164689D01*
X166042Y98384D01*
X167316Y98912D01*
X168462Y99678D01*
X169000Y100216D01*
X169538Y99678D01*
X170684Y98912D01*
X171958Y98384D01*
X173311Y98115D01*
X174689D01*
X176042Y98384D01*
X177316Y98912D01*
X178462Y99678D01*
X179000Y100216D01*
X179538Y99678D01*
X180684Y98912D01*
X181958Y98384D01*
X183311Y98115D01*
X184689D01*
X186042Y98384D01*
X187316Y98912D01*
X188462Y99678D01*
X189000Y100216D01*
X189538Y99678D01*
X190684Y98912D01*
X191958Y98384D01*
X193311Y98115D01*
X194689D01*
X196042Y98384D01*
X197316Y98912D01*
X198462Y99678D01*
X199000Y100216D01*
X199538Y99678D01*
X200684Y98912D01*
X201958Y98384D01*
X203311Y98115D01*
X204689D01*
X206042Y98384D01*
X207316Y98912D01*
X208462Y99678D01*
X209000Y100216D01*
X209538Y99678D01*
X210684Y98912D01*
X211958Y98384D01*
X213311Y98115D01*
X214689D01*
X216042Y98384D01*
X217316Y98912D01*
X218462Y99678D01*
X219000Y100216D01*
X219538Y99678D01*
X220684Y98912D01*
X221958Y98384D01*
X223311Y98115D01*
X224689D01*
X226042Y98384D01*
X227316Y98912D01*
X228462Y99678D01*
X229000Y100216D01*
X229538Y99678D01*
X230684Y98912D01*
X231958Y98384D01*
X233311Y98115D01*
X234689D01*
X236042Y98384D01*
X237316Y98912D01*
X238462Y99678D01*
X239000Y100216D01*
X239538Y99678D01*
X240684Y98912D01*
X241958Y98384D01*
X243311Y98115D01*
X244689D01*
X246042Y98384D01*
X247316Y98912D01*
X248462Y99678D01*
X249000Y100216D01*
X249538Y99678D01*
X250684Y98912D01*
X251958Y98384D01*
X253311Y98115D01*
X254689D01*
X256042Y98384D01*
X257316Y98912D01*
X258462Y99678D01*
X259000Y100216D01*
X259538Y99678D01*
X260684Y98912D01*
X261958Y98384D01*
X263311Y98115D01*
X264689D01*
X266042Y98384D01*
X267316Y98912D01*
X268462Y99678D01*
X269437Y100653D01*
X270203Y101800D01*
X270731Y103074D01*
X271000Y104426D01*
Y105805D01*
X270731Y107157D01*
X270203Y108431D01*
X269437Y109578D01*
X268462Y110553D01*
X267316Y111319D01*
X266042Y111846D01*
X264689Y112115D01*
D02*
G37*
G36*
X336640Y121500D02*
X335360D01*
X334104Y121250D01*
X332921Y120760D01*
X331856Y120049D01*
X330951Y119143D01*
X330240Y118079D01*
X329750Y116896D01*
X329500Y115640D01*
Y114360D01*
X329750Y113104D01*
X330240Y111921D01*
X330951Y110856D01*
X331856Y109951D01*
X332921Y109240D01*
X334104Y108750D01*
X335360Y108500D01*
X336640D01*
X337896Y108750D01*
X339079Y109240D01*
X340143Y109951D01*
X341049Y110856D01*
X341760Y111921D01*
X342250Y113104D01*
X342500Y114360D01*
Y115640D01*
X342250Y116896D01*
X341760Y118079D01*
X341049Y119143D01*
X340143Y120049D01*
X339079Y120760D01*
X337896Y121250D01*
X336640Y121500D01*
D02*
G37*
G36*
X165204Y80150D02*
X163796D01*
X162414Y79875D01*
X161113Y79336D01*
X159942Y78554D01*
X159500Y78112D01*
X159058Y78554D01*
X157887Y79336D01*
X156586Y79875D01*
X155204Y80150D01*
X153796D01*
X152414Y79875D01*
X151113Y79336D01*
X149942Y78554D01*
X149500Y78112D01*
X149058Y78554D01*
X147887Y79336D01*
X146586Y79875D01*
X145204Y80150D01*
X143796D01*
X142414Y79875D01*
X141113Y79336D01*
X139942Y78554D01*
X139500Y78112D01*
X139058Y78554D01*
X137887Y79336D01*
X136586Y79875D01*
X135204Y80150D01*
X133796D01*
X132414Y79875D01*
X131113Y79336D01*
X129942Y78554D01*
X128946Y77558D01*
X128164Y76387D01*
X127625Y75086D01*
X127350Y73704D01*
Y72296D01*
X127625Y70914D01*
X127769Y70566D01*
X127491Y70150D01*
X127350D01*
Y55850D01*
X141650D01*
Y55991D01*
X142066Y56269D01*
X142414Y56125D01*
X143796Y55850D01*
X145204D01*
X146586Y56125D01*
X147887Y56664D01*
X149058Y57446D01*
X149500Y57888D01*
X149942Y57446D01*
X151113Y56664D01*
X152414Y56125D01*
X153796Y55850D01*
X155204D01*
X156586Y56125D01*
X157887Y56664D01*
X159058Y57446D01*
X160054Y58442D01*
X160836Y59613D01*
X161375Y60914D01*
X161650Y62296D01*
Y63704D01*
X161375Y65086D01*
X160907Y66217D01*
X161283Y66593D01*
X162414Y66125D01*
X163796Y65850D01*
X165204D01*
X166586Y66125D01*
X167887Y66664D01*
X169058Y67446D01*
X170054Y68442D01*
X170836Y69613D01*
X171375Y70914D01*
X171650Y72296D01*
Y73704D01*
X171375Y75086D01*
X170836Y76387D01*
X170054Y77558D01*
X169058Y78554D01*
X167887Y79336D01*
X166586Y79875D01*
X165204Y80150D01*
D02*
G37*
G36*
X324081Y65437D02*
X322517D01*
X320984Y65132D01*
X319540Y64534D01*
X318240Y63665D01*
X317134Y62560D01*
X316266Y61260D01*
X315667Y59815D01*
X315362Y58282D01*
Y56718D01*
X315667Y55185D01*
X316266Y53740D01*
X317134Y52441D01*
X318240Y51335D01*
X319540Y50466D01*
X320984Y49868D01*
X322517Y49563D01*
X324081D01*
X325614Y49868D01*
X327059Y50466D01*
X328359Y51335D01*
X329464Y52441D01*
X330333Y53740D01*
X330931Y55185D01*
X331236Y56718D01*
Y58282D01*
X330931Y59815D01*
X330333Y61260D01*
X329464Y62560D01*
X328359Y63665D01*
X327059Y64534D01*
X325614Y65132D01*
X324081Y65437D01*
D02*
G37*
G36*
X284711D02*
X283148D01*
X281614Y65132D01*
X280170Y64534D01*
X278870Y63665D01*
X277764Y62560D01*
X276895Y61260D01*
X276297Y59815D01*
X275992Y58282D01*
Y56718D01*
X276297Y55185D01*
X276895Y53740D01*
X277764Y52441D01*
X278870Y51335D01*
X280170Y50466D01*
X281614Y49868D01*
X283148Y49563D01*
X284711D01*
X286244Y49868D01*
X287689Y50466D01*
X288989Y51335D01*
X290094Y52441D01*
X290963Y53740D01*
X291561Y55185D01*
X291866Y56718D01*
Y58282D01*
X291561Y59815D01*
X290963Y61260D01*
X290094Y62560D01*
X288989Y63665D01*
X287689Y64534D01*
X286244Y65132D01*
X284711Y65437D01*
D02*
G37*
G36*
X237467D02*
X235903D01*
X234370Y65132D01*
X232925Y64534D01*
X231626Y63665D01*
X230520Y62560D01*
X229651Y61260D01*
X229053Y59815D01*
X228748Y58282D01*
Y56718D01*
X229053Y55185D01*
X229651Y53740D01*
X230520Y52441D01*
X231626Y51335D01*
X232925Y50466D01*
X234370Y49868D01*
X235903Y49563D01*
X237467D01*
X239000Y49868D01*
X240445Y50466D01*
X241745Y51335D01*
X242850Y52441D01*
X243719Y53740D01*
X244317Y55185D01*
X244622Y56718D01*
Y58282D01*
X244317Y59815D01*
X243719Y61260D01*
X242850Y62560D01*
X241745Y63665D01*
X240445Y64534D01*
X239000Y65132D01*
X237467Y65437D01*
D02*
G37*
G36*
X89689Y41500D02*
X88311D01*
X86958Y41231D01*
X85684Y40703D01*
X84538Y39937D01*
X84000Y39399D01*
X83462Y39937D01*
X82316Y40703D01*
X81042Y41231D01*
X79689Y41500D01*
X78311D01*
X76958Y41231D01*
X75684Y40703D01*
X74538Y39937D01*
X73563Y38962D01*
X72797Y37816D01*
X72269Y36542D01*
X72000Y35190D01*
Y33811D01*
X72269Y32458D01*
X72797Y31184D01*
X73563Y30038D01*
X74538Y29063D01*
X75684Y28297D01*
X76958Y27769D01*
X78311Y27500D01*
X79689D01*
X81042Y27769D01*
X82316Y28297D01*
X83462Y29063D01*
X84000Y29601D01*
X84538Y29063D01*
X85684Y28297D01*
X86958Y27769D01*
X88311Y27500D01*
X89689D01*
X91042Y27769D01*
X92316Y28297D01*
X93462Y29063D01*
X94437Y30038D01*
X95203Y31184D01*
X95731Y32458D01*
X96000Y33811D01*
Y35190D01*
X95731Y36542D01*
X95203Y37816D01*
X94437Y38962D01*
X93462Y39937D01*
X92316Y40703D01*
X91042Y41231D01*
X89689Y41500D01*
D02*
G37*
G36*
X59689D02*
X58311D01*
X56958Y41231D01*
X55684Y40703D01*
X54538Y39937D01*
X53563Y38962D01*
X52797Y37816D01*
X52269Y36542D01*
X52000Y35190D01*
Y33811D01*
X52269Y32458D01*
X52797Y31184D01*
X53563Y30038D01*
X54538Y29063D01*
X55684Y28297D01*
X56958Y27769D01*
X58311Y27500D01*
X59689D01*
X61042Y27769D01*
X62316Y28297D01*
X63462Y29063D01*
X64437Y30038D01*
X65203Y31184D01*
X65731Y32458D01*
X66000Y33811D01*
Y35190D01*
X65731Y36542D01*
X65203Y37816D01*
X64437Y38962D01*
X63462Y39937D01*
X62316Y40703D01*
X61042Y41231D01*
X59689Y41500D01*
D02*
G37*
%LPD*%
D49*
X40315Y173500D02*
D03*
X60000D02*
D03*
D50*
X164000Y18500D02*
D03*
X174000D02*
D03*
X184000D02*
D03*
X194000D02*
D03*
X204000D02*
D03*
X214000D02*
D03*
X224000D02*
D03*
X234000D02*
D03*
X244000D02*
D03*
X254000D02*
D03*
X264000D02*
D03*
X274000D02*
D03*
X164000Y105115D02*
D03*
X174000D02*
D03*
X184000D02*
D03*
X194000D02*
D03*
X204000D02*
D03*
X214000D02*
D03*
X224000D02*
D03*
X234000D02*
D03*
X244000D02*
D03*
X254000D02*
D03*
X264000D02*
D03*
X274000D02*
D03*
X44000Y18500D02*
D03*
X54000D02*
D03*
X64000D02*
D03*
X74000D02*
D03*
X84000D02*
D03*
X94000D02*
D03*
X104000D02*
D03*
X114000D02*
D03*
X124000D02*
D03*
X134000D02*
D03*
X144000D02*
D03*
X154000D02*
D03*
Y105115D02*
D03*
X144000D02*
D03*
X134000D02*
D03*
X124000D02*
D03*
X114000D02*
D03*
X104000D02*
D03*
X94000D02*
D03*
X84000D02*
D03*
X74000D02*
D03*
X64000D02*
D03*
X54000D02*
D03*
X44000D02*
D03*
X69000Y34500D02*
D03*
X59000D02*
D03*
X79000D02*
D03*
X89000D02*
D03*
D51*
X172000Y139500D02*
D03*
Y149500D02*
D03*
D52*
X126028Y274461D02*
D03*
X96500D02*
D03*
D53*
X324500Y161261D02*
D03*
X310720D02*
D03*
D54*
X327500Y263000D02*
D03*
X313581Y249081D02*
D03*
X358500Y233261D02*
D03*
X344581Y219341D02*
D03*
X26815Y195000D02*
D03*
X66185D02*
D03*
D55*
X62500Y293500D02*
D03*
X47736D02*
D03*
X92027D02*
D03*
X77264D02*
D03*
D56*
X69528Y153000D02*
D03*
X40000D02*
D03*
D57*
X217500Y283000D02*
D03*
X187972D02*
D03*
X26252Y231878D02*
D03*
X57748D02*
D03*
Y259043D02*
D03*
X26252D02*
D03*
X274000Y289261D02*
D03*
D58*
X291681Y200046D02*
D03*
Y185282D02*
D03*
X189319Y259101D02*
D03*
Y229573D02*
D03*
Y170519D02*
D03*
X291681Y244337D02*
D03*
Y229574D02*
D03*
X189319Y200046D02*
D03*
X291681Y259101D02*
D03*
Y170420D02*
D03*
D59*
X299157Y285000D02*
D03*
X309000D02*
D03*
X318842D02*
D03*
D60*
X168000Y212500D02*
D03*
X167980Y201480D02*
D03*
X168060Y225150D02*
D03*
D61*
X349000Y198221D02*
D03*
Y168300D02*
D03*
D62*
X168000Y301996D02*
D03*
Y239004D02*
D03*
D63*
X337500Y144761D02*
D03*
X354700D02*
D03*
X321800Y18800D02*
D03*
X339000D02*
D03*
D64*
X234500Y289261D02*
D03*
D65*
X372047Y297244D02*
D03*
X17717D02*
D03*
Y17717D02*
D03*
X372047D02*
D03*
D66*
X361447Y297244D02*
D03*
X366747Y288064D02*
D03*
X377347D02*
D03*
X382647Y297244D02*
D03*
X377347Y306424D02*
D03*
X366747D02*
D03*
X7117Y297244D02*
D03*
X12417Y288064D02*
D03*
X23017D02*
D03*
X28317Y297244D02*
D03*
X23017Y306424D02*
D03*
X12417D02*
D03*
X7117Y17717D02*
D03*
X12417Y8537D02*
D03*
X23017D02*
D03*
X28317Y17717D02*
D03*
X23017Y26896D02*
D03*
X12417D02*
D03*
X361447Y17717D02*
D03*
X366747Y8537D02*
D03*
X377347D02*
D03*
X382647Y17717D02*
D03*
X377347Y26896D02*
D03*
X366747D02*
D03*
D67*
X164500Y73000D02*
D03*
Y63000D02*
D03*
X154500Y73000D02*
D03*
Y63000D02*
D03*
X144500Y73000D02*
D03*
Y63000D02*
D03*
X134500Y73000D02*
D03*
D68*
Y63000D02*
D03*
D69*
X217000Y57500D02*
D03*
X283929D02*
D03*
X323299D02*
D03*
X236685D02*
D03*
D70*
X16500Y155500D02*
D03*
Y170500D02*
D03*
D71*
X116732Y138561D02*
D03*
D72*
X378839Y163061D02*
D03*
D73*
X336000Y115000D02*
D03*
X356000Y97500D02*
D03*
X311500Y147000D02*
D03*
X286500Y105000D02*
D03*
X206000Y57000D02*
D03*
M02*
