G04*
G04 #@! TF.GenerationSoftware,Altium Limited,Altium Designer,22.3.1 (43)*
G04*
G04 Layer_Color=128*
%FSLAX25Y25*%
%MOIN*%
G70*
G04*
G04 #@! TF.SameCoordinates,C0646150-8C3F-47E1-8FD3-6E96B4F631F1*
G04*
G04*
G04 #@! TF.FilePolarity,Positive*
G04*
G01*
G75*
%ADD150C,0.00200*%
D150*
X38346Y173500D02*
X42283D01*
X40315Y171531D02*
Y175469D01*
X58031Y173500D02*
X61968D01*
X60000Y171531D02*
Y175469D01*
X162200Y18500D02*
X165800D01*
X164000Y16700D02*
Y20300D01*
X172200Y18500D02*
X175800D01*
X174000Y16700D02*
Y20300D01*
X182200Y18500D02*
X185800D01*
X184000Y16700D02*
Y20300D01*
X192200Y18500D02*
X195800D01*
X194000Y16700D02*
Y20300D01*
X202200Y18500D02*
X205800D01*
X204000Y16700D02*
Y20300D01*
X212200Y18500D02*
X215800D01*
X214000Y16700D02*
Y20300D01*
X222200Y18500D02*
X225800D01*
X224000Y16700D02*
Y20300D01*
X232200Y18500D02*
X235800D01*
X234000Y16700D02*
Y20300D01*
X242200Y18500D02*
X245800D01*
X244000Y16700D02*
Y20300D01*
X252200Y18500D02*
X255800D01*
X254000Y16700D02*
Y20300D01*
X262200Y18500D02*
X265800D01*
X264000Y16700D02*
Y20300D01*
X272200Y18500D02*
X275800D01*
X274000Y16700D02*
Y20300D01*
X162200Y105116D02*
X165800D01*
X164000Y103316D02*
Y106916D01*
X172200Y105116D02*
X175800D01*
X174000Y103316D02*
Y106916D01*
X182200Y105116D02*
X185800D01*
X184000Y103316D02*
Y106916D01*
X192200Y105116D02*
X195800D01*
X194000Y103316D02*
Y106916D01*
X202200Y105116D02*
X205800D01*
X204000Y103316D02*
Y106916D01*
X212200Y105116D02*
X215800D01*
X214000Y103316D02*
Y106916D01*
X222200Y105116D02*
X225800D01*
X224000Y103316D02*
Y106916D01*
X232200Y105116D02*
X235800D01*
X234000Y103316D02*
Y106916D01*
X242200Y105116D02*
X245800D01*
X244000Y103316D02*
Y106916D01*
X252200Y105116D02*
X255800D01*
X254000Y103316D02*
Y106916D01*
X262200Y105116D02*
X265800D01*
X264000Y103316D02*
Y106916D01*
X272200Y105116D02*
X275800D01*
X274000Y103316D02*
Y106916D01*
X42200Y18500D02*
X45800D01*
X44000Y16700D02*
Y20300D01*
X52200Y18500D02*
X55800D01*
X54000Y16700D02*
Y20300D01*
X62200Y18500D02*
X65800D01*
X64000Y16700D02*
Y20300D01*
X72200Y18500D02*
X75800D01*
X74000Y16700D02*
Y20300D01*
X82200Y18500D02*
X85800D01*
X84000Y16700D02*
Y20300D01*
X92200Y18500D02*
X95800D01*
X94000Y16700D02*
Y20300D01*
X102200Y18500D02*
X105800D01*
X104000Y16700D02*
Y20300D01*
X112200Y18500D02*
X115800D01*
X114000Y16700D02*
Y20300D01*
X122200Y18500D02*
X125800D01*
X124000Y16700D02*
Y20300D01*
X132200Y18500D02*
X135800D01*
X134000Y16700D02*
Y20300D01*
X142200Y18500D02*
X145800D01*
X144000Y16700D02*
Y20300D01*
X152200Y18500D02*
X155800D01*
X154000Y16700D02*
Y20300D01*
X152200Y105116D02*
X155800D01*
X154000Y103316D02*
Y106916D01*
X142200Y105116D02*
X145800D01*
X144000Y103316D02*
Y106916D01*
X132200Y105116D02*
X135800D01*
X134000Y103316D02*
Y106916D01*
X122200Y105116D02*
X125800D01*
X124000Y103316D02*
Y106916D01*
X112200Y105116D02*
X115800D01*
X114000Y103316D02*
Y106916D01*
X102200Y105116D02*
X105800D01*
X104000Y103316D02*
Y106916D01*
X92200Y105116D02*
X95800D01*
X94000Y103316D02*
Y106916D01*
X82200Y105116D02*
X85800D01*
X84000Y103316D02*
Y106916D01*
X72200Y105116D02*
X75800D01*
X74000Y103316D02*
Y106916D01*
X62200Y105116D02*
X65800D01*
X64000Y103316D02*
Y106916D01*
X52200Y105116D02*
X55800D01*
X54000Y103316D02*
Y106916D01*
X42200Y105116D02*
X45800D01*
X44000Y103316D02*
Y106916D01*
X170228Y139500D02*
X173772D01*
X172000Y137728D02*
Y141272D01*
X170228Y149500D02*
X173772D01*
X172000Y147728D02*
Y151272D01*
X123862Y274461D02*
X128193D01*
X126028Y272295D02*
Y276626D01*
X94335Y274461D02*
X98665D01*
X96500Y272295D02*
Y276626D01*
X322728Y161261D02*
X326272D01*
X324500Y159489D02*
Y163032D01*
X308949Y161261D02*
X312492D01*
X310720Y159489D02*
Y163032D01*
X325532Y263000D02*
X329468D01*
X327500Y261032D02*
Y264968D01*
X311612Y249081D02*
X315549D01*
X313581Y247112D02*
Y251049D01*
X356532Y233261D02*
X360469D01*
X358500Y231292D02*
Y235229D01*
X342612Y219341D02*
X346549D01*
X344581Y217373D02*
Y221310D01*
X60335Y293500D02*
X64665D01*
X62500Y291335D02*
Y295665D01*
X45571Y293500D02*
X49902D01*
X47736Y291335D02*
Y295665D01*
X89862Y293500D02*
X94193D01*
X92027Y291335D02*
Y295665D01*
X75098Y293500D02*
X79429D01*
X77264Y291335D02*
Y295665D01*
X67362Y153000D02*
X71693D01*
X69528Y150835D02*
Y155165D01*
X37835Y153000D02*
X42165D01*
X40000Y150835D02*
Y155165D01*
X215728Y283000D02*
X219272D01*
X217500Y281228D02*
Y284772D01*
X186201Y283000D02*
X189744D01*
X187972Y281228D02*
Y284772D01*
X288925Y200046D02*
X294437D01*
X291681Y197290D02*
Y202802D01*
X288925Y185282D02*
X294437D01*
X291681Y182527D02*
Y188038D01*
X186563Y259101D02*
X192075D01*
X189319Y256345D02*
Y261857D01*
X186563Y229573D02*
X192075D01*
X189319Y226817D02*
Y232329D01*
X186563Y170519D02*
X192075D01*
X189319Y167763D02*
Y173275D01*
X288925Y244337D02*
X294437D01*
X291681Y241582D02*
Y247093D01*
X288925Y229574D02*
X294437D01*
X291681Y226818D02*
Y232330D01*
X186563Y200046D02*
X192075D01*
X189319Y197290D02*
Y202802D01*
X186563Y244239D02*
X192075D01*
X189319Y241483D02*
Y246995D01*
X288925Y259101D02*
X294437D01*
X291681Y256345D02*
Y261857D01*
X186563Y185184D02*
X192075D01*
X189319Y182428D02*
Y187940D01*
X288925Y170420D02*
X294437D01*
X291681Y167664D02*
Y173176D01*
X24284Y231878D02*
X28220D01*
X26252Y229909D02*
Y233846D01*
X55779Y231878D02*
X59716D01*
X57748Y229909D02*
Y233846D01*
X55779Y259043D02*
X59716D01*
X57748Y257075D02*
Y261012D01*
X24284Y259043D02*
X28220D01*
X26252Y257075D02*
Y261012D01*
X297189Y285000D02*
X301126D01*
X299157Y283032D02*
Y286968D01*
X307031Y285000D02*
X310968D01*
X309000Y283032D02*
Y286968D01*
X316874Y285000D02*
X320811D01*
X318842Y283032D02*
Y286968D01*
X165638Y212500D02*
X170362D01*
X168000Y210138D02*
Y214862D01*
X165618Y201480D02*
X170342D01*
X167980Y199118D02*
Y203842D01*
X165698Y225150D02*
X170422D01*
X168060Y222788D02*
Y227512D01*
X345850Y198221D02*
X352150D01*
X349000Y195072D02*
Y201371D01*
X345850Y168300D02*
X352150D01*
X349000Y165150D02*
Y171450D01*
X24847Y195000D02*
X28784D01*
X26815Y193032D02*
Y196968D01*
X64217Y195000D02*
X68154D01*
X66185Y193032D02*
Y196968D01*
X166425Y301996D02*
X169575D01*
X168000Y300421D02*
Y303571D01*
X166425Y239004D02*
X169575D01*
X168000Y237429D02*
Y240579D01*
X334547Y144761D02*
X340453D01*
X337500Y141808D02*
Y147713D01*
X351747Y144761D02*
X357653D01*
X354700Y141808D02*
Y147713D01*
X318847Y18800D02*
X324753D01*
X321800Y15847D02*
Y21753D01*
X336047Y18800D02*
X341953D01*
X339000Y15847D02*
Y21753D01*
X272327Y289261D02*
X275673D01*
X274000Y287587D02*
Y290934D01*
X232827Y289261D02*
X236173D01*
X234500Y287587D02*
Y290934D01*
X365797Y297244D02*
X378297D01*
X372047Y290994D02*
Y303494D01*
X359447Y297244D02*
X363447D01*
X361447Y295244D02*
Y299244D01*
X364747Y288064D02*
X368747D01*
X366747Y286064D02*
Y290064D01*
X375347Y288064D02*
X379347D01*
X377347Y286064D02*
Y290064D01*
X380647Y297244D02*
X384647D01*
X382647Y295244D02*
Y299244D01*
X375347Y306424D02*
X379347D01*
X377347Y304424D02*
Y308424D01*
X364747Y306424D02*
X368747D01*
X366747Y304424D02*
Y308424D01*
X11467Y297244D02*
X23967D01*
X17717Y290994D02*
Y303494D01*
X5117Y297244D02*
X9117D01*
X7117Y295244D02*
Y299244D01*
X10417Y288064D02*
X14417D01*
X12417Y286064D02*
Y290064D01*
X21017Y288064D02*
X25017D01*
X23017Y286064D02*
Y290064D01*
X26317Y297244D02*
X30317D01*
X28317Y295244D02*
Y299244D01*
X21017Y306424D02*
X25017D01*
X23017Y304424D02*
Y308424D01*
X10417Y306424D02*
X14417D01*
X12417Y304424D02*
Y308424D01*
X11467Y17717D02*
X23967D01*
X17717Y11467D02*
Y23967D01*
X5117Y17717D02*
X9117D01*
X7117Y15717D02*
Y19717D01*
X10417Y8537D02*
X14417D01*
X12417Y6537D02*
Y10537D01*
X21017Y8537D02*
X25017D01*
X23017Y6537D02*
Y10537D01*
X26317Y17717D02*
X30317D01*
X28317Y15717D02*
Y19717D01*
X21017Y26896D02*
X25017D01*
X23017Y24896D02*
Y28896D01*
X10417Y26896D02*
X14417D01*
X12417Y24896D02*
Y28896D01*
X365797Y17717D02*
X378297D01*
X372047Y11467D02*
Y23967D01*
X359447Y17717D02*
X363447D01*
X361447Y15717D02*
Y19717D01*
X364747Y8537D02*
X368747D01*
X366747Y6537D02*
Y10537D01*
X375347Y8537D02*
X379347D01*
X377347Y6537D02*
Y10537D01*
X380647Y17717D02*
X384647D01*
X382647Y15717D02*
Y19717D01*
X375347Y26896D02*
X379347D01*
X377347Y24896D02*
Y28896D01*
X364747Y26896D02*
X368747D01*
X366747Y24896D02*
Y28896D01*
X162335Y73000D02*
X166665D01*
X164500Y70835D02*
Y75165D01*
X162335Y63000D02*
X166665D01*
X164500Y60835D02*
Y65165D01*
X152335Y73000D02*
X156665D01*
X154500Y70835D02*
Y75165D01*
X152335Y63000D02*
X156665D01*
X154500Y60835D02*
Y65165D01*
X142335Y73000D02*
X146665D01*
X144500Y70835D02*
Y75165D01*
X142335Y63000D02*
X146665D01*
X144500Y60835D02*
Y65165D01*
X132335Y73000D02*
X136665D01*
X134500Y70835D02*
Y75165D01*
X132335Y63000D02*
X136665D01*
X134500Y60835D02*
Y65165D01*
X67200Y34500D02*
X70800D01*
X69000Y32700D02*
Y36300D01*
X214638Y57500D02*
X219362D01*
X217000Y55138D02*
Y59862D01*
X57200Y34500D02*
X60800D01*
X59000Y32700D02*
Y36300D01*
X281567Y57500D02*
X286291D01*
X283929Y55138D02*
Y59862D01*
X320937Y57500D02*
X325661D01*
X323299Y55138D02*
Y59862D01*
X77200Y34500D02*
X80800D01*
X79000Y32700D02*
Y36300D01*
X87200Y34500D02*
X90800D01*
X89000Y32700D02*
Y36300D01*
X234323Y57500D02*
X239047D01*
X236685Y55138D02*
Y59862D01*
X14532Y155500D02*
X18469D01*
X16500Y153532D02*
Y157468D01*
X14532Y170500D02*
X18469D01*
X16500Y168532D02*
Y172468D01*
X114173Y138561D02*
X119291D01*
X116732Y136002D02*
Y141120D01*
X376280Y163061D02*
X381398D01*
X378839Y160502D02*
Y165620D01*
X334600Y115000D02*
X337400D01*
X336000Y113600D02*
Y116400D01*
X354600Y97500D02*
X357400D01*
X356000Y96100D02*
Y98900D01*
X310100Y147000D02*
X312900D01*
X311500Y145600D02*
Y148400D01*
X285100Y105000D02*
X287900D01*
X286500Y103600D02*
Y106400D01*
X204600Y57000D02*
X207400D01*
X206000Y55600D02*
Y58400D01*
M02*
