G04*
G04 #@! TF.GenerationSoftware,Altium Limited,Altium Designer,22.3.1 (43)*
G04*
G04 Layer_Color=255*
%FSLAX25Y25*%
%MOIN*%
G70*
G04*
G04 #@! TF.SameCoordinates,C0646150-8C3F-47E1-8FD3-6E96B4F631F1*
G04*
G04*
G04 #@! TF.FilePolarity,Positive*
G04*
G01*
G75*
%ADD49C,0.09449*%
%ADD50C,0.06000*%
%ADD51O,0.08661X0.07087*%
%ADD52C,0.12205*%
%ADD53O,0.07087X0.08661*%
%ADD54C,0.08661*%
%ADD55C,0.08661*%
%ADD56C,0.10630*%
%ADD57C,0.07874*%
%ADD58C,0.09843*%
%ADD59O,0.07087X0.10236*%
%ADD60O,0.11811X0.06299*%
%ADD61O,0.14173X0.10236*%
%ADD62C,0.06299*%
%ADD63O,0.10236X0.11811*%
%ADD64C,0.08268*%
%ADD65C,0.30000*%
%ADD66C,0.04000*%
%ADD67C,0.06300*%
%ADD68R,0.06300X0.06300*%
%ADD69C,0.07874*%
%ADD70O,0.11811X0.08661*%
G04:AMPARAMS|DCode=71|XSize=157.48mil|YSize=98.43mil|CornerRadius=24.61mil|HoleSize=0mil|Usage=FLASHONLY|Rotation=180.000|XOffset=0mil|YOffset=0mil|HoleType=Round|Shape=RoundedRectangle|*
%AMROUNDEDRECTD71*
21,1,0.15748,0.04921,0,0,180.0*
21,1,0.10827,0.09843,0,0,180.0*
1,1,0.04921,-0.05413,0.02461*
1,1,0.04921,0.05413,0.02461*
1,1,0.04921,0.05413,-0.02461*
1,1,0.04921,-0.05413,-0.02461*
%
%ADD71ROUNDEDRECTD71*%
G04:AMPARAMS|DCode=72|XSize=157.48mil|YSize=98.43mil|CornerRadius=24.61mil|HoleSize=0mil|Usage=FLASHONLY|Rotation=90.000|XOffset=0mil|YOffset=0mil|HoleType=Round|Shape=RoundedRectangle|*
%AMROUNDEDRECTD72*
21,1,0.15748,0.04921,0,0,90.0*
21,1,0.10827,0.09843,0,0,90.0*
1,1,0.04921,0.02461,0.05413*
1,1,0.04921,0.02461,-0.05413*
1,1,0.04921,-0.02461,-0.05413*
1,1,0.04921,-0.02461,0.05413*
%
%ADD72ROUNDEDRECTD72*%
D49*
X40315Y173500D02*
D03*
X60000D02*
D03*
D50*
X164000Y18500D02*
D03*
X174000D02*
D03*
X184000D02*
D03*
X194000D02*
D03*
X204000D02*
D03*
X214000D02*
D03*
X224000D02*
D03*
X234000D02*
D03*
X244000D02*
D03*
X254000D02*
D03*
X264000D02*
D03*
X274000D02*
D03*
X164000Y105115D02*
D03*
X174000D02*
D03*
X184000D02*
D03*
X194000D02*
D03*
X204000D02*
D03*
X214000D02*
D03*
X224000D02*
D03*
X234000D02*
D03*
X244000D02*
D03*
X254000D02*
D03*
X264000D02*
D03*
X274000D02*
D03*
X44000Y18500D02*
D03*
X54000D02*
D03*
X64000D02*
D03*
X74000D02*
D03*
X84000D02*
D03*
X94000D02*
D03*
X104000D02*
D03*
X114000D02*
D03*
X124000D02*
D03*
X134000D02*
D03*
X144000D02*
D03*
X154000D02*
D03*
Y105115D02*
D03*
X144000D02*
D03*
X134000D02*
D03*
X124000D02*
D03*
X114000D02*
D03*
X104000D02*
D03*
X94000D02*
D03*
X84000D02*
D03*
X74000D02*
D03*
X64000D02*
D03*
X54000D02*
D03*
X44000D02*
D03*
X69000Y34500D02*
D03*
X59000D02*
D03*
X79000D02*
D03*
X89000D02*
D03*
D51*
X172000Y139500D02*
D03*
Y149500D02*
D03*
D52*
X126028Y274461D02*
D03*
X96500D02*
D03*
D53*
X324500Y161261D02*
D03*
X310720D02*
D03*
D54*
X327500Y263000D02*
D03*
X313581Y249081D02*
D03*
X358500Y233261D02*
D03*
X344581Y219341D02*
D03*
X26815Y195000D02*
D03*
X66185D02*
D03*
D55*
X62500Y293500D02*
D03*
X47736D02*
D03*
X92027D02*
D03*
X77264D02*
D03*
D56*
X69528Y153000D02*
D03*
X40000D02*
D03*
D57*
X217500Y283000D02*
D03*
X187972D02*
D03*
X26252Y231878D02*
D03*
X57748D02*
D03*
Y259043D02*
D03*
X26252D02*
D03*
X274000Y289261D02*
D03*
D58*
X291681Y200046D02*
D03*
Y185282D02*
D03*
X189319Y259101D02*
D03*
Y229573D02*
D03*
Y170519D02*
D03*
X291681Y244337D02*
D03*
Y229574D02*
D03*
X189319Y200046D02*
D03*
X291681Y259101D02*
D03*
Y170420D02*
D03*
D59*
X299157Y285000D02*
D03*
X309000D02*
D03*
X318842D02*
D03*
D60*
X168000Y212500D02*
D03*
X167980Y201480D02*
D03*
X168060Y225150D02*
D03*
D61*
X349000Y198221D02*
D03*
Y168300D02*
D03*
D62*
X168000Y301996D02*
D03*
Y239004D02*
D03*
D63*
X337500Y144761D02*
D03*
X354700D02*
D03*
X321800Y18800D02*
D03*
X339000D02*
D03*
D64*
X234500Y289261D02*
D03*
D65*
X372047Y297244D02*
D03*
X17717D02*
D03*
Y17717D02*
D03*
X372047D02*
D03*
D66*
X361447Y297244D02*
D03*
X366747Y288064D02*
D03*
X377347D02*
D03*
X382647Y297244D02*
D03*
X377347Y306424D02*
D03*
X366747D02*
D03*
X7117Y297244D02*
D03*
X12417Y288064D02*
D03*
X23017D02*
D03*
X28317Y297244D02*
D03*
X23017Y306424D02*
D03*
X12417D02*
D03*
X7117Y17717D02*
D03*
X12417Y8537D02*
D03*
X23017D02*
D03*
X28317Y17717D02*
D03*
X23017Y26896D02*
D03*
X12417D02*
D03*
X361447Y17717D02*
D03*
X366747Y8537D02*
D03*
X377347D02*
D03*
X382647Y17717D02*
D03*
X377347Y26896D02*
D03*
X366747D02*
D03*
D67*
X164500Y73000D02*
D03*
Y63000D02*
D03*
X154500Y73000D02*
D03*
Y63000D02*
D03*
X144500Y73000D02*
D03*
Y63000D02*
D03*
X134500Y73000D02*
D03*
D68*
Y63000D02*
D03*
D69*
X217000Y57500D02*
D03*
X283929D02*
D03*
X323299D02*
D03*
X236685D02*
D03*
D70*
X16500Y155500D02*
D03*
Y170500D02*
D03*
D71*
X116732Y138561D02*
D03*
D72*
X378839Y163061D02*
D03*
M02*
