M48
;Layer_Color=9474304
;FILE_FORMAT=2:5
INCH,LZ
;TYPE=PLATED
T1F00S00C0.02800
T2F00S00C0.03150
T3F00S00C0.03346
T4F00S00C0.03543
T5F00S00C0.03600
T6F00S00C0.03937
T7F00S00C0.04000
T8F00S00C0.04330
T9F00S00C0.04331
T10F00S00C0.04724
T12F00S00C0.05512
T13F00S00C0.05906
T14F00S00C0.06299
T15F00S00C0.12500
%
T01
X0206Y0057
X02865Y0105
X03115Y0147
X0336Y0115
X0356Y00975
T02
X0168Y0239004
Y0301996
T03
X02345Y0289261
X0274
T04
X0172Y01395
Y01495
X0187972Y0283
X02175
X031072Y0161261
X03245
T05
X0044Y00185
X0054
X0064
X0074
X0084
X0094
X0104
X0114
X0124
X0134
X0144
X0154
X0164
Y0105116
X0154
X0144
X0134
X0124
X0114
X0104
X0094
X0084
X0074
X0064
X0054
X0044
X0059Y00345
X0069
X0079
X0089
X0174Y00185
X0184
X0194
X0204
X0214
X0224
X0234
X0244
X0254
X0264
X0274
Y0105116
X0264
X0254
X0244
X0234
X0224
X0214
X0204
X0194
X0184
X0174
T06
X0344581Y0219341
X03585Y0233261
X03275Y0263
X0313581Y0249081
X0309Y0285
X0299157
X0318842
X0057748Y0259043
Y0231878
X0026252
Y0259043
X0026815Y0195
X00165Y01705
Y01555
X0040315Y01735
X006
X0066185Y0195
T07
X0012417Y0008537
X0007117Y0017717
X0012417Y0026896
X0023017
X0028317Y0017717
X0023017Y0008537
X0366747
X0377347
X0382647Y0017717
X0377347Y0026896
X0366747
X0361447Y0017717
X0366747Y0288064
X0377347
X0382647Y0297244
X0361447
X0028317
X0023017Y0288064
X0012417
X0007117Y0297244
X0012417Y0306424
X0023017
X0366747
X0377347
T08
X01345Y0063
X01445
X01545
X01645
Y0073
X01545
X01445
X01345
T09
X004Y0153
X0069528
X00625Y02935
X0077264
X0092027
X00965Y0274461
X0126028
X0047736Y02935
T10
X0217Y00575
X0236685
X0283929
X0323299
X016798Y020148
X0168Y02125
X016806Y022515
T12
X0189319Y0170519
Y0185184
Y0200046
Y0229573
Y0244239
Y0259101
X0291681
Y0244337
Y0229574
Y0200046
Y0185282
Y017042
T13
X03218Y00188
X0339
X03375Y0144761
X03547
T14
X0349Y01683
Y0198221
T15
X0017717Y0017717
X0372047
Y0297244
X0017717
M30
