G04*
G04 #@! TF.GenerationSoftware,Altium Limited,Altium Designer,22.3.1 (43)*
G04*
G04 Layer_Color=16711935*
%FSLAX25Y25*%
%MOIN*%
G70*
G04*
G04 #@! TF.SameCoordinates,C0646150-8C3F-47E1-8FD3-6E96B4F631F1*
G04*
G04*
G04 #@! TF.FilePolarity,Positive*
G04*
G01*
G75*
%ADD11C,0.00787*%
%ADD13C,0.03937*%
D11*
X246358Y191261D02*
X246235Y192240D01*
X245871Y193157D01*
X245291Y193956D01*
X244531Y194585D01*
X243638Y195005D01*
X242669Y195190D01*
X241684Y195128D01*
X240745Y194823D01*
X239912Y194294D01*
X239236Y193575D01*
X238761Y192710D01*
X238515Y191754D01*
Y190767D01*
X238761Y189811D01*
X239236Y188946D01*
X239912Y188227D01*
X240745Y187698D01*
X241684Y187393D01*
X242669Y187331D01*
X243638Y187516D01*
X244531Y187936D01*
X245291Y188566D01*
X245871Y189364D01*
X246235Y190281D01*
X246358Y191261D01*
Y179011D02*
X246235Y179990D01*
X245871Y180907D01*
X245291Y181706D01*
X244531Y182335D01*
X243638Y182755D01*
X242669Y182940D01*
X241684Y182878D01*
X240745Y182573D01*
X239912Y182044D01*
X239236Y181325D01*
X238761Y180460D01*
X238515Y179504D01*
Y178517D01*
X238761Y177561D01*
X239236Y176697D01*
X239912Y175977D01*
X240745Y175448D01*
X241684Y175143D01*
X242669Y175081D01*
X243638Y175266D01*
X244531Y175687D01*
X245291Y176316D01*
X245871Y177114D01*
X246235Y178032D01*
X246358Y179011D01*
Y166761D02*
X246235Y167740D01*
X245871Y168657D01*
X245291Y169456D01*
X244531Y170085D01*
X243638Y170505D01*
X242669Y170690D01*
X241684Y170628D01*
X240745Y170323D01*
X239912Y169794D01*
X239236Y169075D01*
X238761Y168210D01*
X238515Y167254D01*
Y166267D01*
X238761Y165311D01*
X239236Y164446D01*
X239912Y163727D01*
X240745Y163198D01*
X241684Y162893D01*
X242669Y162831D01*
X243638Y163016D01*
X244531Y163436D01*
X245291Y164066D01*
X245871Y164864D01*
X246235Y165781D01*
X246358Y166761D01*
Y203511D02*
X246235Y204490D01*
X245871Y205407D01*
X245291Y206206D01*
X244531Y206835D01*
X243638Y207255D01*
X242669Y207440D01*
X241684Y207378D01*
X240745Y207073D01*
X239912Y206544D01*
X239236Y205825D01*
X238761Y204960D01*
X238515Y204004D01*
Y203017D01*
X238761Y202061D01*
X239236Y201197D01*
X239912Y200477D01*
X240745Y199948D01*
X241684Y199643D01*
X242669Y199581D01*
X243638Y199766D01*
X244531Y200186D01*
X245291Y200816D01*
X245871Y201614D01*
X246235Y202532D01*
X246358Y203511D01*
X260925Y263761D02*
X260802Y264740D01*
X260438Y265657D01*
X259858Y266456D01*
X259098Y267085D01*
X258205Y267505D01*
X257235Y267690D01*
X256251Y267628D01*
X255312Y267323D01*
X254479Y266794D01*
X253803Y266075D01*
X253328Y265210D01*
X253082Y264254D01*
Y263267D01*
X253328Y262311D01*
X253803Y261446D01*
X254479Y260727D01*
X255312Y260198D01*
X256251Y259893D01*
X257235Y259831D01*
X258205Y260016D01*
X259098Y260437D01*
X259858Y261066D01*
X260438Y261864D01*
X260802Y262782D01*
X260925Y263761D01*
X260433Y250261D02*
X260309Y251240D01*
X259946Y252157D01*
X259366Y252956D01*
X258606Y253585D01*
X257713Y254005D01*
X256743Y254190D01*
X255758Y254128D01*
X254820Y253823D01*
X253987Y253294D01*
X253311Y252575D01*
X252835Y251710D01*
X252590Y250754D01*
Y249767D01*
X252835Y248811D01*
X253311Y247947D01*
X253987Y247227D01*
X254820Y246698D01*
X255758Y246393D01*
X256743Y246331D01*
X257713Y246516D01*
X258606Y246936D01*
X259366Y247566D01*
X259946Y248364D01*
X260309Y249282D01*
X260433Y250261D01*
X254528Y239261D02*
X254404Y240240D01*
X254041Y241157D01*
X253461Y241956D01*
X252700Y242585D01*
X251807Y243005D01*
X250838Y243190D01*
X249853Y243128D01*
X248914Y242823D01*
X248081Y242294D01*
X247406Y241575D01*
X246930Y240710D01*
X246685Y239754D01*
Y238767D01*
X246930Y237811D01*
X247406Y236947D01*
X248081Y236227D01*
X248914Y235698D01*
X249853Y235393D01*
X250838Y235331D01*
X251807Y235516D01*
X252700Y235936D01*
X253461Y236566D01*
X254041Y237364D01*
X254404Y238281D01*
X254528Y239261D01*
X246358Y229261D02*
X246235Y230240D01*
X245871Y231157D01*
X245291Y231956D01*
X244531Y232585D01*
X243638Y233005D01*
X242669Y233190D01*
X241684Y233128D01*
X240745Y232823D01*
X239912Y232294D01*
X239236Y231575D01*
X238761Y230710D01*
X238515Y229754D01*
Y228767D01*
X238761Y227811D01*
X239236Y226946D01*
X239912Y226227D01*
X240745Y225698D01*
X241684Y225393D01*
X242669Y225331D01*
X243638Y225516D01*
X244531Y225937D01*
X245291Y226566D01*
X245871Y227364D01*
X246235Y228281D01*
X246358Y229261D01*
Y215761D02*
X246235Y216740D01*
X245871Y217657D01*
X245291Y218456D01*
X244531Y219085D01*
X243638Y219505D01*
X242669Y219690D01*
X241684Y219628D01*
X240745Y219323D01*
X239912Y218794D01*
X239236Y218075D01*
X238761Y217210D01*
X238515Y216254D01*
Y215267D01*
X238761Y214311D01*
X239236Y213446D01*
X239912Y212727D01*
X240745Y212198D01*
X241684Y211893D01*
X242669Y211831D01*
X243638Y212016D01*
X244531Y212437D01*
X245291Y213066D01*
X245871Y213864D01*
X246235Y214781D01*
X246358Y215761D01*
D13*
X50207Y163217D02*
Y182803D01*
M02*
