G04*
G04 #@! TF.GenerationSoftware,Altium Limited,Altium Designer,22.3.1 (43)*
G04*
G04 Layer_Color=8388736*
%FSLAX25Y25*%
%MOIN*%
G70*
G04*
G04 #@! TF.SameCoordinates,C0646150-8C3F-47E1-8FD3-6E96B4F631F1*
G04*
G04*
G04 #@! TF.FilePolarity,Negative*
G04*
G01*
G75*
%ADD23C,0.00800*%
%ADD24C,0.10249*%
%ADD25C,0.06800*%
%ADD26O,0.09461X0.07887*%
%ADD27C,0.13005*%
%ADD28O,0.07887X0.09461*%
%ADD29C,0.09461*%
%ADD30C,0.09461*%
%ADD31C,0.11430*%
%ADD32C,0.08674*%
%ADD33C,0.10642*%
%ADD34O,0.07887X0.11036*%
%ADD35O,0.12611X0.07099*%
%ADD36O,0.14973X0.11036*%
%ADD37C,0.07099*%
%ADD38O,0.10636X0.12211*%
%ADD39C,0.09068*%
%ADD40C,0.30800*%
%ADD41C,0.04800*%
%ADD42C,0.06700*%
%ADD43R,0.06700X0.06700*%
%ADD44C,0.08674*%
%ADD45O,0.12611X0.09461*%
G04:AMPARAMS|DCode=46|XSize=165.48mil|YSize=106.42mil|CornerRadius=28.61mil|HoleSize=0mil|Usage=FLASHONLY|Rotation=180.000|XOffset=0mil|YOffset=0mil|HoleType=Round|Shape=RoundedRectangle|*
%AMROUNDEDRECTD46*
21,1,0.16548,0.04921,0,0,180.0*
21,1,0.10827,0.10642,0,0,180.0*
1,1,0.05721,-0.05413,0.02461*
1,1,0.05721,0.05413,0.02461*
1,1,0.05721,0.05413,-0.02461*
1,1,0.05721,-0.05413,-0.02461*
%
%ADD46ROUNDEDRECTD46*%
G04:AMPARAMS|DCode=47|XSize=165.48mil|YSize=106.42mil|CornerRadius=28.61mil|HoleSize=0mil|Usage=FLASHONLY|Rotation=90.000|XOffset=0mil|YOffset=0mil|HoleType=Round|Shape=RoundedRectangle|*
%AMROUNDEDRECTD47*
21,1,0.16548,0.04921,0,0,90.0*
21,1,0.10827,0.10642,0,0,90.0*
1,1,0.05721,0.02461,0.05413*
1,1,0.05721,0.02461,-0.05413*
1,1,0.05721,-0.02461,-0.05413*
1,1,0.05721,-0.02461,0.05413*
%
%ADD47ROUNDEDRECTD47*%
%ADD48C,0.05800*%
D23*
X38150Y171236D02*
D03*
X189319Y244239D02*
D03*
Y185184D02*
D03*
D24*
X40315Y173500D02*
D03*
X60000D02*
D03*
D25*
X164000Y18500D02*
D03*
X174000D02*
D03*
X184000D02*
D03*
X194000D02*
D03*
X204000D02*
D03*
X214000D02*
D03*
X224000D02*
D03*
X234000D02*
D03*
X244000D02*
D03*
X254000D02*
D03*
X264000D02*
D03*
X274000D02*
D03*
X164000Y105115D02*
D03*
X174000D02*
D03*
X184000D02*
D03*
X194000D02*
D03*
X204000D02*
D03*
X214000D02*
D03*
X224000D02*
D03*
X234000D02*
D03*
X244000D02*
D03*
X254000D02*
D03*
X264000D02*
D03*
X274000D02*
D03*
X44000Y18500D02*
D03*
X54000D02*
D03*
X64000D02*
D03*
X74000D02*
D03*
X84000D02*
D03*
X94000D02*
D03*
X104000D02*
D03*
X114000D02*
D03*
X124000D02*
D03*
X134000D02*
D03*
X144000D02*
D03*
X154000D02*
D03*
Y105115D02*
D03*
X144000D02*
D03*
X134000D02*
D03*
X124000D02*
D03*
X114000D02*
D03*
X104000D02*
D03*
X94000D02*
D03*
X84000D02*
D03*
X74000D02*
D03*
X64000D02*
D03*
X54000D02*
D03*
X44000D02*
D03*
X69000Y34500D02*
D03*
X59000D02*
D03*
X79000D02*
D03*
X89000D02*
D03*
D26*
X172000Y139500D02*
D03*
Y149500D02*
D03*
D27*
X126028Y274461D02*
D03*
X96500D02*
D03*
D28*
X324500Y161261D02*
D03*
X310720D02*
D03*
D29*
X327500Y263000D02*
D03*
X313581Y249081D02*
D03*
X358500Y233261D02*
D03*
X344581Y219341D02*
D03*
X26815Y195000D02*
D03*
X66185D02*
D03*
D30*
X62500Y293500D02*
D03*
X47736D02*
D03*
X92027D02*
D03*
X77264D02*
D03*
D31*
X69528Y153000D02*
D03*
X40000D02*
D03*
D32*
X217500Y283000D02*
D03*
X187972D02*
D03*
X26252Y231878D02*
D03*
X57748D02*
D03*
Y259043D02*
D03*
X26252D02*
D03*
X274000Y289261D02*
D03*
D33*
X291681Y200046D02*
D03*
Y185282D02*
D03*
X189319Y259101D02*
D03*
Y229573D02*
D03*
Y170519D02*
D03*
X291681Y244337D02*
D03*
Y229574D02*
D03*
X189319Y200046D02*
D03*
X291681Y259101D02*
D03*
Y170420D02*
D03*
D34*
X299157Y285000D02*
D03*
X309000D02*
D03*
X318842D02*
D03*
D35*
X168000Y212500D02*
D03*
X167980Y201480D02*
D03*
X168060Y225150D02*
D03*
D36*
X349000Y198221D02*
D03*
Y168300D02*
D03*
D37*
X168000Y301996D02*
D03*
Y239004D02*
D03*
D38*
X337500Y144761D02*
D03*
X354700D02*
D03*
X321800Y18800D02*
D03*
X339000D02*
D03*
D39*
X234500Y289261D02*
D03*
D40*
X372047Y297244D02*
D03*
X17717D02*
D03*
Y17717D02*
D03*
X372047D02*
D03*
D41*
X361447Y297244D02*
D03*
X366747Y288064D02*
D03*
X377347D02*
D03*
X382647Y297244D02*
D03*
X377347Y306424D02*
D03*
X366747D02*
D03*
X7117Y297244D02*
D03*
X12417Y288064D02*
D03*
X23017D02*
D03*
X28317Y297244D02*
D03*
X23017Y306424D02*
D03*
X12417D02*
D03*
X7117Y17717D02*
D03*
X12417Y8537D02*
D03*
X23017D02*
D03*
X28317Y17717D02*
D03*
X23017Y26896D02*
D03*
X12417D02*
D03*
X361447Y17717D02*
D03*
X366747Y8537D02*
D03*
X377347D02*
D03*
X382647Y17717D02*
D03*
X377347Y26896D02*
D03*
X366747D02*
D03*
D42*
X164500Y73000D02*
D03*
Y63000D02*
D03*
X154500Y73000D02*
D03*
Y63000D02*
D03*
X144500Y73000D02*
D03*
Y63000D02*
D03*
X134500Y73000D02*
D03*
D43*
Y63000D02*
D03*
D44*
X217000Y57500D02*
D03*
X283929D02*
D03*
X323299D02*
D03*
X236685D02*
D03*
D45*
X16500Y155500D02*
D03*
Y170500D02*
D03*
D46*
X116732Y138561D02*
D03*
D47*
X378839Y163061D02*
D03*
D48*
X336000Y115000D02*
D03*
X356000Y97500D02*
D03*
X311500Y147000D02*
D03*
X286500Y105000D02*
D03*
X206000Y57000D02*
D03*
M02*
