G04*
G04 #@! TF.GenerationSoftware,Altium Limited,Altium Designer,22.3.1 (43)*
G04*
G04 Layer_Color=2752767*
%FSLAX25Y25*%
%MOIN*%
G70*
G04*
G04 #@! TF.SameCoordinates,C0646150-8C3F-47E1-8FD3-6E96B4F631F1*
G04*
G04*
G04 #@! TF.FilePolarity,Positive*
G04*
G01*
G75*
%ADD150C,0.00200*%
%ADD151C,0.00267*%
%ADD152C,0.00133*%
D150*
X39515Y172700D02*
Y174300D01*
X41115D01*
Y172700D01*
X39515D01*
X59200D02*
Y174300D01*
X60800D01*
Y172700D01*
X59200D01*
X172000Y138700D02*
X171200Y140300D01*
X172800D01*
X172000Y138700D01*
Y148700D02*
X171200Y150300D01*
X172800D01*
X172000Y148700D01*
X126028Y273661D02*
X126428Y274061D01*
X126828D01*
X126428Y274461D01*
X126828Y274861D01*
X126428D01*
X126028Y275261D01*
X125628Y274861D01*
X125228D01*
X125628Y274461D01*
X125228Y274061D01*
X125628D01*
X126028Y273661D01*
X96500D02*
X96900Y274061D01*
X97300D01*
X96900Y274461D01*
X97300Y274861D01*
X96900D01*
X96500Y275261D01*
X96100Y274861D01*
X95700D01*
X96100Y274461D01*
X95700Y274061D01*
X96100D01*
X96500Y273661D01*
X324500Y160461D02*
X323700Y162061D01*
X325300D01*
X324500Y160461D01*
X310720D02*
X309920Y162061D01*
X311520D01*
X310720Y160461D01*
X326700Y262200D02*
Y263800D01*
X328300D01*
Y262200D01*
X326700D01*
X312781Y248281D02*
Y249881D01*
X314381D01*
Y248281D01*
X312781D01*
X357700Y232461D02*
Y234061D01*
X359300D01*
Y232461D01*
X357700D01*
X343781Y218541D02*
Y220141D01*
X345381D01*
Y218541D01*
X343781D01*
X62500Y292700D02*
X62900Y293100D01*
X63300D01*
X62900Y293500D01*
X63300Y293900D01*
X62900D01*
X62500Y294300D01*
X62100Y293900D01*
X61700D01*
X62100Y293500D01*
X61700Y293100D01*
X62100D01*
X62500Y292700D01*
X47736D02*
X48136Y293100D01*
X48536D01*
X48136Y293500D01*
X48536Y293900D01*
X48136D01*
X47736Y294300D01*
X47336Y293900D01*
X46936D01*
X47336Y293500D01*
X46936Y293100D01*
X47336D01*
X47736Y292700D01*
X92027D02*
X92427Y293100D01*
X92827D01*
X92427Y293500D01*
X92827Y293900D01*
X92427D01*
X92027Y294300D01*
X91627Y293900D01*
X91227D01*
X91627Y293500D01*
X91227Y293100D01*
X91627D01*
X92027Y292700D01*
X77264D02*
X77664Y293100D01*
X78064D01*
X77664Y293500D01*
X78064Y293900D01*
X77664D01*
X77264Y294300D01*
X76864Y293900D01*
X76464D01*
X76864Y293500D01*
X76464Y293100D01*
X76864D01*
X77264Y292700D01*
X69528Y152200D02*
X69928Y152600D01*
X70328D01*
X69928Y153000D01*
X70328Y153400D01*
X69928D01*
X69528Y153800D01*
X69128Y153400D01*
X68728D01*
X69128Y153000D01*
X68728Y152600D01*
X69128D01*
X69528Y152200D01*
X40000D02*
X40400Y152600D01*
X40800D01*
X40400Y153000D01*
X40800Y153400D01*
X40400D01*
X40000Y153800D01*
X39600Y153400D01*
X39200D01*
X39600Y153000D01*
X39200Y152600D01*
X39600D01*
X40000Y152200D01*
X217500Y282200D02*
X216700Y283800D01*
X218300D01*
X217500Y282200D01*
X187972D02*
X187172Y283800D01*
X188772D01*
X187972Y282200D01*
X290881Y199246D02*
X291281Y200046D01*
X290881Y200846D01*
X291681Y200446D01*
X292481Y200846D01*
X292081Y200046D01*
X292481Y199246D01*
X291681Y199646D01*
X290881Y199246D01*
Y184482D02*
X291281Y185282D01*
X290881Y186082D01*
X291681Y185682D01*
X292481Y186082D01*
X292081Y185282D01*
X292481Y184482D01*
X291681Y184882D01*
X290881Y184482D01*
X188519Y258301D02*
X188919Y259101D01*
X188519Y259901D01*
X189319Y259501D01*
X190119Y259901D01*
X189719Y259101D01*
X190119Y258301D01*
X189319Y258701D01*
X188519Y258301D01*
Y228773D02*
X188919Y229573D01*
X188519Y230373D01*
X189319Y229973D01*
X190119Y230373D01*
X189719Y229573D01*
X190119Y228773D01*
X189319Y229173D01*
X188519Y228773D01*
Y169719D02*
X188919Y170519D01*
X188519Y171319D01*
X189319Y170919D01*
X190119Y171319D01*
X189719Y170519D01*
X190119Y169719D01*
X189319Y170119D01*
X188519Y169719D01*
X290881Y243537D02*
X291281Y244337D01*
X290881Y245137D01*
X291681Y244737D01*
X292481Y245137D01*
X292081Y244337D01*
X292481Y243537D01*
X291681Y243937D01*
X290881Y243537D01*
Y228774D02*
X291281Y229574D01*
X290881Y230374D01*
X291681Y229974D01*
X292481Y230374D01*
X292081Y229574D01*
X292481Y228774D01*
X291681Y229174D01*
X290881Y228774D01*
X188519Y199246D02*
X188919Y200046D01*
X188519Y200846D01*
X189319Y200446D01*
X190119Y200846D01*
X189719Y200046D01*
X190119Y199246D01*
X189319Y199646D01*
X188519Y199246D01*
Y243439D02*
X188919Y244239D01*
X188519Y245039D01*
X189319Y244639D01*
X190119Y245039D01*
X189719Y244239D01*
X190119Y243439D01*
X189319Y243839D01*
X188519Y243439D01*
X290881Y258301D02*
X291281Y259101D01*
X290881Y259901D01*
X291681Y259501D01*
X292481Y259901D01*
X292081Y259101D01*
X292481Y258301D01*
X291681Y258701D01*
X290881Y258301D01*
X188519Y184384D02*
X188919Y185184D01*
X188519Y185984D01*
X189319Y185584D01*
X190119Y185984D01*
X189719Y185184D01*
X190119Y184384D01*
X189319Y184784D01*
X188519Y184384D01*
X290881Y169620D02*
X291281Y170420D01*
X290881Y171220D01*
X291681Y170820D01*
X292481Y171220D01*
X292081Y170420D01*
X292481Y169620D01*
X291681Y170020D01*
X290881Y169620D01*
X25452Y231078D02*
Y232678D01*
X27052D01*
Y231078D01*
X25452D01*
X56948D02*
Y232678D01*
X58548D01*
Y231078D01*
X56948D01*
Y258243D02*
Y259843D01*
X58548D01*
Y258243D01*
X56948D01*
X25452D02*
Y259843D01*
X27052D01*
Y258243D01*
X25452D01*
X298357Y284200D02*
Y285800D01*
X299957D01*
Y284200D01*
X298357D01*
X308200D02*
Y285800D01*
X309800D01*
Y284200D01*
X308200D01*
X318042D02*
Y285800D01*
X319642D01*
Y284200D01*
X318042D01*
X167600Y212100D02*
Y211700D01*
X168400D01*
Y212100D01*
X168800D01*
Y212900D01*
X168400D01*
Y213300D01*
X167600D01*
Y212900D01*
X167200D01*
Y212100D01*
X167600D01*
X167580Y201080D02*
Y200680D01*
X168380D01*
Y201080D01*
X168780D01*
Y201880D01*
X168380D01*
Y202280D01*
X167580D01*
Y201880D01*
X167180D01*
Y201080D01*
X167580D01*
X167660Y224750D02*
Y224350D01*
X168460D01*
Y224750D01*
X168860D01*
Y225550D01*
X168460D01*
Y225950D01*
X167660D01*
Y225550D01*
X167260D01*
Y224750D01*
X167660D01*
X348200Y197421D02*
X348600D01*
X349000Y197821D01*
X349400Y197421D01*
X349800D01*
Y197821D01*
X349400Y198221D01*
X349800Y198621D01*
Y199021D01*
X349400D01*
X349000Y198621D01*
X348600Y199021D01*
X348200D01*
Y198621D01*
X348600Y198221D01*
X348200Y197821D01*
Y197421D01*
Y167500D02*
X348600D01*
X349000Y167900D01*
X349400Y167500D01*
X349800D01*
Y167900D01*
X349400Y168300D01*
X349800Y168700D01*
Y169100D01*
X349400D01*
X349000Y168700D01*
X348600Y169100D01*
X348200D01*
Y168700D01*
X348600Y168300D01*
X348200Y167900D01*
Y167500D01*
X26015Y194200D02*
Y195800D01*
X27615D01*
Y194200D01*
X26015D01*
X65385D02*
Y195800D01*
X66985D01*
Y194200D01*
X65385D01*
X167200Y301996D02*
X168000Y302796D01*
X168800Y301996D01*
X168000Y301196D01*
X167200Y301996D01*
Y239004D02*
X168000Y239804D01*
X168800Y239004D01*
X168000Y238204D01*
X167200Y239004D01*
X336700Y143961D02*
Y145561D01*
X338300D01*
Y143961D01*
X336700D01*
X337100Y144361D02*
Y145161D01*
X337900D01*
Y144361D01*
X337100D01*
X353900Y143961D02*
Y145561D01*
X355500D01*
Y143961D01*
X353900D01*
X354300Y144361D02*
Y145161D01*
X355100D01*
Y144361D01*
X354300D01*
X321000Y18000D02*
Y19600D01*
X322600D01*
Y18000D01*
X321000D01*
X321400Y18400D02*
Y19200D01*
X322200D01*
Y18400D01*
X321400D01*
X338200Y18000D02*
Y19600D01*
X339800D01*
Y18000D01*
X338200D01*
X338600Y18400D02*
Y19200D01*
X339400D01*
Y18400D01*
X338600D01*
X372047Y296444D02*
X371247Y298044D01*
X372847D01*
X372047Y296444D01*
Y296844D02*
X371647Y297644D01*
X372447D01*
X372047Y296844D01*
X361447Y296444D02*
X361847Y296844D01*
X362247D01*
X361847Y297244D01*
X362247Y297644D01*
X361847D01*
X361447Y298044D01*
X361047Y297644D01*
X360647D01*
X361047Y297244D01*
X360647Y296844D01*
X361047D01*
X361447Y296444D01*
Y296844D02*
X361647Y297044D01*
X361847D01*
X361647Y297244D01*
X361847Y297444D01*
X361647D01*
X361447Y297644D01*
X361247Y297444D01*
X361047D01*
X361247Y297244D01*
X361047Y297044D01*
X361247D01*
X361447Y296844D01*
X366747Y287264D02*
X367147Y287664D01*
X367547D01*
X367147Y288064D01*
X367547Y288464D01*
X367147D01*
X366747Y288864D01*
X366347Y288464D01*
X365947D01*
X366347Y288064D01*
X365947Y287664D01*
X366347D01*
X366747Y287264D01*
Y287664D02*
X366947Y287864D01*
X367147D01*
X366947Y288064D01*
X367147Y288264D01*
X366947D01*
X366747Y288464D01*
X366547Y288264D01*
X366347D01*
X366547Y288064D01*
X366347Y287864D01*
X366547D01*
X366747Y287664D01*
X377347Y287264D02*
X377747Y287664D01*
X378147D01*
X377747Y288064D01*
X378147Y288464D01*
X377747D01*
X377347Y288864D01*
X376947Y288464D01*
X376547D01*
X376947Y288064D01*
X376547Y287664D01*
X376947D01*
X377347Y287264D01*
Y287664D02*
X377547Y287864D01*
X377747D01*
X377547Y288064D01*
X377747Y288264D01*
X377547D01*
X377347Y288464D01*
X377147Y288264D01*
X376947D01*
X377147Y288064D01*
X376947Y287864D01*
X377147D01*
X377347Y287664D01*
X382647Y296444D02*
X383047Y296844D01*
X383447D01*
X383047Y297244D01*
X383447Y297644D01*
X383047D01*
X382647Y298044D01*
X382247Y297644D01*
X381847D01*
X382247Y297244D01*
X381847Y296844D01*
X382247D01*
X382647Y296444D01*
Y296844D02*
X382847Y297044D01*
X383047D01*
X382847Y297244D01*
X383047Y297444D01*
X382847D01*
X382647Y297644D01*
X382447Y297444D01*
X382247D01*
X382447Y297244D01*
X382247Y297044D01*
X382447D01*
X382647Y296844D01*
X377347Y305624D02*
X377747Y306024D01*
X378147D01*
X377747Y306424D01*
X378147Y306824D01*
X377747D01*
X377347Y307224D01*
X376947Y306824D01*
X376547D01*
X376947Y306424D01*
X376547Y306024D01*
X376947D01*
X377347Y305624D01*
Y306024D02*
X377547Y306224D01*
X377747D01*
X377547Y306424D01*
X377747Y306624D01*
X377547D01*
X377347Y306824D01*
X377147Y306624D01*
X376947D01*
X377147Y306424D01*
X376947Y306224D01*
X377147D01*
X377347Y306024D01*
X366747Y305624D02*
X367147Y306024D01*
X367547D01*
X367147Y306424D01*
X367547Y306824D01*
X367147D01*
X366747Y307224D01*
X366347Y306824D01*
X365947D01*
X366347Y306424D01*
X365947Y306024D01*
X366347D01*
X366747Y305624D01*
Y306024D02*
X366947Y306224D01*
X367147D01*
X366947Y306424D01*
X367147Y306624D01*
X366947D01*
X366747Y306824D01*
X366547Y306624D01*
X366347D01*
X366547Y306424D01*
X366347Y306224D01*
X366547D01*
X366747Y306024D01*
X17717Y296444D02*
X16917Y298044D01*
X18517D01*
X17717Y296444D01*
Y296844D02*
X17317Y297644D01*
X18117D01*
X17717Y296844D01*
X7117Y296444D02*
X7517Y296844D01*
X7917D01*
X7517Y297244D01*
X7917Y297644D01*
X7517D01*
X7117Y298044D01*
X6717Y297644D01*
X6317D01*
X6717Y297244D01*
X6317Y296844D01*
X6717D01*
X7117Y296444D01*
Y296844D02*
X7317Y297044D01*
X7517D01*
X7317Y297244D01*
X7517Y297444D01*
X7317D01*
X7117Y297644D01*
X6917Y297444D01*
X6717D01*
X6917Y297244D01*
X6717Y297044D01*
X6917D01*
X7117Y296844D01*
X12417Y287264D02*
X12817Y287664D01*
X13217D01*
X12817Y288064D01*
X13217Y288464D01*
X12817D01*
X12417Y288864D01*
X12017Y288464D01*
X11617D01*
X12017Y288064D01*
X11617Y287664D01*
X12017D01*
X12417Y287264D01*
Y287664D02*
X12617Y287864D01*
X12817D01*
X12617Y288064D01*
X12817Y288264D01*
X12617D01*
X12417Y288464D01*
X12217Y288264D01*
X12017D01*
X12217Y288064D01*
X12017Y287864D01*
X12217D01*
X12417Y287664D01*
X23017Y287264D02*
X23417Y287664D01*
X23817D01*
X23417Y288064D01*
X23817Y288464D01*
X23417D01*
X23017Y288864D01*
X22617Y288464D01*
X22217D01*
X22617Y288064D01*
X22217Y287664D01*
X22617D01*
X23017Y287264D01*
Y287664D02*
X23217Y287864D01*
X23417D01*
X23217Y288064D01*
X23417Y288264D01*
X23217D01*
X23017Y288464D01*
X22817Y288264D01*
X22617D01*
X22817Y288064D01*
X22617Y287864D01*
X22817D01*
X23017Y287664D01*
X28317Y296444D02*
X28717Y296844D01*
X29117D01*
X28717Y297244D01*
X29117Y297644D01*
X28717D01*
X28317Y298044D01*
X27917Y297644D01*
X27517D01*
X27917Y297244D01*
X27517Y296844D01*
X27917D01*
X28317Y296444D01*
Y296844D02*
X28517Y297044D01*
X28717D01*
X28517Y297244D01*
X28717Y297444D01*
X28517D01*
X28317Y297644D01*
X28117Y297444D01*
X27917D01*
X28117Y297244D01*
X27917Y297044D01*
X28117D01*
X28317Y296844D01*
X23017Y305624D02*
X23417Y306024D01*
X23817D01*
X23417Y306424D01*
X23817Y306824D01*
X23417D01*
X23017Y307224D01*
X22617Y306824D01*
X22217D01*
X22617Y306424D01*
X22217Y306024D01*
X22617D01*
X23017Y305624D01*
Y306024D02*
X23217Y306224D01*
X23417D01*
X23217Y306424D01*
X23417Y306624D01*
X23217D01*
X23017Y306824D01*
X22817Y306624D01*
X22617D01*
X22817Y306424D01*
X22617Y306224D01*
X22817D01*
X23017Y306024D01*
X12417Y305624D02*
X12817Y306024D01*
X13217D01*
X12817Y306424D01*
X13217Y306824D01*
X12817D01*
X12417Y307224D01*
X12017Y306824D01*
X11617D01*
X12017Y306424D01*
X11617Y306024D01*
X12017D01*
X12417Y305624D01*
Y306024D02*
X12617Y306224D01*
X12817D01*
X12617Y306424D01*
X12817Y306624D01*
X12617D01*
X12417Y306824D01*
X12217Y306624D01*
X12017D01*
X12217Y306424D01*
X12017Y306224D01*
X12217D01*
X12417Y306024D01*
X17717Y16917D02*
X16917Y18517D01*
X18517D01*
X17717Y16917D01*
Y17317D02*
X17317Y18117D01*
X18117D01*
X17717Y17317D01*
X7117Y16917D02*
X7517Y17317D01*
X7917D01*
X7517Y17717D01*
X7917Y18117D01*
X7517D01*
X7117Y18517D01*
X6717Y18117D01*
X6317D01*
X6717Y17717D01*
X6317Y17317D01*
X6717D01*
X7117Y16917D01*
Y17317D02*
X7317Y17517D01*
X7517D01*
X7317Y17717D01*
X7517Y17917D01*
X7317D01*
X7117Y18117D01*
X6917Y17917D01*
X6717D01*
X6917Y17717D01*
X6717Y17517D01*
X6917D01*
X7117Y17317D01*
X12417Y7737D02*
X12817Y8137D01*
X13217D01*
X12817Y8537D01*
X13217Y8937D01*
X12817D01*
X12417Y9337D01*
X12017Y8937D01*
X11617D01*
X12017Y8537D01*
X11617Y8137D01*
X12017D01*
X12417Y7737D01*
Y8137D02*
X12617Y8337D01*
X12817D01*
X12617Y8537D01*
X12817Y8737D01*
X12617D01*
X12417Y8937D01*
X12217Y8737D01*
X12017D01*
X12217Y8537D01*
X12017Y8337D01*
X12217D01*
X12417Y8137D01*
X23017Y7737D02*
X23417Y8137D01*
X23817D01*
X23417Y8537D01*
X23817Y8937D01*
X23417D01*
X23017Y9337D01*
X22617Y8937D01*
X22217D01*
X22617Y8537D01*
X22217Y8137D01*
X22617D01*
X23017Y7737D01*
Y8137D02*
X23217Y8337D01*
X23417D01*
X23217Y8537D01*
X23417Y8737D01*
X23217D01*
X23017Y8937D01*
X22817Y8737D01*
X22617D01*
X22817Y8537D01*
X22617Y8337D01*
X22817D01*
X23017Y8137D01*
X28317Y16917D02*
X28717Y17317D01*
X29117D01*
X28717Y17717D01*
X29117Y18117D01*
X28717D01*
X28317Y18517D01*
X27917Y18117D01*
X27517D01*
X27917Y17717D01*
X27517Y17317D01*
X27917D01*
X28317Y16917D01*
Y17317D02*
X28517Y17517D01*
X28717D01*
X28517Y17717D01*
X28717Y17917D01*
X28517D01*
X28317Y18117D01*
X28117Y17917D01*
X27917D01*
X28117Y17717D01*
X27917Y17517D01*
X28117D01*
X28317Y17317D01*
X23017Y26096D02*
X23417Y26496D01*
X23817D01*
X23417Y26896D01*
X23817Y27296D01*
X23417D01*
X23017Y27696D01*
X22617Y27296D01*
X22217D01*
X22617Y26896D01*
X22217Y26496D01*
X22617D01*
X23017Y26096D01*
Y26496D02*
X23217Y26696D01*
X23417D01*
X23217Y26896D01*
X23417Y27096D01*
X23217D01*
X23017Y27296D01*
X22817Y27096D01*
X22617D01*
X22817Y26896D01*
X22617Y26696D01*
X22817D01*
X23017Y26496D01*
X12417Y26096D02*
X12817Y26496D01*
X13217D01*
X12817Y26896D01*
X13217Y27296D01*
X12817D01*
X12417Y27696D01*
X12017Y27296D01*
X11617D01*
X12017Y26896D01*
X11617Y26496D01*
X12017D01*
X12417Y26096D01*
Y26496D02*
X12617Y26696D01*
X12817D01*
X12617Y26896D01*
X12817Y27096D01*
X12617D01*
X12417Y27296D01*
X12217Y27096D01*
X12017D01*
X12217Y26896D01*
X12017Y26696D01*
X12217D01*
X12417Y26496D01*
X372047Y16917D02*
X371247Y18517D01*
X372847D01*
X372047Y16917D01*
Y17317D02*
X371647Y18117D01*
X372447D01*
X372047Y17317D01*
X361447Y16917D02*
X361847Y17317D01*
X362247D01*
X361847Y17717D01*
X362247Y18117D01*
X361847D01*
X361447Y18517D01*
X361047Y18117D01*
X360647D01*
X361047Y17717D01*
X360647Y17317D01*
X361047D01*
X361447Y16917D01*
Y17317D02*
X361647Y17517D01*
X361847D01*
X361647Y17717D01*
X361847Y17917D01*
X361647D01*
X361447Y18117D01*
X361247Y17917D01*
X361047D01*
X361247Y17717D01*
X361047Y17517D01*
X361247D01*
X361447Y17317D01*
X366747Y7737D02*
X367147Y8137D01*
X367547D01*
X367147Y8537D01*
X367547Y8937D01*
X367147D01*
X366747Y9337D01*
X366347Y8937D01*
X365947D01*
X366347Y8537D01*
X365947Y8137D01*
X366347D01*
X366747Y7737D01*
Y8137D02*
X366947Y8337D01*
X367147D01*
X366947Y8537D01*
X367147Y8737D01*
X366947D01*
X366747Y8937D01*
X366547Y8737D01*
X366347D01*
X366547Y8537D01*
X366347Y8337D01*
X366547D01*
X366747Y8137D01*
X377347Y7737D02*
X377747Y8137D01*
X378147D01*
X377747Y8537D01*
X378147Y8937D01*
X377747D01*
X377347Y9337D01*
X376947Y8937D01*
X376547D01*
X376947Y8537D01*
X376547Y8137D01*
X376947D01*
X377347Y7737D01*
Y8137D02*
X377547Y8337D01*
X377747D01*
X377547Y8537D01*
X377747Y8737D01*
X377547D01*
X377347Y8937D01*
X377147Y8737D01*
X376947D01*
X377147Y8537D01*
X376947Y8337D01*
X377147D01*
X377347Y8137D01*
X382647Y16917D02*
X383047Y17317D01*
X383447D01*
X383047Y17717D01*
X383447Y18117D01*
X383047D01*
X382647Y18517D01*
X382247Y18117D01*
X381847D01*
X382247Y17717D01*
X381847Y17317D01*
X382247D01*
X382647Y16917D01*
Y17317D02*
X382847Y17517D01*
X383047D01*
X382847Y17717D01*
X383047Y17917D01*
X382847D01*
X382647Y18117D01*
X382447Y17917D01*
X382247D01*
X382447Y17717D01*
X382247Y17517D01*
X382447D01*
X382647Y17317D01*
X377347Y26096D02*
X377747Y26496D01*
X378147D01*
X377747Y26896D01*
X378147Y27296D01*
X377747D01*
X377347Y27696D01*
X376947Y27296D01*
X376547D01*
X376947Y26896D01*
X376547Y26496D01*
X376947D01*
X377347Y26096D01*
Y26496D02*
X377547Y26696D01*
X377747D01*
X377547Y26896D01*
X377747Y27096D01*
X377547D01*
X377347Y27296D01*
X377147Y27096D01*
X376947D01*
X377147Y26896D01*
X376947Y26696D01*
X377147D01*
X377347Y26496D01*
X366747Y26096D02*
X367147Y26496D01*
X367547D01*
X367147Y26896D01*
X367547Y27296D01*
X367147D01*
X366747Y27696D01*
X366347Y27296D01*
X365947D01*
X366347Y26896D01*
X365947Y26496D01*
X366347D01*
X366747Y26096D01*
Y26496D02*
X366947Y26696D01*
X367147D01*
X366947Y26896D01*
X367147Y27096D01*
X366947D01*
X366747Y27296D01*
X366547Y27096D01*
X366347D01*
X366547Y26896D01*
X366347Y26696D01*
X366547D01*
X366747Y26496D01*
X163700Y72200D02*
X164100Y73000D01*
X163700Y73800D01*
X164500Y73400D01*
X165300Y73800D01*
X164900Y73000D01*
X165300Y72200D01*
X164500Y72600D01*
X163700Y72200D01*
X164100Y72600D02*
X164300Y73000D01*
X164100Y73400D01*
X164500Y73200D01*
X164900Y73400D01*
X164700Y73000D01*
X164900Y72600D01*
X164500Y72800D01*
X164100Y72600D01*
X163700Y62200D02*
X164100Y63000D01*
X163700Y63800D01*
X164500Y63400D01*
X165300Y63800D01*
X164900Y63000D01*
X165300Y62200D01*
X164500Y62600D01*
X163700Y62200D01*
X164100Y62600D02*
X164300Y63000D01*
X164100Y63400D01*
X164500Y63200D01*
X164900Y63400D01*
X164700Y63000D01*
X164900Y62600D01*
X164500Y62800D01*
X164100Y62600D01*
X153700Y72200D02*
X154100Y73000D01*
X153700Y73800D01*
X154500Y73400D01*
X155300Y73800D01*
X154900Y73000D01*
X155300Y72200D01*
X154500Y72600D01*
X153700Y72200D01*
X154100Y72600D02*
X154300Y73000D01*
X154100Y73400D01*
X154500Y73200D01*
X154900Y73400D01*
X154700Y73000D01*
X154900Y72600D01*
X154500Y72800D01*
X154100Y72600D01*
X153700Y62200D02*
X154100Y63000D01*
X153700Y63800D01*
X154500Y63400D01*
X155300Y63800D01*
X154900Y63000D01*
X155300Y62200D01*
X154500Y62600D01*
X153700Y62200D01*
X154100Y62600D02*
X154300Y63000D01*
X154100Y63400D01*
X154500Y63200D01*
X154900Y63400D01*
X154700Y63000D01*
X154900Y62600D01*
X154500Y62800D01*
X154100Y62600D01*
X143700Y72200D02*
X144100Y73000D01*
X143700Y73800D01*
X144500Y73400D01*
X145300Y73800D01*
X144900Y73000D01*
X145300Y72200D01*
X144500Y72600D01*
X143700Y72200D01*
X144100Y72600D02*
X144300Y73000D01*
X144100Y73400D01*
X144500Y73200D01*
X144900Y73400D01*
X144700Y73000D01*
X144900Y72600D01*
X144500Y72800D01*
X144100Y72600D01*
X143700Y62200D02*
X144100Y63000D01*
X143700Y63800D01*
X144500Y63400D01*
X145300Y63800D01*
X144900Y63000D01*
X145300Y62200D01*
X144500Y62600D01*
X143700Y62200D01*
X144100Y62600D02*
X144300Y63000D01*
X144100Y63400D01*
X144500Y63200D01*
X144900Y63400D01*
X144700Y63000D01*
X144900Y62600D01*
X144500Y62800D01*
X144100Y62600D01*
X133700Y72200D02*
X134100Y73000D01*
X133700Y73800D01*
X134500Y73400D01*
X135300Y73800D01*
X134900Y73000D01*
X135300Y72200D01*
X134500Y72600D01*
X133700Y72200D01*
X134100Y72600D02*
X134300Y73000D01*
X134100Y73400D01*
X134500Y73200D01*
X134900Y73400D01*
X134700Y73000D01*
X134900Y72600D01*
X134500Y72800D01*
X134100Y72600D01*
X133700Y62200D02*
X134100Y63000D01*
X133700Y63800D01*
X134500Y63400D01*
X135300Y63800D01*
X134900Y63000D01*
X135300Y62200D01*
X134500Y62600D01*
X133700Y62200D01*
X134100Y62600D02*
X134300Y63000D01*
X134100Y63400D01*
X134500Y63200D01*
X134900Y63400D01*
X134700Y63000D01*
X134900Y62600D01*
X134500Y62800D01*
X134100Y62600D01*
X216600Y57100D02*
Y56700D01*
X217400D01*
Y57100D01*
X217800D01*
Y57900D01*
X217400D01*
Y58300D01*
X216600D01*
Y57900D01*
X216200D01*
Y57100D01*
X216600D01*
X283529D02*
Y56700D01*
X284329D01*
Y57100D01*
X284729D01*
Y57900D01*
X284329D01*
Y58300D01*
X283529D01*
Y57900D01*
X283129D01*
Y57100D01*
X283529D01*
X322899D02*
Y56700D01*
X323699D01*
Y57100D01*
X324099D01*
Y57900D01*
X323699D01*
Y58300D01*
X322899D01*
Y57900D01*
X322499D01*
Y57100D01*
X322899D01*
X236285D02*
Y56700D01*
X237085D01*
Y57100D01*
X237485D01*
Y57900D01*
X237085D01*
Y58300D01*
X236285D01*
Y57900D01*
X235885D01*
Y57100D01*
X236285D01*
X15700Y154700D02*
Y156300D01*
X17300D01*
Y154700D01*
X15700D01*
Y169700D02*
Y171300D01*
X17300D01*
Y169700D01*
X15700D01*
X116332Y138161D02*
Y137761D01*
X117132D01*
Y138161D01*
X117532D01*
Y138961D01*
X117132D01*
Y139361D01*
X116332D01*
Y138961D01*
X115932D01*
Y138161D01*
X116332D01*
X116532Y138361D02*
Y138161D01*
X116932D01*
Y138361D01*
X117132D01*
Y138761D01*
X116932D01*
Y138961D01*
X116532D01*
Y138761D01*
X116332D01*
Y138361D01*
X116532D01*
X378439Y162661D02*
Y162261D01*
X379239D01*
Y162661D01*
X379639D01*
Y163461D01*
X379239D01*
Y163861D01*
X378439D01*
Y163461D01*
X378039D01*
Y162661D01*
X378439D01*
X378639Y162861D02*
Y162661D01*
X379039D01*
Y162861D01*
X379239D01*
Y163261D01*
X379039D01*
Y163461D01*
X378639D01*
Y163261D01*
X378439D01*
Y162861D01*
X378639D01*
X335200Y114200D02*
X335600D01*
X336000Y114600D01*
X336400Y114200D01*
X336800D01*
Y114600D01*
X336400Y115000D01*
X336800Y115400D01*
Y115800D01*
X336400D01*
X336000Y115400D01*
X335600Y115800D01*
X335200D01*
Y115400D01*
X335600Y115000D01*
X335200Y114600D01*
Y114200D01*
X335600Y114600D02*
X335800D01*
X336000Y114800D01*
X336200Y114600D01*
X336400D01*
Y114800D01*
X336200Y115000D01*
X336400Y115200D01*
Y115400D01*
X336200D01*
X336000Y115200D01*
X335800Y115400D01*
X335600D01*
Y115200D01*
X335800Y115000D01*
X335600Y114800D01*
Y114600D01*
X355200Y96700D02*
X355600D01*
X356000Y97100D01*
X356400Y96700D01*
X356800D01*
Y97100D01*
X356400Y97500D01*
X356800Y97900D01*
Y98300D01*
X356400D01*
X356000Y97900D01*
X355600Y98300D01*
X355200D01*
Y97900D01*
X355600Y97500D01*
X355200Y97100D01*
Y96700D01*
X355600Y97100D02*
X355800D01*
X356000Y97300D01*
X356200Y97100D01*
X356400D01*
Y97300D01*
X356200Y97500D01*
X356400Y97700D01*
Y97900D01*
X356200D01*
X356000Y97700D01*
X355800Y97900D01*
X355600D01*
Y97700D01*
X355800Y97500D01*
X355600Y97300D01*
Y97100D01*
X310700Y146200D02*
X311100D01*
X311500Y146600D01*
X311900Y146200D01*
X312300D01*
Y146600D01*
X311900Y147000D01*
X312300Y147400D01*
Y147800D01*
X311900D01*
X311500Y147400D01*
X311100Y147800D01*
X310700D01*
Y147400D01*
X311100Y147000D01*
X310700Y146600D01*
Y146200D01*
X311100Y146600D02*
X311300D01*
X311500Y146800D01*
X311700Y146600D01*
X311900D01*
Y146800D01*
X311700Y147000D01*
X311900Y147200D01*
Y147400D01*
X311700D01*
X311500Y147200D01*
X311300Y147400D01*
X311100D01*
Y147200D01*
X311300Y147000D01*
X311100Y146800D01*
Y146600D01*
X285700Y104200D02*
X286100D01*
X286500Y104600D01*
X286900Y104200D01*
X287300D01*
Y104600D01*
X286900Y105000D01*
X287300Y105400D01*
Y105800D01*
X286900D01*
X286500Y105400D01*
X286100Y105800D01*
X285700D01*
Y105400D01*
X286100Y105000D01*
X285700Y104600D01*
Y104200D01*
X286100Y104600D02*
X286300D01*
X286500Y104800D01*
X286700Y104600D01*
X286900D01*
Y104800D01*
X286700Y105000D01*
X286900Y105200D01*
Y105400D01*
X286700D01*
X286500Y105200D01*
X286300Y105400D01*
X286100D01*
Y105200D01*
X286300Y105000D01*
X286100Y104800D01*
Y104600D01*
X205200Y56200D02*
X205600D01*
X206000Y56600D01*
X206400Y56200D01*
X206800D01*
Y56600D01*
X206400Y57000D01*
X206800Y57400D01*
Y57800D01*
X206400D01*
X206000Y57400D01*
X205600Y57800D01*
X205200D01*
Y57400D01*
X205600Y57000D01*
X205200Y56600D01*
Y56200D01*
X205600Y56600D02*
X205800D01*
X206000Y56800D01*
X206200Y56600D01*
X206400D01*
Y56800D01*
X206200Y57000D01*
X206400Y57200D01*
Y57400D01*
X206200D01*
X206000Y57200D01*
X205800Y57400D01*
X205600D01*
Y57200D01*
X205800Y57000D01*
X205600Y56800D01*
Y56600D01*
D151*
X164800Y18500D02*
X164247Y19261D01*
X163353Y18970D01*
Y18030D01*
X164247Y17739D01*
X164800Y18500D01*
X174800D02*
X174247Y19261D01*
X173353Y18970D01*
Y18030D01*
X174247Y17739D01*
X174800Y18500D01*
X184800D02*
X184247Y19261D01*
X183353Y18970D01*
Y18030D01*
X184247Y17739D01*
X184800Y18500D01*
X194800D02*
X194247Y19261D01*
X193353Y18970D01*
Y18030D01*
X194247Y17739D01*
X194800Y18500D01*
X204800D02*
X204247Y19261D01*
X203353Y18970D01*
Y18030D01*
X204247Y17739D01*
X204800Y18500D01*
X214800D02*
X214247Y19261D01*
X213353Y18970D01*
Y18030D01*
X214247Y17739D01*
X214800Y18500D01*
X224800D02*
X224247Y19261D01*
X223353Y18970D01*
Y18030D01*
X224247Y17739D01*
X224800Y18500D01*
X234800D02*
X234247Y19261D01*
X233353Y18970D01*
Y18030D01*
X234247Y17739D01*
X234800Y18500D01*
X244800D02*
X244247Y19261D01*
X243353Y18970D01*
Y18030D01*
X244247Y17739D01*
X244800Y18500D01*
X254800D02*
X254247Y19261D01*
X253353Y18970D01*
Y18030D01*
X254247Y17739D01*
X254800Y18500D01*
X264800D02*
X264247Y19261D01*
X263353Y18970D01*
Y18030D01*
X264247Y17739D01*
X264800Y18500D01*
X274800D02*
X274247Y19261D01*
X273353Y18970D01*
Y18030D01*
X274247Y17739D01*
X274800Y18500D01*
X164800Y105116D02*
X164247Y105876D01*
X163353Y105586D01*
Y104645D01*
X164247Y104355D01*
X164800Y105116D01*
X174800D02*
X174247Y105876D01*
X173353Y105586D01*
Y104645D01*
X174247Y104355D01*
X174800Y105116D01*
X184800D02*
X184247Y105876D01*
X183353Y105586D01*
Y104645D01*
X184247Y104355D01*
X184800Y105116D01*
X194800D02*
X194247Y105876D01*
X193353Y105586D01*
Y104645D01*
X194247Y104355D01*
X194800Y105116D01*
X204800D02*
X204247Y105876D01*
X203353Y105586D01*
Y104645D01*
X204247Y104355D01*
X204800Y105116D01*
X214800D02*
X214247Y105876D01*
X213353Y105586D01*
Y104645D01*
X214247Y104355D01*
X214800Y105116D01*
X224800D02*
X224247Y105876D01*
X223353Y105586D01*
Y104645D01*
X224247Y104355D01*
X224800Y105116D01*
X234800D02*
X234247Y105876D01*
X233353Y105586D01*
Y104645D01*
X234247Y104355D01*
X234800Y105116D01*
X244800D02*
X244247Y105876D01*
X243353Y105586D01*
Y104645D01*
X244247Y104355D01*
X244800Y105116D01*
X254800D02*
X254247Y105876D01*
X253353Y105586D01*
Y104645D01*
X254247Y104355D01*
X254800Y105116D01*
X264800D02*
X264247Y105876D01*
X263353Y105586D01*
Y104645D01*
X264247Y104355D01*
X264800Y105116D01*
X274800D02*
X274247Y105876D01*
X273353Y105586D01*
Y104645D01*
X274247Y104355D01*
X274800Y105116D01*
X44800Y18500D02*
X44247Y19261D01*
X43353Y18970D01*
Y18030D01*
X44247Y17739D01*
X44800Y18500D01*
X54800D02*
X54247Y19261D01*
X53353Y18970D01*
Y18030D01*
X54247Y17739D01*
X54800Y18500D01*
X64800D02*
X64247Y19261D01*
X63353Y18970D01*
Y18030D01*
X64247Y17739D01*
X64800Y18500D01*
X74800D02*
X74247Y19261D01*
X73353Y18970D01*
Y18030D01*
X74247Y17739D01*
X74800Y18500D01*
X84800D02*
X84247Y19261D01*
X83353Y18970D01*
Y18030D01*
X84247Y17739D01*
X84800Y18500D01*
X94800D02*
X94247Y19261D01*
X93353Y18970D01*
Y18030D01*
X94247Y17739D01*
X94800Y18500D01*
X104800D02*
X104247Y19261D01*
X103353Y18970D01*
Y18030D01*
X104247Y17739D01*
X104800Y18500D01*
X114800D02*
X114247Y19261D01*
X113353Y18970D01*
Y18030D01*
X114247Y17739D01*
X114800Y18500D01*
X124800D02*
X124247Y19261D01*
X123353Y18970D01*
Y18030D01*
X124247Y17739D01*
X124800Y18500D01*
X134800D02*
X134247Y19261D01*
X133353Y18970D01*
Y18030D01*
X134247Y17739D01*
X134800Y18500D01*
X144800D02*
X144247Y19261D01*
X143353Y18970D01*
Y18030D01*
X144247Y17739D01*
X144800Y18500D01*
X154800D02*
X154247Y19261D01*
X153353Y18970D01*
Y18030D01*
X154247Y17739D01*
X154800Y18500D01*
Y105116D02*
X154247Y105876D01*
X153353Y105586D01*
Y104645D01*
X154247Y104355D01*
X154800Y105116D01*
X144800D02*
X144247Y105876D01*
X143353Y105586D01*
Y104645D01*
X144247Y104355D01*
X144800Y105116D01*
X134800D02*
X134247Y105876D01*
X133353Y105586D01*
Y104645D01*
X134247Y104355D01*
X134800Y105116D01*
X124800D02*
X124247Y105876D01*
X123353Y105586D01*
Y104645D01*
X124247Y104355D01*
X124800Y105116D01*
X114800D02*
X114247Y105876D01*
X113353Y105586D01*
Y104645D01*
X114247Y104355D01*
X114800Y105116D01*
X104800D02*
X104247Y105876D01*
X103353Y105586D01*
Y104645D01*
X104247Y104355D01*
X104800Y105116D01*
X94800D02*
X94247Y105876D01*
X93353Y105586D01*
Y104645D01*
X94247Y104355D01*
X94800Y105116D01*
X84800D02*
X84247Y105876D01*
X83353Y105586D01*
Y104645D01*
X84247Y104355D01*
X84800Y105116D01*
X74800D02*
X74247Y105876D01*
X73353Y105586D01*
Y104645D01*
X74247Y104355D01*
X74800Y105116D01*
X64800D02*
X64247Y105876D01*
X63353Y105586D01*
Y104645D01*
X64247Y104355D01*
X64800Y105116D01*
X54800D02*
X54247Y105876D01*
X53353Y105586D01*
Y104645D01*
X54247Y104355D01*
X54800Y105116D01*
X44800D02*
X44247Y105876D01*
X43353Y105586D01*
Y104645D01*
X44247Y104355D01*
X44800Y105116D01*
X274800Y289261D02*
X274247Y290021D01*
X273353Y289731D01*
Y288790D01*
X274247Y288500D01*
X274800Y289261D01*
X235300D02*
X234747Y290021D01*
X233853Y289731D01*
Y288790D01*
X234747Y288500D01*
X235300Y289261D01*
X69800Y34500D02*
X69247Y35261D01*
X68353Y34970D01*
Y34030D01*
X69247Y33739D01*
X69800Y34500D01*
X59800D02*
X59247Y35261D01*
X58353Y34970D01*
Y34030D01*
X59247Y33739D01*
X59800Y34500D01*
X79800D02*
X79247Y35261D01*
X78353Y34970D01*
Y34030D01*
X79247Y33739D01*
X79800Y34500D01*
X89800D02*
X89247Y35261D01*
X88353Y34970D01*
Y34030D01*
X89247Y33739D01*
X89800Y34500D01*
D152*
X274400Y289261D02*
X273800Y289607D01*
Y288914D01*
X274400Y289261D01*
X234900D02*
X234300Y289607D01*
Y288914D01*
X234900Y289261D01*
M02*
