G04*
G04 #@! TF.GenerationSoftware,Altium Limited,Altium Designer,22.3.1 (43)*
G04*
G04 Layer_Color=32896*
%FSLAX25Y25*%
%MOIN*%
G70*
G04*
G04 #@! TF.SameCoordinates,02BA5850-5A12-481F-9A08-F1AC3C9BE478*
G04*
G04*
G04 #@! TF.FilePolarity,Positive*
G04*
G01*
G75*
%ADD10C,0.01000*%
%ADD13C,0.00600*%
%ADD16C,0.00800*%
G36*
X379357Y365099D02*
X379353Y364954D01*
X379349Y364817D01*
Y364684D01*
X379346Y364558D01*
X379342Y364440D01*
Y364325D01*
Y364225D01*
X379338Y364133D01*
Y364052D01*
Y363981D01*
Y363926D01*
Y363903D01*
Y363885D01*
Y363870D01*
Y363859D01*
Y363855D01*
Y363852D01*
Y362512D01*
X379342Y362335D01*
X379353Y362161D01*
X379368Y361991D01*
X379394Y361828D01*
X379420Y361669D01*
X379453Y361513D01*
X379494Y361365D01*
X379535Y361221D01*
X379583Y361080D01*
X379631Y360947D01*
X379682Y360818D01*
X379738Y360692D01*
X379794Y360577D01*
X379849Y360462D01*
X379908Y360355D01*
X379967Y360255D01*
X380027Y360159D01*
X380086Y360067D01*
X380141Y359985D01*
X380197Y359904D01*
X380252Y359834D01*
X380304Y359767D01*
X380352Y359704D01*
X380400Y359648D01*
X380441Y359600D01*
X380482Y359560D01*
X380515Y359523D01*
X380541Y359493D01*
X380567Y359471D01*
X380582Y359456D01*
X380593Y359445D01*
X380596Y359441D01*
X380511Y359360D01*
X380371Y359464D01*
X380238Y359575D01*
X380112Y359689D01*
X379997Y359808D01*
X379886Y359930D01*
X379786Y360052D01*
X379694Y360181D01*
X379608Y360311D01*
X379531Y360440D01*
X379457Y360570D01*
X379390Y360703D01*
X379331Y360833D01*
X379275Y360966D01*
X379227Y361091D01*
X379183Y361217D01*
X379146Y361343D01*
X379109Y361465D01*
X379079Y361580D01*
X379053Y361695D01*
X379031Y361802D01*
X379013Y361902D01*
X378998Y361998D01*
X378983Y362090D01*
X378976Y362172D01*
X378965Y362246D01*
X378961Y362316D01*
X378957Y362372D01*
X378954Y362420D01*
X378950Y362460D01*
Y362490D01*
Y362505D01*
Y362512D01*
Y364943D01*
X377636D01*
Y360107D01*
X377633Y360030D01*
X377614Y359959D01*
X377592Y359900D01*
X377562Y359852D01*
X377525Y359808D01*
X377485Y359771D01*
X377440Y359741D01*
X377396Y359719D01*
X377351Y359700D01*
X377311Y359685D01*
X377270Y359678D01*
X377233Y359671D01*
X377203Y359667D01*
X377181Y359663D01*
X376574D01*
X376512Y359667D01*
X376449Y359671D01*
X376390Y359678D01*
X376334Y359685D01*
X376290Y359693D01*
X376253Y359700D01*
X376230Y359708D01*
X376223D01*
X376190Y359719D01*
X376156Y359737D01*
X376123Y359756D01*
X376094Y359782D01*
X376034Y359845D01*
X375982Y359911D01*
X375938Y359974D01*
X375920Y360004D01*
X375905Y360030D01*
X375890Y360052D01*
X375883Y360067D01*
X375875Y360078D01*
Y360081D01*
X375916Y360104D01*
X375949Y360126D01*
X376012Y360178D01*
X376060Y360229D01*
X376097Y360281D01*
X376127Y360329D01*
X376145Y360366D01*
X376149Y360381D01*
X376153Y360392D01*
X376156Y360396D01*
Y360400D01*
X376167Y360444D01*
X376175Y360496D01*
X376182Y360555D01*
X376190Y360618D01*
X376197Y360755D01*
X376204Y360892D01*
X376208Y360958D01*
Y361021D01*
X376212Y361077D01*
Y361125D01*
Y361165D01*
Y361199D01*
Y361217D01*
Y361225D01*
X376349D01*
X376356Y361084D01*
X376360Y360958D01*
X376367Y360844D01*
X376375Y360740D01*
X376382Y360648D01*
X376390Y360566D01*
X376397Y360492D01*
X376401Y360429D01*
X376408Y360377D01*
X376415Y360333D01*
X376419Y360296D01*
X376423Y360270D01*
X376430Y360248D01*
Y360233D01*
X376434Y360226D01*
Y360222D01*
X376445Y360181D01*
X376460Y360148D01*
X376471Y360118D01*
X376489Y360092D01*
X376504Y360074D01*
X376519Y360055D01*
X376552Y360030D01*
X376582Y360011D01*
X376608Y360004D01*
X376623Y360000D01*
X376963D01*
X377011Y360004D01*
X377056Y360011D01*
X377093Y360026D01*
X377126Y360044D01*
X377152Y360063D01*
X377174Y360089D01*
X377192Y360115D01*
X377207Y360141D01*
X377229Y360189D01*
X377240Y360233D01*
Y360252D01*
X377244Y360266D01*
Y360274D01*
Y360278D01*
Y364828D01*
X376963Y364999D01*
X377411Y365387D01*
X377662Y365110D01*
X378950D01*
X379368Y365387D01*
X379357Y365099D01*
D02*
G37*
G36*
X427501Y365276D02*
X432000D01*
X431749Y365025D01*
X431631Y365054D01*
X431516Y365073D01*
X431401Y365088D01*
X431297Y365099D01*
X431253Y365102D01*
X431209Y365106D01*
X431172D01*
X431142Y365110D01*
X429570D01*
X429577Y364951D01*
X429584Y364788D01*
X429599Y364462D01*
X429607Y364303D01*
X429618Y364148D01*
X429625Y364000D01*
X429636Y363859D01*
X429644Y363730D01*
X429655Y363608D01*
X429658Y363552D01*
X429662Y363504D01*
X429666Y363456D01*
Y363411D01*
X429670Y363374D01*
X429673Y363337D01*
Y363308D01*
X429677Y363282D01*
Y363263D01*
X429681Y363249D01*
Y363241D01*
Y363238D01*
X432474D01*
X432223Y362986D01*
X432104Y363016D01*
X431989Y363034D01*
X431875Y363049D01*
X431771Y363060D01*
X431727Y363064D01*
X431682Y363067D01*
X431645D01*
X431616Y363071D01*
X429710D01*
X429751Y362834D01*
X429799Y362609D01*
X429854Y362394D01*
X429917Y362194D01*
X429980Y362005D01*
X430047Y361828D01*
X430114Y361665D01*
X430147Y361591D01*
X430180Y361521D01*
X430213Y361450D01*
X430247Y361387D01*
X430276Y361325D01*
X430306Y361269D01*
X430336Y361217D01*
X430361Y361169D01*
X430387Y361125D01*
X430409Y361084D01*
X430432Y361051D01*
X430450Y361021D01*
X430465Y360992D01*
X430480Y360973D01*
X430491Y360955D01*
X430498Y360944D01*
X430506Y360936D01*
Y360932D01*
X430565Y360855D01*
X430628Y360777D01*
X430694Y360699D01*
X430765Y360622D01*
X430913Y360477D01*
X431072Y360337D01*
X431235Y360204D01*
X431401Y360078D01*
X431568Y359963D01*
X431730Y359856D01*
X431886Y359759D01*
X432030Y359671D01*
X432097Y359634D01*
X432160Y359597D01*
X432219Y359563D01*
X432274Y359534D01*
X432326Y359508D01*
X432371Y359482D01*
X432411Y359464D01*
X432441Y359445D01*
X432467Y359434D01*
X432489Y359423D01*
X432500Y359419D01*
X432504Y359415D01*
X432474Y359301D01*
X432322Y359360D01*
X432178Y359419D01*
X432037Y359482D01*
X431901Y359541D01*
X431771Y359604D01*
X431649Y359667D01*
X431531Y359730D01*
X431416Y359797D01*
X431309Y359859D01*
X431209Y359922D01*
X431109Y359985D01*
X431016Y360044D01*
X430931Y360107D01*
X430850Y360167D01*
X430772Y360222D01*
X430698Y360281D01*
X430631Y360333D01*
X430569Y360388D01*
X430509Y360437D01*
X430458Y360485D01*
X430409Y360529D01*
X430365Y360574D01*
X430324Y360614D01*
X430287Y360648D01*
X430258Y360681D01*
X430232Y360710D01*
X430210Y360736D01*
X430191Y360758D01*
X430176Y360773D01*
X430165Y360784D01*
X430162Y360792D01*
X430158Y360795D01*
X430036Y360966D01*
X429928Y361147D01*
X429829Y361332D01*
X429740Y361521D01*
X429658Y361713D01*
X429588Y361902D01*
X429525Y362087D01*
X429473Y362261D01*
X429425Y362427D01*
X429407Y362509D01*
X429388Y362583D01*
X429374Y362653D01*
X429359Y362719D01*
X429344Y362782D01*
X429333Y362838D01*
X429322Y362890D01*
X429314Y362938D01*
X429307Y362975D01*
X429303Y363008D01*
X429296Y363034D01*
Y363056D01*
X429292Y363067D01*
Y363071D01*
X429040D01*
Y360081D01*
X429033Y360000D01*
X429015Y359926D01*
X428985Y359863D01*
X428948Y359808D01*
X428904Y359763D01*
X428856Y359722D01*
X428800Y359693D01*
X428745Y359667D01*
X428693Y359648D01*
X428637Y359634D01*
X428589Y359623D01*
X428545Y359615D01*
X428508Y359612D01*
X428478Y359608D01*
X426972D01*
X426835Y359604D01*
X426713Y359612D01*
X426602Y359630D01*
X426502Y359660D01*
X426410Y359693D01*
X426332Y359734D01*
X426262Y359778D01*
X426199Y359822D01*
X426147Y359871D01*
X426106Y359919D01*
X426069Y359959D01*
X426044Y360000D01*
X426021Y360033D01*
X426007Y360059D01*
X425999Y360074D01*
X425995Y360081D01*
X426036Y360085D01*
X426073Y360096D01*
X426106Y360111D01*
X426140Y360137D01*
X426169Y360163D01*
X426199Y360196D01*
X426225Y360237D01*
X426247Y360278D01*
X426288Y360374D01*
X426321Y360481D01*
X426351Y360592D01*
X426369Y360710D01*
X426388Y360829D01*
X426399Y360940D01*
X426406Y361047D01*
X426410Y361143D01*
X426413Y361184D01*
Y361225D01*
Y361258D01*
Y361284D01*
Y361310D01*
Y361325D01*
Y361336D01*
Y361339D01*
X426554D01*
X426558Y361199D01*
X426565Y361069D01*
X426573Y360947D01*
X426576Y360840D01*
X426584Y360744D01*
X426591Y360655D01*
X426599Y360577D01*
X426606Y360507D01*
X426610Y360448D01*
X426617Y360396D01*
X426621Y360355D01*
X426628Y360322D01*
X426632Y360296D01*
Y360278D01*
X426636Y360266D01*
Y360263D01*
X426650Y360211D01*
X426669Y360167D01*
X426691Y360126D01*
X426721Y360092D01*
X426750Y360063D01*
X426784Y360037D01*
X426817Y360015D01*
X426854Y359996D01*
X426917Y359970D01*
X426946Y359959D01*
X426976Y359956D01*
X426994Y359948D01*
X427013D01*
X427024Y359945D01*
X428252D01*
X428323Y359952D01*
X428382Y359967D01*
X428437Y359985D01*
X428482Y360011D01*
X428519Y360037D01*
X428552Y360070D01*
X428578Y360100D01*
X428600Y360133D01*
X428615Y360167D01*
X428626Y360196D01*
X428637Y360222D01*
X428641Y360244D01*
X428645Y360263D01*
X428648Y360274D01*
Y360278D01*
Y363071D01*
X426132D01*
X426776Y363711D01*
X427250Y363238D01*
X429262D01*
X429255Y363352D01*
X429248Y363467D01*
X429240Y363574D01*
X429233Y363678D01*
X429225Y363778D01*
X429222Y363878D01*
X429214Y363970D01*
X429211Y364059D01*
X429203Y364144D01*
X429200Y364229D01*
X429188Y364381D01*
X429181Y364521D01*
X429174Y364644D01*
X429170Y364755D01*
X429163Y364847D01*
X429159Y364928D01*
X429155Y364995D01*
Y365043D01*
X429151Y365080D01*
Y365102D01*
Y365110D01*
X426495D01*
X427083Y365698D01*
X427501Y365276D01*
D02*
G37*
G36*
X370610Y365709D02*
X370603Y365528D01*
X370599Y365446D01*
Y365365D01*
X370595Y365287D01*
Y365217D01*
Y365150D01*
X370592Y365095D01*
Y365043D01*
Y364999D01*
Y364965D01*
Y364939D01*
Y364925D01*
Y364917D01*
X371543D01*
Y365417D01*
X371317Y365587D01*
X371931Y365864D01*
X371927Y365761D01*
X371924Y365665D01*
X371920Y365568D01*
X371916Y365480D01*
X371913Y365398D01*
Y365321D01*
X371909Y365247D01*
Y365180D01*
Y365121D01*
X371905Y365069D01*
Y365025D01*
Y364988D01*
Y364958D01*
Y364936D01*
Y364921D01*
Y364917D01*
X373078D01*
X372856Y364692D01*
X372604Y364751D01*
X371905D01*
Y364606D01*
X371909Y364473D01*
X371913Y364407D01*
Y364348D01*
X371916Y364292D01*
Y364240D01*
X371920Y364192D01*
X371924Y364148D01*
Y364111D01*
X371927Y364081D01*
Y364055D01*
X371931Y364037D01*
Y364026D01*
Y364022D01*
X371543Y364218D01*
Y364751D01*
X370592D01*
Y364077D01*
X370199Y364218D01*
X370211Y364303D01*
X370218Y364396D01*
X370222Y364484D01*
X370225Y364569D01*
Y364606D01*
X370229Y364640D01*
Y364673D01*
Y364699D01*
Y364721D01*
Y364736D01*
Y364747D01*
Y364751D01*
X368830D01*
X369334Y365250D01*
X369670Y364917D01*
X370229D01*
Y365391D01*
X369977Y365587D01*
X370618Y365894D01*
X370610Y365709D01*
D02*
G37*
G36*
X416823Y365724D02*
X416760Y365628D01*
X416701Y365531D01*
X416653Y365443D01*
X416608Y365358D01*
X416572Y365276D01*
X416538Y365198D01*
X416512Y365128D01*
X416490Y365065D01*
X416472Y365006D01*
X416461Y364954D01*
X416449Y364910D01*
X416442Y364873D01*
X416435Y364843D01*
Y364821D01*
X416431Y364806D01*
Y364803D01*
X417966D01*
X417719Y364551D01*
X417600Y364581D01*
X417482Y364599D01*
X417367Y364614D01*
X417263Y364625D01*
X417219Y364629D01*
X417175Y364632D01*
X417138D01*
X417108Y364636D01*
X415732D01*
X415754Y364529D01*
X415783Y364418D01*
X415846Y364192D01*
X415917Y363966D01*
X415950Y363859D01*
X415987Y363755D01*
X416020Y363659D01*
X416050Y363574D01*
X416079Y363496D01*
X416105Y363426D01*
X416124Y363371D01*
X416131Y363349D01*
X416139Y363330D01*
X416146Y363315D01*
X416150Y363304D01*
X416153Y363300D01*
Y363297D01*
X418192D01*
X417941Y363045D01*
X417822Y363075D01*
X417707Y363093D01*
X417593Y363108D01*
X417489Y363119D01*
X417445Y363123D01*
X417400Y363126D01*
X417363D01*
X417334Y363130D01*
X416461D01*
Y362150D01*
X417941D01*
X417719Y361924D01*
X417467Y361983D01*
X416461D01*
Y360222D01*
X416464Y360181D01*
X416468Y360148D01*
X416475Y360118D01*
X416490Y360092D01*
X416501Y360074D01*
X416516Y360055D01*
X416549Y360030D01*
X416583Y360011D01*
X416612Y360004D01*
X416634Y360000D01*
X416679D01*
X416723Y360004D01*
X416771Y360007D01*
X416827Y360011D01*
X416938Y360026D01*
X417053Y360041D01*
X417108Y360048D01*
X417156Y360055D01*
X417204Y360063D01*
X417245Y360070D01*
X417278Y360074D01*
X417304Y360078D01*
X417319Y360081D01*
X417326D01*
Y359974D01*
X417263Y359952D01*
X417204Y359930D01*
X417149Y359908D01*
X417097Y359885D01*
X417001Y359837D01*
X416923Y359793D01*
X416853Y359745D01*
X416797Y359697D01*
X416753Y359652D01*
X416716Y359612D01*
X416686Y359571D01*
X416664Y359534D01*
X416649Y359501D01*
X416638Y359471D01*
X416631Y359449D01*
X416627Y359430D01*
Y359419D01*
Y359415D01*
X416535Y359456D01*
X416453Y359497D01*
X416383Y359545D01*
X416320Y359593D01*
X416268Y359645D01*
X416227Y359697D01*
X416190Y359745D01*
X416164Y359793D01*
X416142Y359841D01*
X416127Y359885D01*
X416113Y359922D01*
X416105Y359959D01*
X416102Y359985D01*
X416098Y360007D01*
Y360022D01*
Y360026D01*
Y361983D01*
X414614D01*
X415117Y362483D01*
X415454Y362150D01*
X416098D01*
Y363130D01*
X414448D01*
X414951Y363630D01*
X415288Y363297D01*
X416013D01*
X415965Y363374D01*
X415920Y363445D01*
X415880Y363515D01*
X415839Y363578D01*
X415802Y363641D01*
X415765Y363696D01*
X415732Y363748D01*
X415702Y363792D01*
X415676Y363837D01*
X415650Y363874D01*
X415628Y363903D01*
X415613Y363929D01*
X415598Y363952D01*
X415587Y363966D01*
X415584Y363974D01*
X415580Y363978D01*
X415547Y364026D01*
X415513Y364070D01*
X415476Y364111D01*
X415443Y364144D01*
X415380Y364207D01*
X415325Y364255D01*
X415273Y364288D01*
X415236Y364311D01*
X415221Y364318D01*
X415210Y364325D01*
X415206Y364329D01*
X415203D01*
X415676Y364636D01*
X414699D01*
X415203Y365136D01*
X415539Y364803D01*
X416235D01*
X416205Y364840D01*
X416179Y364873D01*
X416139Y364939D01*
X416109Y364995D01*
X416090Y365043D01*
X416076Y365084D01*
X416072Y365113D01*
X416068Y365132D01*
Y365139D01*
X416072Y365165D01*
X416083Y365195D01*
X416102Y365228D01*
X416116Y365265D01*
X416135Y365295D01*
X416153Y365321D01*
X416164Y365339D01*
X416168Y365347D01*
X416190Y365376D01*
X416220Y365409D01*
X416261Y365446D01*
X416301Y365480D01*
X416350Y365517D01*
X416401Y365554D01*
X416505Y365624D01*
X416553Y365657D01*
X416605Y365687D01*
X416649Y365713D01*
X416686Y365739D01*
X416719Y365757D01*
X416745Y365772D01*
X416760Y365779D01*
X416768Y365783D01*
X416823Y365724D01*
D02*
G37*
G36*
X424297Y365635D02*
X424338Y365465D01*
X424382Y365298D01*
X424427Y365136D01*
X424475Y364980D01*
X424523Y364828D01*
X424571Y364681D01*
X424619Y364540D01*
X424667Y364403D01*
X424715Y364270D01*
X424763Y364144D01*
X424815Y364022D01*
X424863Y363907D01*
X424911Y363796D01*
X424956Y363689D01*
X425004Y363589D01*
X425048Y363496D01*
X425089Y363408D01*
X425133Y363326D01*
X425170Y363249D01*
X425211Y363175D01*
X425244Y363112D01*
X425278Y363053D01*
X425307Y362997D01*
X425337Y362949D01*
X425359Y362908D01*
X425381Y362875D01*
X425400Y362845D01*
X425415Y362823D01*
X425426Y362808D01*
X425429Y362797D01*
X425433Y362793D01*
X425348Y362738D01*
X425237Y362860D01*
X425141Y362971D01*
X425052Y363071D01*
X425015Y363115D01*
X424982Y363160D01*
X424948Y363197D01*
X424922Y363230D01*
X424900Y363256D01*
X424882Y363282D01*
X424863Y363300D01*
X424852Y363315D01*
X424848Y363323D01*
X424845Y363326D01*
X424256D01*
Y362205D01*
X425318D01*
X425067Y361954D01*
X424948Y361983D01*
X424834Y362002D01*
X424719Y362017D01*
X424615Y362028D01*
X424571Y362031D01*
X424527Y362035D01*
X424489D01*
X424460Y362039D01*
X424256D01*
Y360474D01*
X424253Y360429D01*
X424256Y360385D01*
X424267Y360307D01*
X424290Y360241D01*
X424316Y360185D01*
X424345Y360141D01*
X424371Y360107D01*
X424390Y360089D01*
X424393Y360081D01*
X424397D01*
X424064Y359663D01*
X424049Y359693D01*
X424031Y359730D01*
X424009Y359767D01*
X423983Y359808D01*
X423953Y359852D01*
X423920Y359900D01*
X423842Y360000D01*
X423753Y360104D01*
X423661Y360215D01*
X423561Y360326D01*
X423461Y360437D01*
X423365Y360540D01*
X423269Y360640D01*
X423183Y360733D01*
X423106Y360814D01*
X423072Y360847D01*
X423039Y360881D01*
X423013Y360907D01*
X422991Y360929D01*
X422972Y360947D01*
X422958Y360962D01*
X422950Y360969D01*
X422947Y360973D01*
X423028Y361058D01*
X423894Y360444D01*
Y362039D01*
X422751D01*
X423169Y362538D01*
X423476Y362205D01*
X423894D01*
Y363326D01*
X422832D01*
X423280Y363826D01*
X423642Y363493D01*
X424760D01*
X424675Y363645D01*
X424586Y363800D01*
X424504Y363955D01*
X424464Y364029D01*
X424423Y364100D01*
X424390Y364166D01*
X424356Y364225D01*
X424327Y364277D01*
X424304Y364325D01*
X424282Y364362D01*
X424267Y364392D01*
X424260Y364407D01*
X424256Y364414D01*
X422665D01*
X423083Y364999D01*
X423476Y364581D01*
X424201D01*
X424160Y364692D01*
X424120Y364799D01*
X424083Y364891D01*
X424049Y364977D01*
X424034Y365010D01*
X424020Y365043D01*
X424009Y365073D01*
X423997Y365095D01*
X423990Y365113D01*
X423983Y365128D01*
X423979Y365136D01*
Y365139D01*
X423957Y365184D01*
X423935Y365224D01*
X423883Y365298D01*
X423835Y365358D01*
X423783Y365402D01*
X423738Y365435D01*
X423705Y365458D01*
X423690Y365465D01*
X423679Y365472D01*
X423675Y365476D01*
X423672D01*
X424256Y365813D01*
X424297Y365635D01*
D02*
G37*
G36*
X389066Y365557D02*
X388992Y365465D01*
X388921Y365376D01*
X388859Y365295D01*
X388803Y365213D01*
X388751Y365139D01*
X388707Y365069D01*
X388666Y365006D01*
X388629Y364951D01*
X388599Y364895D01*
X388574Y364851D01*
X388551Y364810D01*
X388537Y364777D01*
X388522Y364751D01*
X388514Y364732D01*
X388507Y364721D01*
Y364718D01*
X388496Y364677D01*
X388485Y364644D01*
X388470Y364614D01*
X388459Y364588D01*
X388444Y364569D01*
X388429Y364551D01*
X388403Y364525D01*
X388377Y364507D01*
X388359Y364499D01*
X388344Y364495D01*
X388340D01*
X388318Y364499D01*
X388296Y364514D01*
X388270Y364536D01*
X388248Y364558D01*
X388229Y364581D01*
X388215Y364603D01*
X388204Y364618D01*
X388200Y364621D01*
X388170Y364669D01*
X388152Y364718D01*
X388137Y364762D01*
X388126Y364803D01*
X388119Y364836D01*
X388115Y364865D01*
Y364880D01*
Y364888D01*
X388119Y364921D01*
X388122Y364958D01*
X388133Y364995D01*
X388141Y365028D01*
X388152Y365062D01*
X388163Y365088D01*
X388167Y365102D01*
X388170Y365110D01*
X388178Y365125D01*
X388189Y365139D01*
X388204Y365154D01*
X388222Y365173D01*
X388266Y365210D01*
X388326Y365254D01*
X388389Y365295D01*
X388459Y365339D01*
X388537Y365384D01*
X388611Y365428D01*
X388685Y365472D01*
X388759Y365509D01*
X388825Y365546D01*
X388888Y365580D01*
X388936Y365605D01*
X388977Y365624D01*
X388992Y365631D01*
X389003Y365639D01*
X389006Y365642D01*
X389010D01*
X389066Y365557D01*
D02*
G37*
G36*
X364575Y365757D02*
X364572Y365639D01*
X364568Y365513D01*
X364564Y365380D01*
X364561Y365110D01*
X364557Y364977D01*
Y364847D01*
Y364725D01*
X364553Y364614D01*
Y364510D01*
Y364466D01*
Y364422D01*
Y364385D01*
Y364351D01*
Y364318D01*
Y364296D01*
Y364274D01*
Y364259D01*
Y364251D01*
Y364248D01*
X365782D01*
X365530Y363996D01*
X365412Y364026D01*
X365297Y364044D01*
X365182Y364059D01*
X365079Y364070D01*
X365034Y364074D01*
X364990Y364077D01*
X364953D01*
X364923Y364081D01*
X364553D01*
Y363889D01*
X364557Y363704D01*
Y363526D01*
X364561Y363356D01*
X364564Y363193D01*
X364572Y363041D01*
X364575Y362901D01*
X364579Y362771D01*
X364586Y362653D01*
X364590Y362546D01*
X364594Y362453D01*
X364598Y362412D01*
X364601Y362379D01*
Y362346D01*
X364605Y362316D01*
Y362290D01*
Y362272D01*
X364609Y362257D01*
Y362246D01*
Y362239D01*
Y362235D01*
X366285D01*
X366033Y361983D01*
X365915Y362013D01*
X365800Y362031D01*
X365685Y362046D01*
X365582Y362057D01*
X365537Y362061D01*
X365493Y362065D01*
X365456D01*
X365426Y362068D01*
X364638D01*
X364668Y361891D01*
X364709Y361717D01*
X364757Y361558D01*
X364809Y361406D01*
X364868Y361265D01*
X364927Y361132D01*
X364990Y361014D01*
X365053Y360903D01*
X365112Y360807D01*
X365171Y360721D01*
X365223Y360648D01*
X365271Y360585D01*
X365308Y360537D01*
X365338Y360503D01*
X365356Y360481D01*
X365364Y360474D01*
X365478Y360363D01*
X365604Y360252D01*
X365734Y360148D01*
X365870Y360052D01*
X366011Y359959D01*
X366152Y359871D01*
X366288Y359789D01*
X366422Y359715D01*
X366547Y359648D01*
X366662Y359589D01*
X366770Y359538D01*
X366818Y359515D01*
X366858Y359497D01*
X366899Y359478D01*
X366936Y359460D01*
X366966Y359449D01*
X366991Y359438D01*
X367014Y359426D01*
X367028Y359419D01*
X367036Y359415D01*
X367040D01*
X366954Y359301D01*
X366736Y359382D01*
X366529Y359464D01*
X366337Y359549D01*
X366155Y359637D01*
X365989Y359722D01*
X365837Y359804D01*
X365697Y359885D01*
X365571Y359963D01*
X365460Y360033D01*
X365360Y360100D01*
X365278Y360159D01*
X365241Y360185D01*
X365208Y360211D01*
X365182Y360229D01*
X365156Y360252D01*
X365134Y360266D01*
X365116Y360281D01*
X365105Y360292D01*
X365093Y360300D01*
X365086Y360307D01*
X364964Y360422D01*
X364857Y360551D01*
X364757Y360688D01*
X364672Y360829D01*
X364594Y360973D01*
X364524Y361121D01*
X364464Y361265D01*
X364413Y361406D01*
X364372Y361539D01*
X364335Y361661D01*
X364305Y361776D01*
X364294Y361824D01*
X364283Y361872D01*
X364272Y361917D01*
X364265Y361954D01*
X364261Y361987D01*
X364253Y362013D01*
X364250Y362035D01*
Y362050D01*
X364246Y362061D01*
Y362065D01*
X364050D01*
X364024Y361939D01*
X363995Y361813D01*
X363958Y361687D01*
X363917Y361565D01*
X363872Y361443D01*
X363824Y361328D01*
X363776Y361221D01*
X363728Y361117D01*
X363684Y361021D01*
X363639Y360936D01*
X363599Y360858D01*
X363562Y360792D01*
X363532Y360740D01*
X363510Y360703D01*
X363502Y360688D01*
X363495Y360677D01*
X363491Y360673D01*
Y360670D01*
X363403Y360537D01*
X363310Y360407D01*
X363210Y360281D01*
X363106Y360159D01*
X362999Y360044D01*
X362896Y359937D01*
X362792Y359837D01*
X362696Y359745D01*
X362600Y359660D01*
X362514Y359582D01*
X362433Y359519D01*
X362367Y359464D01*
X362311Y359419D01*
X362289Y359401D01*
X362270Y359386D01*
X362252Y359375D01*
X362241Y359367D01*
X362237Y359360D01*
X362233D01*
X362204Y359419D01*
X362167Y359471D01*
X362122Y359515D01*
X362074Y359556D01*
X362022Y359593D01*
X361971Y359623D01*
X361915Y359645D01*
X361860Y359667D01*
X361808Y359682D01*
X361760Y359697D01*
X361712Y359704D01*
X361675Y359711D01*
X361641Y359719D01*
X361615Y359722D01*
X361593D01*
Y359834D01*
X361749Y359874D01*
X361893Y359922D01*
X362034Y359978D01*
X362167Y360037D01*
X362293Y360100D01*
X362411Y360163D01*
X362518Y360229D01*
X362618Y360296D01*
X362707Y360355D01*
X362788Y360414D01*
X362855Y360470D01*
X362914Y360518D01*
X362959Y360555D01*
X362992Y360585D01*
X363010Y360603D01*
X363018Y360611D01*
X363125Y360725D01*
X363225Y360844D01*
X363317Y360962D01*
X363403Y361088D01*
X363484Y361210D01*
X363558Y361332D01*
X363625Y361447D01*
X363684Y361561D01*
X363736Y361665D01*
X363780Y361761D01*
X363821Y361850D01*
X363854Y361924D01*
X363865Y361957D01*
X363876Y361983D01*
X363887Y362009D01*
X363895Y362031D01*
X363902Y362046D01*
X363906Y362057D01*
X363909Y362065D01*
Y362068D01*
X361564D01*
X362093Y362597D01*
X362459Y362235D01*
X362570D01*
Y363966D01*
X362318Y364192D01*
X362792Y364555D01*
X363018Y364248D01*
X364161D01*
Y365365D01*
X363854Y365587D01*
X364579Y365868D01*
X364575Y365757D01*
D02*
G37*
G36*
X374162Y365824D02*
Y365783D01*
X374158Y365735D01*
Y365680D01*
X374155Y365568D01*
X374151Y365443D01*
X374147Y365310D01*
Y365173D01*
X374144Y365032D01*
Y364895D01*
Y364762D01*
X374140Y364636D01*
Y364521D01*
Y364470D01*
Y364422D01*
Y364377D01*
Y364336D01*
Y364303D01*
Y364274D01*
Y364248D01*
Y364233D01*
Y364222D01*
Y364218D01*
X375313D01*
X375091Y363992D01*
X374839Y364052D01*
X374195D01*
X374255Y363755D01*
X374325Y363467D01*
X374403Y363186D01*
X374491Y362916D01*
X374584Y362657D01*
X374632Y362534D01*
X374680Y362412D01*
X374728Y362298D01*
X374776Y362183D01*
X374824Y362076D01*
X374872Y361972D01*
X374921Y361872D01*
X374965Y361780D01*
X375009Y361691D01*
X375054Y361606D01*
X375095Y361528D01*
X375132Y361454D01*
X375168Y361387D01*
X375202Y361328D01*
X375231Y361273D01*
X375261Y361225D01*
X375283Y361184D01*
X375305Y361151D01*
X375320Y361125D01*
X375331Y361103D01*
X375339Y361091D01*
X375342Y361088D01*
X375283Y361032D01*
X375146Y361191D01*
X375017Y361354D01*
X374898Y361513D01*
X374787Y361676D01*
X374684Y361831D01*
X374591Y361983D01*
X374506Y362131D01*
X374429Y362268D01*
X374362Y362398D01*
X374303Y362512D01*
X374277Y362568D01*
X374255Y362616D01*
X374232Y362664D01*
X374214Y362705D01*
X374195Y362742D01*
X374181Y362779D01*
X374169Y362805D01*
X374158Y362830D01*
X374151Y362849D01*
X374144Y362864D01*
X374140Y362871D01*
Y362634D01*
Y362401D01*
Y362179D01*
Y361968D01*
Y361765D01*
X374144Y361573D01*
Y361387D01*
Y361210D01*
Y361043D01*
X374147Y360884D01*
Y360733D01*
Y360592D01*
Y360459D01*
X374151Y360333D01*
Y360215D01*
Y360107D01*
X374155Y360004D01*
Y359911D01*
Y359822D01*
X374158Y359741D01*
Y359671D01*
Y359604D01*
X374162Y359545D01*
Y359493D01*
Y359449D01*
Y359408D01*
X374166Y359378D01*
Y359349D01*
Y359330D01*
Y359315D01*
Y359308D01*
Y359304D01*
X373748Y359471D01*
X373751Y359552D01*
Y359645D01*
X373755Y359748D01*
X373759Y359863D01*
Y359985D01*
X373762Y360115D01*
Y360248D01*
X373766Y360392D01*
Y360537D01*
Y360688D01*
X373770Y360999D01*
X373774Y361317D01*
Y361628D01*
Y361783D01*
Y361931D01*
Y362079D01*
X373777Y362220D01*
Y362357D01*
Y362483D01*
Y362605D01*
Y362716D01*
Y362816D01*
Y362908D01*
Y362990D01*
Y363056D01*
Y363108D01*
Y363130D01*
Y363149D01*
Y363163D01*
Y363175D01*
Y363178D01*
Y363182D01*
X373711Y363119D01*
X373648Y363053D01*
X373592Y362986D01*
X373537Y362919D01*
X373489Y362853D01*
X373441Y362790D01*
X373400Y362727D01*
X373363Y362668D01*
X373330Y362612D01*
X373300Y362560D01*
X373274Y362516D01*
X373256Y362475D01*
X373241Y362446D01*
X373226Y362420D01*
X373222Y362405D01*
X373219Y362401D01*
X373196Y362346D01*
X373178Y362301D01*
X373159Y362261D01*
X373141Y362224D01*
X373122Y362194D01*
X373108Y362168D01*
X373093Y362150D01*
X373078Y362131D01*
X373056Y362109D01*
X373037Y362098D01*
X373026Y362094D01*
X373023D01*
X373000Y362102D01*
X372978Y362116D01*
X372960Y362142D01*
X372937Y362172D01*
X372923Y362198D01*
X372908Y362224D01*
X372900Y362239D01*
X372897Y362246D01*
X372874Y362301D01*
X372856Y362353D01*
X372845Y362398D01*
X372834Y362438D01*
X372830Y362468D01*
X372826Y362494D01*
Y362509D01*
Y362512D01*
X372834Y362575D01*
X372852Y362638D01*
X372874Y362697D01*
X372904Y362753D01*
X372934Y362797D01*
X372956Y362834D01*
X372974Y362856D01*
X372978Y362860D01*
X372982Y362864D01*
X373015Y362901D01*
X373060Y362938D01*
X373111Y362975D01*
X373170Y363016D01*
X373233Y363056D01*
X373300Y363097D01*
X373437Y363175D01*
X373503Y363212D01*
X373566Y363245D01*
X373622Y363275D01*
X373674Y363300D01*
X373718Y363323D01*
X373748Y363337D01*
X373770Y363349D01*
X373774Y363352D01*
X373777D01*
Y364052D01*
X372630D01*
X373133Y364551D01*
X373470Y364218D01*
X373777D01*
Y365391D01*
X373496Y365587D01*
X374166Y365864D01*
X374162Y365824D01*
D02*
G37*
G36*
X399215Y365250D02*
X399104Y365161D01*
X399004Y365080D01*
X398908Y364999D01*
X398823Y364921D01*
X398749Y364847D01*
X398678Y364777D01*
X398619Y364714D01*
X398564Y364655D01*
X398519Y364603D01*
X398479Y364555D01*
X398445Y364514D01*
X398419Y364477D01*
X398401Y364451D01*
X398386Y364429D01*
X398379Y364418D01*
X398375Y364414D01*
X398353Y364370D01*
X398334Y364333D01*
X398312Y364299D01*
X398293Y364270D01*
X398275Y364244D01*
X398256Y364225D01*
X398223Y364196D01*
X398194Y364177D01*
X398171Y364166D01*
X398157Y364162D01*
X398153D01*
X398131Y364166D01*
X398109Y364181D01*
X398086Y364203D01*
X398064Y364225D01*
X398046Y364248D01*
X398031Y364270D01*
X398020Y364285D01*
X398016Y364288D01*
X397986Y364336D01*
X397968Y364377D01*
X397953Y364418D01*
X397942Y364455D01*
X397935Y364484D01*
X397931Y364507D01*
Y364521D01*
Y364525D01*
X397935Y364562D01*
X397946Y364603D01*
X397960Y364651D01*
X397979Y364695D01*
X397997Y364736D01*
X398012Y364773D01*
X398023Y364795D01*
X398027Y364799D01*
Y364803D01*
X398038Y364821D01*
X398057Y364840D01*
X398079Y364862D01*
X398105Y364884D01*
X398134Y364906D01*
X398171Y364928D01*
X398249Y364973D01*
X398338Y365021D01*
X398434Y365065D01*
X398538Y365113D01*
X398641Y365158D01*
X398745Y365198D01*
X398845Y365239D01*
X398937Y365272D01*
X399019Y365306D01*
X399056Y365317D01*
X399085Y365332D01*
X399115Y365339D01*
X399141Y365350D01*
X399159Y365358D01*
X399174Y365361D01*
X399182Y365365D01*
X399185D01*
X399215Y365250D01*
D02*
G37*
G36*
X381229Y365576D02*
X381222Y365258D01*
Y365102D01*
X381218Y364951D01*
X381214Y364806D01*
Y364669D01*
Y364544D01*
X381211Y364433D01*
Y364329D01*
Y364285D01*
Y364244D01*
Y364207D01*
Y364174D01*
Y364144D01*
Y364122D01*
Y364103D01*
Y364089D01*
Y364081D01*
Y364077D01*
X382383D01*
X382161Y363852D01*
X381910Y363911D01*
X381240D01*
X381281Y363733D01*
X381322Y363556D01*
X381366Y363386D01*
X381414Y363219D01*
X381462Y363053D01*
X381510Y362893D01*
X381562Y362742D01*
X381614Y362590D01*
X381666Y362446D01*
X381717Y362305D01*
X381769Y362168D01*
X381821Y362035D01*
X381873Y361909D01*
X381925Y361791D01*
X381977Y361676D01*
X382025Y361565D01*
X382073Y361461D01*
X382121Y361365D01*
X382165Y361273D01*
X382210Y361188D01*
X382250Y361106D01*
X382291Y361032D01*
X382328Y360966D01*
X382361Y360907D01*
X382391Y360851D01*
X382417Y360803D01*
X382443Y360762D01*
X382461Y360729D01*
X382476Y360703D01*
X382487Y360684D01*
X382494Y360673D01*
X382498Y360670D01*
X382439Y360585D01*
X382291Y360755D01*
X382154Y360932D01*
X382025Y361106D01*
X381906Y361284D01*
X381795Y361461D01*
X381695Y361632D01*
X381603Y361798D01*
X381521Y361954D01*
X381447Y362102D01*
X381384Y362235D01*
X381359Y362298D01*
X381333Y362353D01*
X381311Y362409D01*
X381288Y362457D01*
X381270Y362501D01*
X381255Y362538D01*
X381240Y362572D01*
X381229Y362601D01*
X381222Y362623D01*
X381214Y362638D01*
X381211Y362649D01*
Y362453D01*
Y362257D01*
Y362065D01*
Y361880D01*
Y361702D01*
X381214Y361528D01*
Y361362D01*
Y361203D01*
X381218Y361047D01*
Y360895D01*
Y360755D01*
Y360618D01*
X381222Y360485D01*
Y360363D01*
X381225Y360244D01*
Y360133D01*
Y360026D01*
X381229Y359926D01*
Y359834D01*
Y359748D01*
X381233Y359671D01*
Y359597D01*
Y359530D01*
X381237Y359471D01*
Y359419D01*
Y359375D01*
Y359334D01*
X381240Y359301D01*
Y359278D01*
Y359260D01*
Y359249D01*
Y359245D01*
X380792Y359441D01*
X380796Y359504D01*
Y359582D01*
X380800Y359671D01*
Y359771D01*
X380804Y359878D01*
Y359996D01*
X380807Y360126D01*
Y360259D01*
Y360396D01*
X380811Y360540D01*
Y360688D01*
Y360840D01*
X380815Y361147D01*
Y361458D01*
Y361610D01*
Y361757D01*
X380818Y361906D01*
Y362046D01*
Y362179D01*
Y362309D01*
Y362431D01*
Y362542D01*
Y362646D01*
Y362738D01*
Y362819D01*
Y362886D01*
Y362942D01*
Y362964D01*
Y362982D01*
Y362997D01*
Y363008D01*
Y363012D01*
Y363016D01*
X380733Y362949D01*
X380652Y362879D01*
X380574Y362812D01*
X380504Y362745D01*
X380441Y362679D01*
X380382Y362616D01*
X380326Y362557D01*
X380278Y362501D01*
X380234Y362449D01*
X380197Y362405D01*
X380167Y362364D01*
X380141Y362327D01*
X380119Y362298D01*
X380104Y362279D01*
X380097Y362264D01*
X380093Y362261D01*
X380064Y362213D01*
X380034Y362168D01*
X380008Y362131D01*
X379982Y362098D01*
X379960Y362072D01*
X379942Y362050D01*
X379923Y362031D01*
X379905Y362017D01*
X379879Y361994D01*
X379856Y361983D01*
X379845Y361980D01*
X379842D01*
X379831Y361987D01*
X379819Y362002D01*
X379808Y362024D01*
X379797Y362050D01*
X379790Y362076D01*
X379782Y362098D01*
X379775Y362113D01*
Y362120D01*
X379760Y362172D01*
X379749Y362224D01*
X379742Y362272D01*
X379734Y362313D01*
Y362350D01*
X379731Y362379D01*
Y362394D01*
Y362401D01*
X379734Y362442D01*
X379738Y362479D01*
X379749Y362516D01*
X379764Y362553D01*
X379797Y362612D01*
X379834Y362668D01*
X379875Y362708D01*
X379908Y362738D01*
X379923Y362749D01*
X379934Y362756D01*
X379938Y362764D01*
X379942D01*
X379986Y362790D01*
X380038Y362819D01*
X380101Y362853D01*
X380167Y362886D01*
X380238Y362916D01*
X380311Y362949D01*
X380456Y363012D01*
X380530Y363041D01*
X380596Y363071D01*
X380656Y363093D01*
X380711Y363115D01*
X380755Y363134D01*
X380789Y363145D01*
X380811Y363152D01*
X380815Y363156D01*
X380818D01*
Y363911D01*
X379645D01*
X380123Y364385D01*
X380430Y364077D01*
X380818D01*
Y365446D01*
X380626Y365642D01*
X381240Y365894D01*
X381229Y365576D01*
D02*
G37*
G36*
X367036Y365731D02*
Y365676D01*
X367032Y365617D01*
X367028Y365550D01*
Y365480D01*
X367025Y365402D01*
X367021Y365243D01*
Y365073D01*
X367017Y364899D01*
X367014Y364721D01*
Y364547D01*
Y364377D01*
X367010Y364218D01*
Y364144D01*
Y364074D01*
Y364007D01*
Y363944D01*
Y363889D01*
Y363841D01*
Y363796D01*
Y363759D01*
Y363730D01*
Y363707D01*
Y363693D01*
Y363689D01*
X368157D01*
X367905Y363437D01*
X367787Y363467D01*
X367672Y363485D01*
X367558Y363500D01*
X367454Y363511D01*
X367410Y363515D01*
X367365Y363519D01*
X367328D01*
X367299Y363522D01*
X367010D01*
Y361117D01*
X367143Y361091D01*
X367269Y361069D01*
X367384Y361047D01*
X367491Y361029D01*
X367591Y361010D01*
X367683Y360995D01*
X367769Y360981D01*
X367843Y360966D01*
X367909Y360955D01*
X367965Y360947D01*
X368016Y360940D01*
X368053Y360932D01*
X368087Y360929D01*
X368109Y360925D01*
X368124Y360921D01*
X368127D01*
X367820Y360337D01*
X367806Y360363D01*
X367780Y360392D01*
X367746Y360422D01*
X367709Y360451D01*
X367665Y360481D01*
X367620Y360511D01*
X367521Y360566D01*
X367424Y360618D01*
X367380Y360640D01*
X367339Y360659D01*
X367310Y360673D01*
X367284Y360684D01*
X367265Y360692D01*
X367262Y360696D01*
X367214Y360718D01*
X367158Y360740D01*
X367099Y360766D01*
X367036Y360792D01*
X366899Y360844D01*
X366751Y360899D01*
X366599Y360958D01*
X366440Y361017D01*
X366281Y361077D01*
X366122Y361132D01*
X365974Y361184D01*
X365830Y361236D01*
X365767Y361258D01*
X365704Y361280D01*
X365645Y361302D01*
X365589Y361321D01*
X365541Y361339D01*
X365497Y361354D01*
X365456Y361365D01*
X365423Y361376D01*
X365397Y361387D01*
X365378Y361395D01*
X365367Y361399D01*
X365364D01*
X365389Y361510D01*
X366621Y361228D01*
Y363522D01*
X365389D01*
X365893Y364022D01*
X366229Y363689D01*
X366621D01*
Y365250D01*
X366340Y365476D01*
X367040Y365783D01*
X367036Y365731D01*
D02*
G37*
G36*
X400347Y365476D02*
X400343Y365380D01*
X400340Y365291D01*
X400336Y365202D01*
X400328Y365117D01*
X400325Y365039D01*
X400321Y364969D01*
X400317Y364902D01*
Y364840D01*
X400314Y364788D01*
X400310Y364743D01*
Y364710D01*
X400306Y364684D01*
Y364669D01*
Y364662D01*
X400299Y364569D01*
X400295Y364477D01*
X400280Y364281D01*
X400266Y364085D01*
X400258Y363989D01*
X400251Y363900D01*
X400247Y363815D01*
X400240Y363737D01*
X400236Y363670D01*
X400229Y363608D01*
X400225Y363559D01*
Y363522D01*
X400221Y363511D01*
Y363500D01*
Y363496D01*
Y363493D01*
X401868Y363408D01*
X401590Y363186D01*
X401339Y363267D01*
X400192Y363323D01*
X400173Y363167D01*
X400155Y363019D01*
X400132Y362879D01*
X400110Y362738D01*
X400088Y362609D01*
X400066Y362483D01*
X400044Y362361D01*
X400021Y362246D01*
X399999Y362135D01*
X399973Y362028D01*
X399951Y361928D01*
X399929Y361835D01*
X399907Y361746D01*
X399885Y361661D01*
X399862Y361580D01*
X399840Y361506D01*
X399818Y361436D01*
X399796Y361373D01*
X399777Y361314D01*
X399759Y361258D01*
X399740Y361206D01*
X399722Y361162D01*
X399707Y361121D01*
X399692Y361084D01*
X399681Y361051D01*
X399666Y361021D01*
X399659Y360999D01*
X399648Y360981D01*
X399640Y360966D01*
X399637Y360955D01*
X399633Y360951D01*
Y360947D01*
X399563Y360821D01*
X399489Y360699D01*
X399415Y360585D01*
X399337Y360481D01*
X399259Y360381D01*
X399182Y360289D01*
X399108Y360207D01*
X399037Y360129D01*
X398971Y360063D01*
X398908Y360004D01*
X398852Y359952D01*
X398804Y359911D01*
X398767Y359878D01*
X398738Y359852D01*
X398719Y359837D01*
X398712Y359834D01*
X398612Y359759D01*
X398516Y359693D01*
X398427Y359634D01*
X398349Y359582D01*
X398275Y359534D01*
X398205Y359497D01*
X398146Y359460D01*
X398090Y359434D01*
X398042Y359408D01*
X398001Y359389D01*
X397968Y359375D01*
X397938Y359364D01*
X397920Y359356D01*
X397901Y359349D01*
X397894Y359345D01*
X397890D01*
X397842Y359334D01*
X397801Y359323D01*
X397761Y359312D01*
X397727Y359304D01*
X397698Y359297D01*
X397668Y359293D01*
X397627Y359282D01*
X397598Y359278D01*
X397579Y359275D01*
X397542D01*
X397520Y359282D01*
X397505Y359290D01*
X397494Y359297D01*
X397480Y359319D01*
X397472Y359345D01*
Y359371D01*
X397476Y359393D01*
X397480Y359408D01*
X397483Y359415D01*
X397513Y359501D01*
X397539Y359589D01*
X397557Y359674D01*
X397576Y359752D01*
X397590Y359819D01*
X397598Y359848D01*
X397602Y359871D01*
X397605Y359893D01*
Y359908D01*
X397609Y359915D01*
Y359919D01*
X397613Y359948D01*
X397616Y359978D01*
Y360052D01*
Y360133D01*
Y360226D01*
X397609Y360326D01*
X397605Y360429D01*
X397590Y360636D01*
X397579Y360736D01*
X397572Y360829D01*
X397565Y360914D01*
X397553Y360992D01*
Y361025D01*
X397550Y361054D01*
X397546Y361080D01*
X397542Y361103D01*
Y361121D01*
X397539Y361132D01*
Y361140D01*
Y361143D01*
X397650D01*
X398012Y359919D01*
X398127Y359981D01*
X398238Y360052D01*
X398342Y360129D01*
X398445Y360211D01*
X398545Y360296D01*
X398634Y360381D01*
X398723Y360470D01*
X398800Y360555D01*
X398874Y360636D01*
X398937Y360710D01*
X398993Y360781D01*
X399041Y360844D01*
X399078Y360892D01*
X399108Y360929D01*
X399115Y360944D01*
X399122Y360955D01*
X399130Y360958D01*
Y360962D01*
X399174Y361032D01*
X399219Y361110D01*
X399263Y361191D01*
X399304Y361277D01*
X399378Y361458D01*
X399448Y361647D01*
X399507Y361843D01*
X399563Y362042D01*
X399611Y362242D01*
X399651Y362435D01*
X399688Y362620D01*
X399707Y362708D01*
X399722Y362790D01*
X399733Y362871D01*
X399744Y362945D01*
X399755Y363019D01*
X399766Y363082D01*
X399774Y363141D01*
X399781Y363197D01*
X399785Y363241D01*
X399792Y363278D01*
X399796Y363312D01*
Y363334D01*
X399799Y363349D01*
Y363352D01*
X397539Y363493D01*
X398097Y363966D01*
X398460Y363604D01*
X399829Y363519D01*
X399840Y363626D01*
X399848Y363741D01*
X399859Y363866D01*
X399866Y363996D01*
X399881Y364266D01*
X399888Y364399D01*
X399892Y364529D01*
X399896Y364651D01*
X399903Y364766D01*
X399907Y364869D01*
Y364917D01*
Y364962D01*
X399910Y364999D01*
Y365036D01*
Y365065D01*
X399914Y365091D01*
Y365113D01*
Y365128D01*
Y365136D01*
Y365139D01*
X399688Y365335D01*
X400358Y365672D01*
X400347Y365476D01*
D02*
G37*
G36*
X417408Y364466D02*
X417348Y364370D01*
X417293Y364277D01*
X417245Y364188D01*
X417201Y364107D01*
X417164Y364033D01*
X417130Y363959D01*
X417101Y363896D01*
X417075Y363837D01*
X417053Y363785D01*
X417034Y363737D01*
X417019Y363696D01*
X417008Y363663D01*
X417001Y363637D01*
X416993Y363619D01*
X416990Y363608D01*
Y363604D01*
X416979Y363563D01*
X416967Y363530D01*
X416956Y363500D01*
X416945Y363474D01*
X416934Y363452D01*
X416919Y363434D01*
X416897Y363408D01*
X416879Y363389D01*
X416864Y363382D01*
X416853Y363378D01*
X416849D01*
X416838Y363386D01*
X416819Y363400D01*
X416797Y363422D01*
X416779Y363448D01*
X416760Y363474D01*
X416742Y363496D01*
X416731Y363511D01*
X416727Y363519D01*
X416694Y363570D01*
X416668Y363622D01*
X416653Y363667D01*
X416638Y363711D01*
X416631Y363744D01*
X416627Y363774D01*
Y363789D01*
Y363796D01*
X416634Y363852D01*
X416653Y363903D01*
X416675Y363955D01*
X416705Y364003D01*
X416734Y364044D01*
X416756Y364074D01*
X416775Y364096D01*
X416779Y364103D01*
X416782D01*
X416812Y364137D01*
X416849Y364170D01*
X416890Y364207D01*
X416930Y364240D01*
X417019Y364311D01*
X417112Y364377D01*
X417193Y364433D01*
X417230Y364458D01*
X417263Y364481D01*
X417289Y364499D01*
X417308Y364510D01*
X417323Y364518D01*
X417326Y364521D01*
X417408Y364466D01*
D02*
G37*
G36*
X412446Y365583D02*
X412487Y365550D01*
X412531Y365520D01*
X412579Y365491D01*
X412686Y365432D01*
X412801Y365376D01*
X412927Y365321D01*
X413053Y365272D01*
X413182Y365224D01*
X413312Y365180D01*
X413438Y365139D01*
X413552Y365106D01*
X413660Y365073D01*
X413711Y365062D01*
X413756Y365047D01*
X413797Y365036D01*
X413834Y365028D01*
X413867Y365017D01*
X413893Y365010D01*
X413915Y365006D01*
X413930Y365002D01*
X413941Y364999D01*
X413944D01*
X414337Y365250D01*
X414333Y365028D01*
X414326Y364814D01*
X414322Y364606D01*
X414318Y364407D01*
Y364218D01*
X414315Y364040D01*
X414311Y363874D01*
Y363722D01*
Y363652D01*
Y363585D01*
Y363522D01*
X414307Y363459D01*
Y363404D01*
Y363356D01*
Y363308D01*
Y363263D01*
Y363226D01*
Y363193D01*
Y363163D01*
Y363141D01*
Y363123D01*
Y363108D01*
Y363101D01*
Y363097D01*
Y362923D01*
X414311Y362756D01*
X414315Y362601D01*
X414322Y362449D01*
X414329Y362313D01*
X414340Y362183D01*
X414348Y362061D01*
X414355Y361954D01*
X414366Y361857D01*
X414374Y361769D01*
X414385Y361695D01*
X414392Y361635D01*
X414396Y361584D01*
X414403Y361550D01*
X414407Y361528D01*
Y361521D01*
X414426Y361406D01*
X414451Y361291D01*
X414481Y361180D01*
X414511Y361077D01*
X414544Y360977D01*
X414577Y360884D01*
X414610Y360795D01*
X414644Y360714D01*
X414677Y360640D01*
X414707Y360574D01*
X414736Y360514D01*
X414762Y360466D01*
X414781Y360429D01*
X414795Y360400D01*
X414807Y360385D01*
X414810Y360377D01*
X414869Y360281D01*
X414936Y360189D01*
X415077Y360007D01*
X415147Y359919D01*
X415217Y359837D01*
X415291Y359759D01*
X415358Y359689D01*
X415424Y359623D01*
X415484Y359563D01*
X415535Y359512D01*
X415584Y359467D01*
X415621Y359434D01*
X415650Y359408D01*
X415669Y359393D01*
X415676Y359386D01*
X415621Y359301D01*
X415491Y359382D01*
X415369Y359475D01*
X415251Y359567D01*
X415136Y359667D01*
X415029Y359767D01*
X414929Y359867D01*
X414836Y359967D01*
X414751Y360059D01*
X414673Y360152D01*
X414607Y360233D01*
X414548Y360311D01*
X414500Y360374D01*
X414459Y360429D01*
X414444Y360451D01*
X414429Y360470D01*
X414422Y360485D01*
X414414Y360496D01*
X414407Y360500D01*
Y360503D01*
X414359Y360581D01*
X414315Y360662D01*
X414278Y360747D01*
X414237Y360840D01*
X414204Y360936D01*
X414170Y361032D01*
X414115Y361240D01*
X414070Y361450D01*
X414033Y361669D01*
X414004Y361883D01*
X413981Y362094D01*
X413967Y362298D01*
X413959Y362394D01*
X413956Y362486D01*
X413952Y362572D01*
X413948Y362657D01*
X413944Y362734D01*
Y362805D01*
Y362871D01*
Y362927D01*
Y362979D01*
Y363023D01*
Y363056D01*
Y363078D01*
Y363097D01*
Y363101D01*
X413053D01*
Y362886D01*
Y362675D01*
Y362472D01*
Y362272D01*
Y362076D01*
X413057Y361887D01*
Y361706D01*
Y361528D01*
Y361358D01*
X413060Y361191D01*
Y361032D01*
Y360881D01*
Y360733D01*
X413064Y360592D01*
Y360459D01*
Y360329D01*
X413068Y360211D01*
Y360096D01*
Y359989D01*
X413071Y359893D01*
Y359800D01*
Y359715D01*
X413075Y359637D01*
Y359567D01*
Y359508D01*
Y359452D01*
X413079Y359408D01*
Y359367D01*
Y359338D01*
Y359319D01*
Y359304D01*
Y359301D01*
X412661Y359497D01*
X412664Y359604D01*
X412668Y359708D01*
X412672Y359808D01*
X412675Y359904D01*
X412679Y359996D01*
Y360081D01*
X412683Y360159D01*
Y360233D01*
Y360300D01*
X412686Y360355D01*
Y360407D01*
Y360451D01*
Y360485D01*
Y360511D01*
Y360525D01*
Y360529D01*
Y363101D01*
X411684D01*
X412213Y363630D01*
X412575Y363267D01*
X413944D01*
Y364858D01*
X413782Y364884D01*
X413634Y364906D01*
X413497Y364928D01*
X413371Y364947D01*
X413260Y364965D01*
X413156Y364984D01*
X413064Y364995D01*
X412983Y365010D01*
X412912Y365021D01*
X412853Y365028D01*
X412801Y365036D01*
X412760Y365043D01*
X412731Y365047D01*
X412709Y365051D01*
X412694Y365054D01*
X412690D01*
X412553Y365073D01*
X412416Y365088D01*
X412291Y365095D01*
X412231Y365099D01*
X412176Y365102D01*
X412124Y365106D01*
X412076D01*
X412035Y365110D01*
X411935D01*
X412409Y365613D01*
X412446Y365583D01*
D02*
G37*
G36*
X392003Y363382D02*
X393846D01*
X393595Y363130D01*
X393476Y363160D01*
X393361Y363178D01*
X393247Y363193D01*
X393143Y363204D01*
X393099Y363208D01*
X393054Y363212D01*
X393017D01*
X392988Y363215D01*
X392729D01*
Y362179D01*
X394349D01*
X394098Y361928D01*
X393979Y361957D01*
X393865Y361976D01*
X393750Y361991D01*
X393646Y362002D01*
X393602Y362005D01*
X393558Y362009D01*
X393520D01*
X393491Y362013D01*
X392729D01*
Y360141D01*
X392732Y360100D01*
X392736Y360067D01*
X392743Y360037D01*
X392758Y360011D01*
X392769Y359989D01*
X392784Y359970D01*
X392817Y359941D01*
X392851Y359922D01*
X392880Y359911D01*
X392903Y359908D01*
X393003D01*
X393065Y359911D01*
X393136Y359915D01*
X393213Y359922D01*
X393295Y359930D01*
X393461Y359948D01*
X393543Y359959D01*
X393617Y359967D01*
X393687Y359974D01*
X393750Y359985D01*
X393802Y359989D01*
X393842Y359996D01*
X393857D01*
X393868Y360000D01*
X393876D01*
Y359893D01*
X393805Y359874D01*
X393735Y359856D01*
X393609Y359811D01*
X393498Y359767D01*
X393402Y359719D01*
X393313Y359671D01*
X393239Y359619D01*
X393176Y359571D01*
X393121Y359526D01*
X393076Y359482D01*
X393039Y359438D01*
X393010Y359401D01*
X392988Y359367D01*
X392973Y359341D01*
X392962Y359323D01*
X392954Y359308D01*
Y359304D01*
X392888Y359330D01*
X392829Y359356D01*
X392773Y359386D01*
X392725Y359412D01*
X392681Y359434D01*
X392644Y359460D01*
X392607Y359482D01*
X392577Y359504D01*
X392551Y359526D01*
X392533Y359545D01*
X392514Y359560D01*
X392499Y359575D01*
X392481Y359593D01*
X392477Y359600D01*
X392440Y359663D01*
X392414Y359737D01*
X392392Y359811D01*
X392381Y359885D01*
X392373Y359952D01*
X392370Y359981D01*
X392366Y360007D01*
Y360026D01*
Y360041D01*
Y360052D01*
Y360055D01*
Y362013D01*
X390579D01*
X391053Y362512D01*
X391389Y362179D01*
X392366D01*
Y363215D01*
X391304D01*
X391722Y363659D01*
X392003Y363382D01*
D02*
G37*
G36*
X420068Y365446D02*
X421826D01*
X422247Y365698D01*
X422236Y365458D01*
X422229Y365224D01*
Y365110D01*
X422225Y365002D01*
X422221Y364902D01*
Y364806D01*
Y364718D01*
X422218Y364640D01*
Y364569D01*
Y364510D01*
Y364462D01*
Y364425D01*
Y364403D01*
Y364399D01*
Y364396D01*
Y364148D01*
X422221Y363907D01*
X422225Y363792D01*
Y363678D01*
X422229Y363574D01*
X422232Y363474D01*
X422236Y363382D01*
Y363297D01*
X422240Y363223D01*
X422244Y363160D01*
Y363112D01*
X422247Y363071D01*
Y363060D01*
Y363049D01*
Y363045D01*
Y363041D01*
X421826Y363212D01*
Y363408D01*
X420038D01*
Y363097D01*
X419620Y363267D01*
X419624Y363315D01*
Y363371D01*
X419628Y363430D01*
X419631Y363493D01*
X419635Y363630D01*
X419639Y363778D01*
Y363933D01*
X419642Y364089D01*
X419646Y364251D01*
Y364407D01*
Y364558D01*
X419650Y364699D01*
Y364766D01*
Y364828D01*
Y364888D01*
Y364943D01*
Y364991D01*
Y365036D01*
Y365076D01*
Y365110D01*
Y365136D01*
Y365154D01*
Y365165D01*
Y365169D01*
X419398Y365365D01*
X419872Y365728D01*
X420068Y365446D01*
D02*
G37*
G36*
X392843Y365720D02*
X392906Y365576D01*
X392973Y365435D01*
X393039Y365295D01*
X393110Y365161D01*
X393176Y365032D01*
X393243Y364910D01*
X393306Y364799D01*
X393365Y364692D01*
X393421Y364599D01*
X393469Y364518D01*
X393509Y364447D01*
X393546Y364392D01*
X393561Y364366D01*
X393572Y364348D01*
X393583Y364333D01*
X393587Y364322D01*
X393595Y364318D01*
Y364314D01*
X393691Y364174D01*
X393791Y364040D01*
X393891Y363915D01*
X393990Y363796D01*
X394090Y363685D01*
X394186Y363585D01*
X394279Y363489D01*
X394368Y363404D01*
X394453Y363330D01*
X394531Y363263D01*
X394597Y363204D01*
X394656Y363156D01*
X394701Y363119D01*
X394738Y363093D01*
X394760Y363078D01*
X394764Y363071D01*
X394767D01*
X394712Y362990D01*
X394560Y363075D01*
X394416Y363163D01*
X394279Y363252D01*
X394153Y363345D01*
X394035Y363434D01*
X393924Y363522D01*
X393828Y363608D01*
X393735Y363689D01*
X393657Y363763D01*
X393587Y363833D01*
X393524Y363896D01*
X393476Y363948D01*
X393439Y363992D01*
X393409Y364026D01*
X393395Y364044D01*
X393387Y364052D01*
X393295Y364166D01*
X393210Y364281D01*
X393125Y364392D01*
X393047Y364503D01*
X392969Y364610D01*
X392899Y364710D01*
X392836Y364806D01*
X392777Y364895D01*
X392721Y364980D01*
X392673Y365054D01*
X392633Y365117D01*
X392596Y365176D01*
X392570Y365221D01*
X392547Y365254D01*
X392536Y365272D01*
X392533Y365280D01*
X392473Y365147D01*
X392414Y365017D01*
X392351Y364899D01*
X392288Y364780D01*
X392226Y364673D01*
X392163Y364573D01*
X392103Y364481D01*
X392048Y364396D01*
X391996Y364318D01*
X391944Y364248D01*
X391904Y364192D01*
X391867Y364140D01*
X391833Y364103D01*
X391811Y364074D01*
X391796Y364059D01*
X391793Y364052D01*
X391711Y363959D01*
X391622Y363870D01*
X391534Y363785D01*
X391445Y363704D01*
X391356Y363626D01*
X391271Y363556D01*
X391186Y363489D01*
X391108Y363430D01*
X391030Y363374D01*
X390964Y363326D01*
X390901Y363286D01*
X390849Y363249D01*
X390805Y363223D01*
X390771Y363204D01*
X390753Y363189D01*
X390745Y363186D01*
X390723Y363234D01*
X390694Y363278D01*
X390660Y363319D01*
X390623Y363356D01*
X390586Y363386D01*
X390546Y363411D01*
X390505Y363437D01*
X390468Y363456D01*
X390394Y363485D01*
X390361Y363496D01*
X390331Y363508D01*
X390305Y363511D01*
X390287Y363515D01*
X390276Y363519D01*
X390272D01*
Y363604D01*
X390409Y363648D01*
X390542Y363696D01*
X390668Y363744D01*
X390786Y363796D01*
X390894Y363852D01*
X390997Y363903D01*
X391090Y363955D01*
X391175Y364007D01*
X391252Y364055D01*
X391319Y364100D01*
X391378Y364140D01*
X391426Y364174D01*
X391463Y364203D01*
X391493Y364225D01*
X391508Y364240D01*
X391515Y364244D01*
X391608Y364325D01*
X391696Y364414D01*
X391781Y364507D01*
X391867Y364603D01*
X391948Y364695D01*
X392026Y364791D01*
X392100Y364884D01*
X392166Y364977D01*
X392229Y365062D01*
X392285Y365139D01*
X392333Y365210D01*
X392373Y365272D01*
X392407Y365321D01*
X392433Y365358D01*
X392440Y365372D01*
X392447Y365384D01*
X392451Y365387D01*
Y365391D01*
X392255Y365557D01*
X392784Y365868D01*
X392843Y365720D01*
D02*
G37*
G36*
X389569Y363992D02*
X389484Y363900D01*
X389406Y363811D01*
X389336Y363726D01*
X389273Y363645D01*
X389217Y363567D01*
X389166Y363496D01*
X389121Y363430D01*
X389084Y363371D01*
X389051Y363315D01*
X389025Y363267D01*
X389003Y363226D01*
X388984Y363189D01*
X388969Y363163D01*
X388962Y363145D01*
X388955Y363130D01*
Y363126D01*
X388940Y363082D01*
X388921Y363045D01*
X388907Y363012D01*
X388892Y362982D01*
X388877Y362956D01*
X388862Y362938D01*
X388836Y362908D01*
X388814Y362890D01*
X388799Y362879D01*
X388788Y362875D01*
X388785D01*
X388770Y362879D01*
X388751Y362893D01*
X388729Y362916D01*
X388707Y362938D01*
X388685Y362960D01*
X388666Y362982D01*
X388651Y362997D01*
X388648Y363001D01*
X388611Y363053D01*
X388585Y363115D01*
X388570Y363182D01*
X388559Y363245D01*
X388551Y363300D01*
Y363326D01*
Y363349D01*
Y363367D01*
Y363382D01*
Y363389D01*
Y363393D01*
X388555Y363419D01*
X388562Y363445D01*
X388577Y363471D01*
X388596Y363500D01*
X388618Y363526D01*
X388644Y363556D01*
X388707Y363611D01*
X388781Y363670D01*
X388862Y363726D01*
X388947Y363781D01*
X389036Y363837D01*
X389125Y363885D01*
X389210Y363929D01*
X389291Y363974D01*
X389365Y364007D01*
X389425Y364037D01*
X389451Y364048D01*
X389473Y364059D01*
X389491Y364066D01*
X389502Y364074D01*
X389510Y364077D01*
X389513D01*
X389569Y363992D01*
D02*
G37*
G36*
X405782Y362960D02*
X410981D01*
X410729Y362708D01*
X410607Y362738D01*
X410481Y362756D01*
X410356Y362771D01*
X410237Y362782D01*
X410182Y362786D01*
X410134Y362790D01*
X410089D01*
X410048Y362793D01*
X404609D01*
X405224Y363408D01*
X405782Y362960D01*
D02*
G37*
G36*
X384289Y365280D02*
X386746D01*
X387168Y365531D01*
X387164Y365502D01*
Y365469D01*
X387160Y365432D01*
X387157Y365387D01*
Y365343D01*
X387153Y365291D01*
X387149Y365184D01*
Y365065D01*
X387145Y364943D01*
X387142Y364692D01*
Y364569D01*
X387138Y364455D01*
Y364348D01*
Y364299D01*
Y364251D01*
Y364211D01*
Y364174D01*
Y364140D01*
Y364114D01*
Y364092D01*
Y364077D01*
Y364066D01*
Y364063D01*
Y363955D01*
Y363852D01*
Y363755D01*
Y363663D01*
Y363574D01*
X387142Y363493D01*
Y363415D01*
Y363345D01*
X387145Y363275D01*
Y363212D01*
Y363152D01*
Y363097D01*
X387149Y363045D01*
Y362997D01*
X387153Y362953D01*
Y362916D01*
X387157Y362845D01*
Y362786D01*
X387160Y362742D01*
X387164Y362708D01*
Y362683D01*
X387168Y362664D01*
Y362657D01*
Y362653D01*
X386775Y362823D01*
Y363075D01*
X384233D01*
Y362793D01*
X383841Y362934D01*
X383845Y362964D01*
Y363004D01*
X383849Y363053D01*
X383852Y363108D01*
Y363167D01*
X383856Y363234D01*
Y363308D01*
X383860Y363386D01*
Y363471D01*
Y363556D01*
X383863Y363737D01*
X383867Y363922D01*
Y364114D01*
Y364299D01*
X383871Y364477D01*
Y364562D01*
Y364640D01*
Y364718D01*
Y364788D01*
Y364851D01*
Y364910D01*
Y364962D01*
Y365002D01*
Y365036D01*
Y365062D01*
Y365080D01*
Y365084D01*
X383675Y365250D01*
X384119Y365557D01*
X384289Y365280D01*
D02*
G37*
G36*
X421733Y363182D02*
X421840Y362990D01*
X421955Y362805D01*
X422073Y362631D01*
X422192Y362460D01*
X422314Y362301D01*
X422432Y362153D01*
X422547Y362017D01*
X422654Y361891D01*
X422758Y361780D01*
X422802Y361732D01*
X422847Y361684D01*
X422891Y361643D01*
X422928Y361602D01*
X422961Y361569D01*
X422991Y361539D01*
X423021Y361510D01*
X423043Y361491D01*
X423061Y361473D01*
X423072Y361461D01*
X423080Y361454D01*
X423083Y361450D01*
X423028Y361369D01*
X422913Y361450D01*
X422799Y361536D01*
X422577Y361713D01*
X422469Y361802D01*
X422369Y361887D01*
X422273Y361976D01*
X422184Y362057D01*
X422099Y362135D01*
X422025Y362205D01*
X421962Y362268D01*
X421903Y362324D01*
X421859Y362368D01*
X421826Y362401D01*
X421807Y362423D01*
X421800Y362431D01*
X421296D01*
X421404Y362224D01*
X421518Y362031D01*
X421648Y361843D01*
X421781Y361669D01*
X421918Y361506D01*
X422059Y361354D01*
X422199Y361214D01*
X422332Y361088D01*
X422462Y360973D01*
X422580Y360873D01*
X422691Y360788D01*
X422739Y360751D01*
X422784Y360714D01*
X422824Y360684D01*
X422861Y360659D01*
X422895Y360636D01*
X422921Y360618D01*
X422943Y360603D01*
X422958Y360592D01*
X422969Y360588D01*
X422972Y360585D01*
X422917Y360503D01*
X422788Y360562D01*
X422658Y360625D01*
X422536Y360692D01*
X422421Y360762D01*
X422306Y360836D01*
X422199Y360910D01*
X422096Y360984D01*
X421996Y361062D01*
X421903Y361143D01*
X421814Y361221D01*
X421726Y361302D01*
X421644Y361384D01*
X421570Y361461D01*
X421496Y361543D01*
X421426Y361621D01*
X421363Y361698D01*
X421304Y361772D01*
X421248Y361846D01*
X421197Y361917D01*
X421148Y361983D01*
X421104Y362046D01*
X421063Y362109D01*
X421030Y362164D01*
X420997Y362216D01*
X420967Y362264D01*
X420945Y362305D01*
X420923Y362342D01*
X420908Y362372D01*
X420893Y362398D01*
X420886Y362416D01*
X420878Y362427D01*
Y362431D01*
X420375D01*
X420434Y362257D01*
X420501Y362087D01*
X420571Y361920D01*
X420653Y361761D01*
X420734Y361606D01*
X420823Y361458D01*
X420919Y361317D01*
X421015Y361180D01*
X421115Y361047D01*
X421215Y360921D01*
X421322Y360799D01*
X421426Y360684D01*
X421533Y360574D01*
X421640Y360470D01*
X421744Y360370D01*
X421851Y360278D01*
X421955Y360192D01*
X422055Y360107D01*
X422151Y360033D01*
X422247Y359963D01*
X422336Y359896D01*
X422421Y359837D01*
X422503Y359782D01*
X422577Y359734D01*
X422643Y359693D01*
X422706Y359656D01*
X422758Y359623D01*
X422802Y359597D01*
X422839Y359578D01*
X422865Y359563D01*
X422880Y359556D01*
X422887Y359552D01*
X422832Y359471D01*
X422632Y359549D01*
X422440Y359634D01*
X422258Y359722D01*
X422085Y359822D01*
X421918Y359926D01*
X421759Y360033D01*
X421611Y360144D01*
X421467Y360263D01*
X421333Y360381D01*
X421204Y360503D01*
X421086Y360625D01*
X420971Y360747D01*
X420867Y360873D01*
X420767Y360999D01*
X420675Y361121D01*
X420590Y361243D01*
X420512Y361362D01*
X420438Y361476D01*
X420371Y361591D01*
X420308Y361698D01*
X420253Y361802D01*
X420205Y361902D01*
X420160Y361994D01*
X420120Y362079D01*
X420086Y362153D01*
X420061Y362224D01*
X420035Y362287D01*
X420016Y362335D01*
X420001Y362375D01*
X419990Y362405D01*
X419987Y362423D01*
X419983Y362431D01*
X419620D01*
X419628Y362316D01*
X419635Y362205D01*
X419642Y362098D01*
X419654Y361994D01*
X419661Y361894D01*
X419668Y361798D01*
X419676Y361709D01*
X419683Y361624D01*
X419691Y361539D01*
X419698Y361461D01*
X419705Y361387D01*
X419713Y361317D01*
X419717Y361251D01*
X419724Y361188D01*
X419731Y361128D01*
X419739Y361073D01*
X419750Y360969D01*
X419757Y360884D01*
X419768Y360814D01*
X419776Y360755D01*
X419783Y360710D01*
X419787Y360681D01*
X419791Y360662D01*
Y360655D01*
X419805Y360562D01*
X419828Y360481D01*
X419846Y360407D01*
X419868Y360344D01*
X419890Y360285D01*
X419913Y360237D01*
X419939Y360196D01*
X419961Y360163D01*
X419983Y360133D01*
X420001Y360107D01*
X420020Y360089D01*
X420035Y360078D01*
X420049Y360067D01*
X420061Y360059D01*
X420064Y360055D01*
X420068D01*
X420112Y360044D01*
X420164Y360037D01*
X420297D01*
X420375Y360044D01*
X420457Y360055D01*
X420616Y360081D01*
X420697Y360096D01*
X420771Y360111D01*
X420838Y360126D01*
X420897Y360137D01*
X420949Y360148D01*
X420986Y360159D01*
X421000Y360163D01*
X421011D01*
X421015Y360167D01*
X421019D01*
X421045Y360052D01*
X420982Y360026D01*
X420923Y360000D01*
X420867Y359974D01*
X420815Y359945D01*
X420767Y359919D01*
X420723Y359893D01*
X420645Y359837D01*
X420579Y359782D01*
X420527Y359730D01*
X420482Y359678D01*
X420449Y359630D01*
X420423Y359582D01*
X420401Y359541D01*
X420390Y359504D01*
X420382Y359475D01*
X420375Y359449D01*
Y359426D01*
Y359415D01*
Y359412D01*
X420279Y359434D01*
X420190Y359460D01*
X420109Y359489D01*
X420038Y359519D01*
X419972Y359549D01*
X419913Y359582D01*
X419857Y359612D01*
X419813Y359645D01*
X419772Y359674D01*
X419739Y359700D01*
X419709Y359726D01*
X419687Y359745D01*
X419672Y359763D01*
X419657Y359778D01*
X419654Y359785D01*
X419650Y359789D01*
X419613Y359841D01*
X419583Y359900D01*
X419554Y359967D01*
X419524Y360033D01*
X419480Y360178D01*
X419443Y360318D01*
X419428Y360385D01*
X419417Y360448D01*
X419406Y360503D01*
X419398Y360555D01*
X419391Y360596D01*
X419387Y360625D01*
X419383Y360644D01*
Y360651D01*
X419369Y360770D01*
X419358Y360895D01*
X419343Y361029D01*
X419328Y361165D01*
X419302Y361443D01*
X419291Y361580D01*
X419280Y361709D01*
X419269Y361835D01*
X419258Y361950D01*
X419250Y362050D01*
X419247Y362098D01*
X419243Y362142D01*
X419239Y362179D01*
X419236Y362213D01*
Y362246D01*
X419232Y362268D01*
Y362290D01*
X419228Y362305D01*
Y362313D01*
Y362316D01*
X418976Y362512D01*
X419424Y362875D01*
X419620Y362597D01*
X421689D01*
X421626Y362660D01*
X421570Y362719D01*
X421515Y362775D01*
X421470Y362827D01*
X421433Y362867D01*
X421404Y362901D01*
X421389Y362923D01*
X421382Y362930D01*
X421130Y363016D01*
X421633Y363378D01*
X421733Y363182D01*
D02*
G37*
G36*
X402112Y365698D02*
X402160Y365531D01*
X402212Y365372D01*
X402260Y365221D01*
X402308Y365080D01*
X402356Y364943D01*
X402400Y364817D01*
X402445Y364703D01*
X402486Y364595D01*
X402523Y364503D01*
X402556Y364422D01*
X402582Y364355D01*
X402604Y364299D01*
X402615Y364281D01*
X402623Y364262D01*
X402630Y364248D01*
X402634Y364236D01*
X402637Y364233D01*
Y364229D01*
X402697Y364100D01*
X402756Y363970D01*
X402815Y363848D01*
X402874Y363733D01*
X402930Y363622D01*
X402981Y363519D01*
X403033Y363422D01*
X403081Y363337D01*
X403122Y363256D01*
X403163Y363186D01*
X403196Y363123D01*
X403226Y363071D01*
X403248Y363030D01*
X403266Y363001D01*
X403277Y362982D01*
X403281Y362975D01*
X403403Y362775D01*
X403462Y362679D01*
X403522Y362586D01*
X403581Y362497D01*
X403636Y362412D01*
X403692Y362335D01*
X403744Y362261D01*
X403788Y362194D01*
X403832Y362135D01*
X403869Y362079D01*
X403903Y362035D01*
X403929Y362002D01*
X403951Y361976D01*
X403962Y361961D01*
X403966Y361954D01*
X403881Y361872D01*
X403766Y361983D01*
X403647Y362102D01*
X403533Y362231D01*
X403422Y362361D01*
X403311Y362497D01*
X403203Y362631D01*
X403103Y362764D01*
X403007Y362893D01*
X402918Y363016D01*
X402841Y363126D01*
X402771Y363230D01*
X402741Y363275D01*
X402711Y363319D01*
X402685Y363356D01*
X402663Y363393D01*
X402641Y363422D01*
X402626Y363445D01*
X402615Y363467D01*
X402604Y363482D01*
X402597Y363489D01*
Y360418D01*
Y360333D01*
Y360241D01*
X402600Y360052D01*
X402604Y359863D01*
X402608Y359771D01*
Y359682D01*
X402611Y359597D01*
X402615Y359519D01*
Y359452D01*
X402619Y359389D01*
Y359341D01*
X402623Y359304D01*
Y359293D01*
Y359282D01*
Y359278D01*
Y359275D01*
X402175Y359471D01*
X402186Y359663D01*
X402190Y359756D01*
X402193Y359848D01*
Y359933D01*
X402197Y360011D01*
X402201Y360089D01*
Y360159D01*
Y360222D01*
X402204Y360278D01*
Y360329D01*
Y360370D01*
Y360403D01*
Y360429D01*
Y360444D01*
Y360448D01*
Y363463D01*
X402008Y363659D01*
X402400Y363911D01*
X402315Y364074D01*
X402230Y364236D01*
X402149Y364396D01*
X402112Y364470D01*
X402079Y364544D01*
X402045Y364610D01*
X402016Y364673D01*
X401990Y364725D01*
X401968Y364773D01*
X401949Y364810D01*
X401934Y364840D01*
X401927Y364854D01*
X401923Y364862D01*
X401875Y364951D01*
X401831Y365032D01*
X401786Y365106D01*
X401742Y365169D01*
X401701Y365228D01*
X401664Y365276D01*
X401627Y365321D01*
X401590Y365358D01*
X401561Y365387D01*
X401535Y365413D01*
X401509Y365435D01*
X401487Y365450D01*
X401472Y365461D01*
X401461Y365469D01*
X401453Y365476D01*
X401450D01*
X402064Y365868D01*
X402112Y365698D01*
D02*
G37*
G36*
X370003Y363881D02*
X372046D01*
X372434Y364103D01*
X372430Y363981D01*
X372427Y363859D01*
X372423Y363748D01*
X372419Y363637D01*
X372416Y363533D01*
Y363437D01*
X372412Y363349D01*
Y363267D01*
Y363193D01*
X372408Y363126D01*
Y363067D01*
Y363019D01*
Y362982D01*
Y362953D01*
Y362938D01*
Y362930D01*
Y362834D01*
Y362734D01*
X372412Y362523D01*
X372416Y362313D01*
X372419Y362213D01*
Y362116D01*
X372423Y362024D01*
X372427Y361943D01*
Y361865D01*
X372430Y361802D01*
Y361750D01*
X372434Y361709D01*
Y361695D01*
Y361684D01*
Y361680D01*
Y361676D01*
X372046Y361843D01*
Y362068D01*
X371346D01*
X371350Y361972D01*
X371357Y361880D01*
X371365Y361794D01*
X371369Y361717D01*
X371376Y361643D01*
X371383Y361576D01*
X371391Y361517D01*
X371398Y361465D01*
X371402Y361417D01*
X371409Y361373D01*
X371413Y361339D01*
X371420Y361310D01*
X371424Y361288D01*
Y361273D01*
X371428Y361262D01*
Y361258D01*
X373330D01*
X373078Y361006D01*
X372960Y361036D01*
X372845Y361054D01*
X372730Y361069D01*
X372627Y361080D01*
X372582Y361084D01*
X372538Y361088D01*
X372501D01*
X372471Y361091D01*
X371457D01*
X371498Y360984D01*
X371543Y360877D01*
X371591Y360777D01*
X371646Y360681D01*
X371702Y360588D01*
X371757Y360503D01*
X371813Y360422D01*
X371868Y360348D01*
X371920Y360281D01*
X371968Y360222D01*
X372012Y360170D01*
X372053Y360126D01*
X372086Y360092D01*
X372109Y360067D01*
X372127Y360048D01*
X372131Y360044D01*
X372223Y359963D01*
X372327Y359882D01*
X372434Y359811D01*
X372549Y359745D01*
X372664Y359682D01*
X372782Y359626D01*
X372893Y359575D01*
X373004Y359530D01*
X373111Y359489D01*
X373207Y359456D01*
X373296Y359426D01*
X373374Y359404D01*
X373407Y359393D01*
X373437Y359382D01*
X373463Y359378D01*
X373485Y359371D01*
X373503Y359367D01*
X373515Y359364D01*
X373522Y359360D01*
X373526D01*
X373496Y359275D01*
X373315Y359301D01*
X373141Y359338D01*
X372978Y359378D01*
X372823Y359426D01*
X372675Y359478D01*
X372534Y359538D01*
X372405Y359597D01*
X372279Y359663D01*
X372164Y359734D01*
X372053Y359808D01*
X371950Y359882D01*
X371857Y359959D01*
X371764Y360037D01*
X371683Y360118D01*
X371605Y360196D01*
X371535Y360278D01*
X371472Y360355D01*
X371413Y360433D01*
X371361Y360507D01*
X371313Y360581D01*
X371269Y360651D01*
X371228Y360718D01*
X371195Y360781D01*
X371165Y360840D01*
X371139Y360895D01*
X371121Y360944D01*
X371102Y360984D01*
X371087Y361021D01*
X371076Y361051D01*
X371069Y361069D01*
X371065Y361084D01*
Y361088D01*
X370954D01*
X370899Y360969D01*
X370843Y360858D01*
X370784Y360751D01*
X370721Y360648D01*
X370658Y360548D01*
X370595Y360455D01*
X370529Y360366D01*
X370462Y360281D01*
X370392Y360204D01*
X370325Y360126D01*
X370255Y360055D01*
X370188Y359989D01*
X370118Y359926D01*
X370051Y359867D01*
X369985Y359811D01*
X369922Y359759D01*
X369859Y359711D01*
X369796Y359667D01*
X369681Y359589D01*
X369578Y359526D01*
X369530Y359501D01*
X369485Y359475D01*
X369448Y359456D01*
X369411Y359438D01*
X369382Y359423D01*
X369356Y359412D01*
X369334Y359401D01*
X369319Y359393D01*
X369311Y359389D01*
X369308D01*
X369274Y359445D01*
X369237Y359493D01*
X369197Y359538D01*
X369152Y359575D01*
X369108Y359612D01*
X369063Y359641D01*
X369019Y359663D01*
X368978Y359685D01*
X368897Y359719D01*
X368864Y359730D01*
X368834Y359737D01*
X368808Y359745D01*
X368790Y359748D01*
X368779Y359752D01*
X368775D01*
Y359863D01*
X368912Y359878D01*
X369045Y359896D01*
X369171Y359922D01*
X369289Y359948D01*
X369396Y359981D01*
X369500Y360015D01*
X369593Y360052D01*
X369678Y360085D01*
X369755Y360122D01*
X369822Y360152D01*
X369881Y360185D01*
X369929Y360211D01*
X369966Y360233D01*
X369996Y360252D01*
X370011Y360263D01*
X370018Y360266D01*
X370107Y360333D01*
X370192Y360403D01*
X370273Y360474D01*
X370347Y360544D01*
X370418Y360611D01*
X370484Y360681D01*
X370544Y360747D01*
X370599Y360810D01*
X370647Y360870D01*
X370691Y360921D01*
X370728Y360969D01*
X370758Y361010D01*
X370780Y361047D01*
X370799Y361069D01*
X370810Y361088D01*
X370814Y361091D01*
X368749D01*
X369278Y361621D01*
X369641Y361258D01*
X371039D01*
X371021Y361421D01*
X371002Y361573D01*
X370995Y361643D01*
X370988Y361709D01*
X370980Y361772D01*
X370976Y361831D01*
X370969Y361883D01*
X370965Y361928D01*
X370962Y361968D01*
X370958Y362005D01*
Y362031D01*
X370954Y362053D01*
Y362065D01*
Y362068D01*
X369977D01*
Y361732D01*
X369585Y361898D01*
X369589Y361931D01*
Y361968D01*
X369593Y362013D01*
X369596Y362061D01*
Y362113D01*
X369600Y362172D01*
Y362235D01*
X369604Y362298D01*
Y362435D01*
X369607Y362583D01*
X369611Y362731D01*
Y362879D01*
Y363023D01*
X369615Y363163D01*
Y363289D01*
Y363349D01*
Y363404D01*
Y363452D01*
Y363496D01*
Y363533D01*
Y363567D01*
Y363593D01*
Y363615D01*
Y363626D01*
Y363630D01*
X369389Y363796D01*
X369781Y364133D01*
X370003Y363881D01*
D02*
G37*
G36*
X387808Y362264D02*
X387741Y362164D01*
X387682Y362072D01*
X387626Y361980D01*
X387578Y361894D01*
X387530Y361809D01*
X387490Y361732D01*
X387453Y361661D01*
X387423Y361595D01*
X387393Y361536D01*
X387371Y361480D01*
X387353Y361436D01*
X387334Y361395D01*
X387323Y361365D01*
X387316Y361343D01*
X387308Y361328D01*
Y361325D01*
X387256Y361180D01*
X387234Y361110D01*
X387212Y361047D01*
X387193Y360988D01*
X387175Y360932D01*
X387157Y360881D01*
X387142Y360833D01*
X387131Y360788D01*
X387116Y360751D01*
X387105Y360718D01*
X387097Y360692D01*
X387090Y360670D01*
X387086Y360655D01*
X387083Y360644D01*
Y360640D01*
X387071Y360596D01*
X387057Y360562D01*
X387042Y360537D01*
X387027Y360522D01*
X387016Y360511D01*
X387005Y360507D01*
X387001Y360503D01*
X386997D01*
X386986Y360507D01*
X386975Y360511D01*
X386949Y360529D01*
X386920Y360555D01*
X386894Y360588D01*
X386868Y360618D01*
X386849Y360644D01*
X386835Y360662D01*
X386831Y360670D01*
X386794Y360733D01*
X386768Y360792D01*
X386746Y360851D01*
X386735Y360899D01*
X386727Y360944D01*
X386720Y360977D01*
Y360999D01*
Y361006D01*
X386724Y361040D01*
X386727Y361077D01*
X386750Y361154D01*
X386783Y361236D01*
X386816Y361314D01*
X386853Y361384D01*
X386872Y361413D01*
X386886Y361443D01*
X386897Y361465D01*
X386909Y361480D01*
X386912Y361491D01*
X386916Y361495D01*
X386957Y361558D01*
X387005Y361624D01*
X387060Y361691D01*
X387123Y361761D01*
X387190Y361828D01*
X387256Y361898D01*
X387327Y361965D01*
X387393Y362028D01*
X387460Y362087D01*
X387519Y362142D01*
X387578Y362194D01*
X387626Y362235D01*
X387667Y362272D01*
X387700Y362298D01*
X387719Y362313D01*
X387726Y362320D01*
X387808Y362264D01*
D02*
G37*
G36*
X415846Y361480D02*
X415769Y361387D01*
X415702Y361299D01*
X415639Y361214D01*
X415580Y361132D01*
X415528Y361054D01*
X415484Y360984D01*
X415443Y360918D01*
X415410Y360858D01*
X415380Y360803D01*
X415354Y360755D01*
X415332Y360710D01*
X415317Y360677D01*
X415302Y360648D01*
X415295Y360629D01*
X415288Y360614D01*
Y360611D01*
X415273Y360566D01*
X415258Y360529D01*
X415243Y360496D01*
X415228Y360466D01*
X415217Y360440D01*
X415206Y360422D01*
X415184Y360392D01*
X415169Y360374D01*
X415158Y360363D01*
X415151Y360359D01*
X415147D01*
X415125Y360366D01*
X415103Y360385D01*
X415077Y360407D01*
X415055Y360437D01*
X415036Y360466D01*
X415021Y360488D01*
X415010Y360507D01*
X415006Y360514D01*
X414977Y360570D01*
X414958Y360622D01*
X414944Y360666D01*
X414932Y360707D01*
X414925Y360736D01*
X414921Y360762D01*
Y360777D01*
Y360781D01*
Y360807D01*
X414929Y360836D01*
X414947Y360888D01*
X414977Y360940D01*
X415006Y360988D01*
X415036Y361029D01*
X415066Y361058D01*
X415084Y361080D01*
X415088Y361088D01*
X415092D01*
X415129Y361121D01*
X415169Y361154D01*
X415217Y361195D01*
X415269Y361232D01*
X415387Y361310D01*
X415502Y361387D01*
X415561Y361424D01*
X415613Y361454D01*
X415661Y361484D01*
X415706Y361510D01*
X415739Y361532D01*
X415769Y361547D01*
X415783Y361558D01*
X415791Y361561D01*
X415846Y361480D01*
D02*
G37*
G36*
X392059Y361450D02*
X391981Y361384D01*
X391911Y361314D01*
X391841Y361251D01*
X391774Y361184D01*
X391715Y361121D01*
X391659Y361062D01*
X391608Y361006D01*
X391560Y360951D01*
X391519Y360903D01*
X391482Y360858D01*
X391448Y360821D01*
X391423Y360788D01*
X391400Y360762D01*
X391386Y360740D01*
X391378Y360729D01*
X391374Y360725D01*
X391282Y360592D01*
X391197Y360466D01*
X391130Y360355D01*
X391097Y360303D01*
X391071Y360255D01*
X391045Y360211D01*
X391027Y360170D01*
X391008Y360137D01*
X390993Y360111D01*
X390982Y360085D01*
X390975Y360070D01*
X390967Y360059D01*
Y360055D01*
X390956Y360022D01*
X390945Y359993D01*
X390934Y359967D01*
X390923Y359945D01*
X390901Y359911D01*
X390879Y359889D01*
X390860Y359874D01*
X390845Y359867D01*
X390834Y359863D01*
X390831D01*
X390808Y359871D01*
X390782Y359885D01*
X390753Y359911D01*
X390727Y359941D01*
X390701Y359967D01*
X390683Y359993D01*
X390668Y360007D01*
X390664Y360015D01*
X390646Y360044D01*
X390627Y360074D01*
X390605Y360129D01*
X390594Y360189D01*
X390590Y360237D01*
X390594Y360281D01*
X390598Y360318D01*
X390601Y360340D01*
X390605Y360344D01*
Y360348D01*
X390620Y360381D01*
X390634Y360418D01*
X390660Y360459D01*
X390686Y360496D01*
X390745Y360574D01*
X390808Y360644D01*
X390868Y360710D01*
X390894Y360736D01*
X390919Y360762D01*
X390938Y360781D01*
X390953Y360795D01*
X390964Y360803D01*
X390967Y360807D01*
X391030Y360862D01*
X391101Y360918D01*
X391178Y360977D01*
X391260Y361040D01*
X391430Y361162D01*
X391600Y361277D01*
X391682Y361328D01*
X391756Y361380D01*
X391826Y361424D01*
X391885Y361461D01*
X391933Y361491D01*
X391970Y361517D01*
X391985Y361524D01*
X391996Y361532D01*
X392000Y361536D01*
X392003D01*
X392059Y361450D01*
D02*
G37*
G36*
X386380Y362882D02*
Y362823D01*
X386376Y362749D01*
Y362668D01*
X386372Y362579D01*
Y362479D01*
X386368Y362368D01*
Y362257D01*
Y362135D01*
X386365Y362009D01*
Y361880D01*
Y361746D01*
X386361Y361476D01*
Y361203D01*
Y360936D01*
X386357Y360803D01*
Y360677D01*
Y360559D01*
Y360444D01*
Y360333D01*
Y360233D01*
Y360141D01*
Y360059D01*
Y359985D01*
Y359922D01*
Y359874D01*
Y359837D01*
Y359826D01*
Y359815D01*
Y359811D01*
Y359808D01*
X388255D01*
X388004Y359556D01*
X387885Y359582D01*
X387771Y359604D01*
X387656Y359619D01*
X387552Y359626D01*
X387508Y359630D01*
X387464Y359634D01*
X387427D01*
X387397Y359637D01*
X383061D01*
X383534Y360167D01*
X383897Y359808D01*
X384848D01*
Y360529D01*
X384652Y360707D01*
X384559Y360792D01*
X384470Y360877D01*
X384385Y360958D01*
X384304Y361040D01*
X384230Y361114D01*
X384159Y361184D01*
X384097Y361247D01*
X384041Y361302D01*
X383989Y361354D01*
X383949Y361399D01*
X383915Y361432D01*
X383889Y361458D01*
X383875Y361476D01*
X383871Y361480D01*
X383793Y361565D01*
X383719Y361639D01*
X383653Y361706D01*
X383586Y361761D01*
X383527Y361813D01*
X383471Y361857D01*
X383423Y361891D01*
X383375Y361924D01*
X383334Y361946D01*
X383297Y361968D01*
X383268Y361983D01*
X383242Y361994D01*
X383223Y362002D01*
X383209Y362005D01*
X383201Y362009D01*
X383197D01*
X383701Y362457D01*
X383764Y362313D01*
X383838Y362164D01*
X383919Y362017D01*
X384008Y361869D01*
X384104Y361720D01*
X384200Y361576D01*
X384296Y361439D01*
X384389Y361310D01*
X384481Y361184D01*
X384566Y361073D01*
X384644Y360973D01*
X384678Y360929D01*
X384711Y360888D01*
X384740Y360855D01*
X384766Y360821D01*
X384792Y360792D01*
X384811Y360770D01*
X384825Y360751D01*
X384837Y360736D01*
X384844Y360729D01*
X384848Y360725D01*
Y362457D01*
X384652Y362623D01*
X385240Y362930D01*
X385236Y362879D01*
Y362812D01*
X385232Y362738D01*
X385229Y362653D01*
Y362560D01*
X385225Y362457D01*
Y362346D01*
X385221Y362231D01*
Y362109D01*
Y361983D01*
X385218Y361854D01*
Y361724D01*
X385214Y361454D01*
Y361180D01*
Y360918D01*
Y360788D01*
X385210Y360662D01*
Y360544D01*
Y360433D01*
Y360326D01*
Y360226D01*
Y360133D01*
Y360052D01*
Y359981D01*
Y359922D01*
Y359874D01*
Y359837D01*
Y359815D01*
Y359811D01*
Y359808D01*
X385991D01*
Y362486D01*
X385769Y362683D01*
X386383Y362930D01*
X386380Y362882D01*
D02*
G37*
G36*
X393646Y361587D02*
X393676Y361521D01*
X393709Y361454D01*
X393746Y361387D01*
X393828Y361247D01*
X393909Y361110D01*
X393950Y361051D01*
X393987Y360992D01*
X394020Y360940D01*
X394053Y360895D01*
X394075Y360858D01*
X394098Y360829D01*
X394109Y360814D01*
X394112Y360807D01*
X394257Y360614D01*
X394335Y360522D01*
X394408Y360437D01*
X394482Y360355D01*
X394556Y360278D01*
X394627Y360204D01*
X394693Y360137D01*
X394756Y360078D01*
X394815Y360022D01*
X394864Y359974D01*
X394908Y359937D01*
X394945Y359904D01*
X394971Y359882D01*
X394986Y359867D01*
X394993Y359863D01*
X394938Y359778D01*
X394834Y359837D01*
X394730Y359904D01*
X394527Y360041D01*
X394431Y360115D01*
X394338Y360185D01*
X394249Y360255D01*
X394168Y360326D01*
X394094Y360388D01*
X394027Y360451D01*
X393968Y360503D01*
X393916Y360551D01*
X393876Y360588D01*
X393846Y360618D01*
X393828Y360636D01*
X393820Y360644D01*
X393724Y360744D01*
X393639Y360829D01*
X393558Y360907D01*
X393487Y360969D01*
X393421Y361029D01*
X393365Y361073D01*
X393313Y361114D01*
X393269Y361147D01*
X393232Y361173D01*
X393202Y361191D01*
X393176Y361206D01*
X393154Y361217D01*
X393139Y361221D01*
X393128Y361225D01*
X393125Y361228D01*
X393121D01*
X393624Y361647D01*
X393646Y361587D01*
D02*
G37*
G36*
X417341Y361443D02*
X417415Y361247D01*
X417493Y361062D01*
X417570Y360888D01*
X417652Y360725D01*
X417730Y360574D01*
X417807Y360433D01*
X417881Y360307D01*
X417948Y360192D01*
X418014Y360092D01*
X418070Y360007D01*
X418096Y359970D01*
X418122Y359933D01*
X418144Y359904D01*
X418162Y359878D01*
X418177Y359856D01*
X418192Y359837D01*
X418203Y359822D01*
X418211Y359811D01*
X418218Y359808D01*
Y359804D01*
X418137Y359748D01*
X418033Y359845D01*
X417926Y359948D01*
X417822Y360059D01*
X417719Y360174D01*
X417619Y360296D01*
X417519Y360414D01*
X417426Y360537D01*
X417341Y360651D01*
X417260Y360762D01*
X417186Y360866D01*
X417123Y360958D01*
X417067Y361040D01*
X417045Y361073D01*
X417023Y361106D01*
X417004Y361132D01*
X416990Y361154D01*
X416979Y361173D01*
X416971Y361188D01*
X416964Y361195D01*
Y361199D01*
X416738Y361310D01*
X417271Y361647D01*
X417341Y361443D01*
D02*
G37*
G36*
X387700Y364325D02*
X387786Y364111D01*
X387867Y363911D01*
X387941Y363722D01*
X388015Y363545D01*
X388082Y363378D01*
X388144Y363223D01*
X388204Y363078D01*
X388259Y362945D01*
X388311Y362819D01*
X388359Y362708D01*
X388403Y362601D01*
X388444Y362505D01*
X388481Y362416D01*
X388514Y362338D01*
X388548Y362264D01*
X388577Y362198D01*
X388603Y362142D01*
X388625Y362090D01*
X388648Y362042D01*
X388666Y362005D01*
X388681Y361968D01*
X388696Y361943D01*
X388707Y361917D01*
X388718Y361894D01*
X388725Y361880D01*
X388740Y361857D01*
X388744Y361846D01*
X388748Y361843D01*
X388777Y361802D01*
X388803Y361769D01*
X388829Y361735D01*
X388855Y361709D01*
X388903Y361665D01*
X388944Y361635D01*
X388977Y361613D01*
X389003Y361598D01*
X389018Y361591D01*
X389025D01*
X389051Y361587D01*
X389088Y361584D01*
X389173D01*
X389269Y361587D01*
X389373Y361595D01*
X389421Y361602D01*
X389469Y361606D01*
X389510Y361610D01*
X389547Y361613D01*
X389580Y361617D01*
X389602D01*
X389621Y361621D01*
X389624D01*
Y361506D01*
X389554Y361484D01*
X389491Y361465D01*
X389432Y361447D01*
X389376Y361424D01*
X389332Y361410D01*
X389288Y361391D01*
X389251Y361373D01*
X389217Y361358D01*
X389192Y361347D01*
X389166Y361332D01*
X389147Y361321D01*
X389132Y361314D01*
X389121Y361306D01*
X389114Y361299D01*
X389106Y361295D01*
X389066Y361258D01*
X389032Y361214D01*
X389010Y361169D01*
X388995Y361128D01*
X388988Y361091D01*
X388981Y361058D01*
Y361040D01*
Y361036D01*
Y361032D01*
Y360999D01*
X388984Y360962D01*
X388999Y360884D01*
X389018Y360799D01*
X389036Y360718D01*
X389058Y360644D01*
X389069Y360614D01*
X389077Y360585D01*
X389084Y360562D01*
X389092Y360544D01*
X389095Y360533D01*
Y360529D01*
X389121Y360437D01*
X389143Y360351D01*
X389158Y360278D01*
X389166Y360211D01*
X389173Y360155D01*
Y360133D01*
X389177Y360115D01*
Y360100D01*
Y360089D01*
Y360085D01*
Y360081D01*
X389173Y360041D01*
X389169Y360004D01*
X389147Y359941D01*
X389114Y359885D01*
X389077Y359841D01*
X389043Y359808D01*
X389010Y359785D01*
X388988Y359771D01*
X388984Y359767D01*
X388981D01*
X388914Y359734D01*
X388855Y359708D01*
X388807Y359693D01*
X388770Y359678D01*
X388740Y359671D01*
X388718Y359667D01*
X388703D01*
X388673Y359671D01*
X388655Y359685D01*
X388640Y359704D01*
X388629Y359722D01*
X388622Y359745D01*
X388618Y359759D01*
Y359774D01*
Y359778D01*
Y359819D01*
Y359863D01*
Y359911D01*
X388614Y359967D01*
Y360078D01*
X388611Y360185D01*
Y360241D01*
Y360289D01*
Y360333D01*
X388607Y360370D01*
Y360403D01*
Y360425D01*
Y360444D01*
Y360448D01*
X388599Y360622D01*
X388592Y360703D01*
X388588Y360781D01*
X388581Y360858D01*
X388574Y360929D01*
X388566Y360995D01*
X388559Y361058D01*
X388551Y361114D01*
X388544Y361162D01*
X388537Y361206D01*
X388533Y361243D01*
X388529Y361269D01*
X388526Y361291D01*
X388522Y361306D01*
Y361310D01*
X388514Y361354D01*
X388500Y361410D01*
X388481Y361480D01*
X388459Y361561D01*
X388433Y361650D01*
X388400Y361754D01*
X388370Y361861D01*
X388333Y361980D01*
X388292Y362102D01*
X388255Y362231D01*
X388211Y362364D01*
X388167Y362501D01*
X388078Y362782D01*
X387985Y363064D01*
X387893Y363345D01*
X387848Y363478D01*
X387804Y363611D01*
X387763Y363737D01*
X387723Y363859D01*
X387686Y363974D01*
X387649Y364077D01*
X387619Y364174D01*
X387589Y364262D01*
X387563Y364340D01*
X387541Y364403D01*
X387523Y364455D01*
X387512Y364492D01*
X387508Y364507D01*
X387504Y364518D01*
X387501Y364521D01*
Y364525D01*
X387612Y364551D01*
X387700Y364325D01*
D02*
G37*
G36*
X394908Y365280D02*
X396000D01*
X396362Y365531D01*
X396358Y365439D01*
Y365343D01*
X396355Y365239D01*
X396351Y365136D01*
X396347Y364910D01*
X396344Y364677D01*
Y364440D01*
X396340Y364199D01*
X396336Y363959D01*
Y363730D01*
Y363615D01*
Y363508D01*
Y363404D01*
X396333Y363304D01*
Y363208D01*
Y363119D01*
Y363034D01*
Y362956D01*
Y362886D01*
Y362823D01*
Y362768D01*
Y362723D01*
Y362686D01*
Y362660D01*
Y362646D01*
Y362638D01*
Y362279D01*
Y361939D01*
Y361772D01*
X396336Y361610D01*
Y361450D01*
Y361295D01*
X396340Y361143D01*
Y360999D01*
Y360858D01*
Y360721D01*
X396344Y360592D01*
Y360466D01*
X396347Y360344D01*
Y360229D01*
Y360118D01*
X396351Y360018D01*
Y359919D01*
Y359826D01*
X396355Y359745D01*
Y359663D01*
Y359593D01*
X396358Y359526D01*
Y359471D01*
Y359419D01*
Y359375D01*
X396362Y359341D01*
Y359312D01*
Y359290D01*
Y359278D01*
Y359275D01*
X396000Y359471D01*
Y365113D01*
X394908D01*
X395522Y363434D01*
X395419Y363300D01*
X395326Y363175D01*
X395245Y363056D01*
X395174Y362942D01*
X395115Y362838D01*
X395063Y362738D01*
X395019Y362649D01*
X394982Y362568D01*
X394952Y362494D01*
X394930Y362431D01*
X394912Y362375D01*
X394901Y362331D01*
X394889Y362294D01*
X394886Y362268D01*
X394882Y362250D01*
Y362246D01*
X394875Y362164D01*
X394867Y362087D01*
Y362020D01*
Y361957D01*
X394871Y361902D01*
X394878Y361850D01*
X394886Y361806D01*
X394893Y361769D01*
X394901Y361732D01*
X394912Y361706D01*
X394923Y361684D01*
X394930Y361665D01*
X394938Y361650D01*
X394945Y361639D01*
X394949Y361635D01*
Y361632D01*
X395001Y361580D01*
X395060Y361543D01*
X395123Y361517D01*
X395185Y361498D01*
X395241Y361487D01*
X395285Y361484D01*
X395300Y361480D01*
X395326D01*
X395422Y361484D01*
X395518Y361495D01*
X395615Y361506D01*
X395700Y361524D01*
X395741Y361532D01*
X395774Y361539D01*
X395807Y361547D01*
X395833Y361550D01*
X395855Y361558D01*
X395870Y361561D01*
X395881Y361565D01*
X395885D01*
Y361450D01*
X395792Y361413D01*
X395707Y361369D01*
X395633Y361325D01*
X395567Y361280D01*
X395507Y361236D01*
X395459Y361188D01*
X395415Y361143D01*
X395378Y361099D01*
X395348Y361054D01*
X395326Y361017D01*
X395308Y360981D01*
X395293Y360951D01*
X395282Y360925D01*
X395274Y360907D01*
X395271Y360895D01*
Y360892D01*
X395200Y360925D01*
X395134Y360958D01*
X395071Y360992D01*
X395015Y361029D01*
X394964Y361062D01*
X394915Y361095D01*
X394871Y361128D01*
X394834Y361158D01*
X394797Y361188D01*
X394767Y361214D01*
X394742Y361240D01*
X394723Y361258D01*
X394708Y361277D01*
X394693Y361288D01*
X394690Y361295D01*
X394686Y361299D01*
X394653Y361343D01*
X394619Y361391D01*
X394568Y361480D01*
X394531Y361569D01*
X394501Y361654D01*
X394490Y361691D01*
X394482Y361724D01*
X394475Y361754D01*
X394471Y361780D01*
X394468Y361798D01*
X394464Y361817D01*
Y361824D01*
Y361828D01*
X394460Y361939D01*
X394464Y362050D01*
X394475Y362153D01*
X394494Y362246D01*
X394501Y362287D01*
X394512Y362327D01*
X394519Y362361D01*
X394527Y362386D01*
X394534Y362412D01*
X394542Y362427D01*
X394545Y362438D01*
Y362442D01*
X394571Y362505D01*
X394612Y362579D01*
X394664Y362653D01*
X394723Y362734D01*
X394790Y362816D01*
X394860Y362897D01*
X394930Y362979D01*
X395004Y363060D01*
X395078Y363134D01*
X395145Y363204D01*
X395211Y363267D01*
X395267Y363323D01*
X395315Y363371D01*
X395348Y363404D01*
X395363Y363415D01*
X395374Y363426D01*
X395378Y363434D01*
X395382D01*
X394490Y364999D01*
X394238Y365169D01*
X394631Y365557D01*
X394908Y365280D01*
D02*
G37*
G36*
X285125Y191024D02*
Y190987D01*
X285121Y190946D01*
Y190902D01*
X285117Y190802D01*
X285114Y190695D01*
X285110Y190580D01*
Y190462D01*
X285106Y190340D01*
Y190221D01*
Y190106D01*
X285102Y189996D01*
Y189896D01*
Y189811D01*
Y189770D01*
Y189736D01*
Y189707D01*
Y189681D01*
Y189659D01*
Y189644D01*
Y189637D01*
Y189633D01*
Y189433D01*
Y189252D01*
X285106Y189078D01*
Y188919D01*
X285110Y188775D01*
Y188641D01*
X285114Y188519D01*
Y188412D01*
X285117Y188319D01*
X285121Y188238D01*
Y188168D01*
X285125Y188112D01*
Y188068D01*
X285128Y188038D01*
Y188020D01*
Y188012D01*
X284736Y188179D01*
Y188405D01*
X282531D01*
Y188094D01*
X282139Y188234D01*
X282142Y188301D01*
Y188371D01*
X282146Y188449D01*
X282150Y188527D01*
Y188612D01*
X282154Y188700D01*
X282157Y188885D01*
Y189078D01*
X282161Y189270D01*
X282165Y189466D01*
Y189659D01*
Y189844D01*
Y189933D01*
X282168Y190018D01*
Y190099D01*
Y190173D01*
Y190243D01*
Y190310D01*
Y190369D01*
Y190425D01*
Y190473D01*
Y190510D01*
Y190543D01*
Y190565D01*
Y190580D01*
Y190584D01*
X281972Y190750D01*
X282390Y191057D01*
X282586Y190780D01*
X284736D01*
X285128Y191057D01*
X285125Y191024D01*
D02*
G37*
G36*
X270288Y191335D02*
X270232Y191268D01*
X270180Y191205D01*
X270136Y191150D01*
X270095Y191094D01*
X270058Y191046D01*
X270025Y190998D01*
X269995Y190957D01*
X269969Y190920D01*
X269947Y190887D01*
X269932Y190858D01*
X269918Y190832D01*
X269903Y190813D01*
X269895Y190798D01*
X269888Y190787D01*
X269884Y190780D01*
Y190776D01*
X269851Y190706D01*
X269821Y190636D01*
X269799Y190576D01*
X269781Y190521D01*
X269770Y190477D01*
X269762Y190443D01*
X269755Y190421D01*
Y190417D01*
Y190414D01*
X271964D01*
X272437Y190691D01*
X272426Y190587D01*
X272419Y190469D01*
X272411Y190343D01*
X272408Y190214D01*
X272400Y189944D01*
X272397Y189807D01*
Y189677D01*
Y189551D01*
X272393Y189437D01*
Y189333D01*
X272397Y189285D01*
Y189241D01*
Y189200D01*
Y189163D01*
Y189133D01*
Y189108D01*
Y189089D01*
Y189070D01*
Y189063D01*
Y189059D01*
X272400Y188852D01*
X272408Y188649D01*
X272415Y188449D01*
X272426Y188257D01*
X272441Y188068D01*
X272456Y187890D01*
X272471Y187720D01*
X272485Y187565D01*
X272500Y187420D01*
X272508Y187354D01*
X272515Y187291D01*
X272519Y187232D01*
X272526Y187176D01*
X272533Y187124D01*
X272537Y187080D01*
X272545Y187036D01*
X272548Y186998D01*
X272552Y186969D01*
X272556Y186943D01*
X272559Y186921D01*
Y186906D01*
X272563Y186899D01*
Y186895D01*
X272596Y186699D01*
X272637Y186503D01*
X272685Y186314D01*
X272741Y186129D01*
X272796Y185951D01*
X272855Y185785D01*
X272918Y185626D01*
X272977Y185478D01*
X273037Y185345D01*
X273066Y185282D01*
X273092Y185222D01*
X273118Y185171D01*
X273144Y185119D01*
X273166Y185071D01*
X273188Y185030D01*
X273207Y184989D01*
X273225Y184956D01*
X273240Y184926D01*
X273251Y184904D01*
X273262Y184886D01*
X273270Y184871D01*
X273277Y184864D01*
Y184860D01*
X273192Y184801D01*
X273040Y185015D01*
X272974Y185123D01*
X272907Y185230D01*
X272844Y185334D01*
X272789Y185433D01*
X272737Y185533D01*
X272689Y185626D01*
X272644Y185711D01*
X272607Y185789D01*
X272574Y185855D01*
X272545Y185914D01*
X272526Y185962D01*
X272508Y186000D01*
X272500Y186022D01*
X272497Y186029D01*
X272445Y186159D01*
X272397Y186292D01*
X272315Y186562D01*
X272278Y186699D01*
X272245Y186832D01*
X272215Y186961D01*
X272186Y187084D01*
X272164Y187198D01*
X272145Y187302D01*
X272127Y187398D01*
X272119Y187439D01*
X272112Y187479D01*
X272108Y187513D01*
X272104Y187542D01*
X272097Y187572D01*
Y187594D01*
X272093Y187613D01*
X272090Y187624D01*
Y187631D01*
Y187635D01*
X272078Y187724D01*
X272067Y187820D01*
X272049Y188016D01*
X272034Y188223D01*
X272019Y188438D01*
X272012Y188656D01*
X272001Y188874D01*
X271997Y189085D01*
X271993Y189293D01*
X271990Y189489D01*
Y189581D01*
Y189666D01*
X271986Y189751D01*
Y189829D01*
Y189903D01*
Y189970D01*
Y190032D01*
X271990Y190088D01*
Y190132D01*
Y190173D01*
Y190206D01*
Y190229D01*
Y190243D01*
Y190247D01*
X266821D01*
X267379Y190806D01*
X267772Y190414D01*
X269588D01*
X269548Y190451D01*
X269514Y190484D01*
X269485Y190521D01*
X269459Y190554D01*
X269437Y190584D01*
X269418Y190613D01*
X269392Y190669D01*
X269374Y190713D01*
X269366Y190747D01*
X269363Y190769D01*
Y190776D01*
X269366Y190791D01*
X269377Y190817D01*
X269396Y190847D01*
X269411Y190880D01*
X269429Y190909D01*
X269448Y190935D01*
X269459Y190950D01*
X269462Y190957D01*
X269485Y190987D01*
X269522Y191020D01*
X269566Y191057D01*
X269618Y191091D01*
X269677Y191128D01*
X269740Y191165D01*
X269869Y191235D01*
X269932Y191268D01*
X269995Y191298D01*
X270051Y191324D01*
X270099Y191350D01*
X270143Y191368D01*
X270173Y191383D01*
X270195Y191390D01*
X270199Y191394D01*
X270202D01*
X270288Y191335D01*
D02*
G37*
G36*
X286945Y191028D02*
X286871Y190943D01*
X286801Y190858D01*
X286734Y190780D01*
X286675Y190706D01*
X286623Y190636D01*
X286575Y190573D01*
X286531Y190514D01*
X286494Y190462D01*
X286460Y190414D01*
X286431Y190369D01*
X286408Y190332D01*
X286390Y190303D01*
X286375Y190280D01*
X286364Y190262D01*
X286360Y190251D01*
X286357Y190247D01*
X286342Y190214D01*
X286327Y190184D01*
X286312Y190155D01*
X286301Y190132D01*
X286279Y190099D01*
X286257Y190077D01*
X286242Y190062D01*
X286231Y190055D01*
X286224Y190051D01*
X286220D01*
X286198Y190058D01*
X286175Y190073D01*
X286153Y190099D01*
X286135Y190129D01*
X286120Y190155D01*
X286105Y190181D01*
X286098Y190195D01*
X286094Y190203D01*
X286072Y190258D01*
X286053Y190310D01*
X286042Y190354D01*
X286031Y190395D01*
X286027Y190425D01*
X286024Y190451D01*
Y190465D01*
Y190469D01*
Y190495D01*
X286031Y190521D01*
X286050Y190573D01*
X286075Y190621D01*
X286105Y190662D01*
X286138Y190699D01*
X286164Y190728D01*
X286183Y190743D01*
X286187Y190750D01*
X286190D01*
X286227Y190776D01*
X286268Y190806D01*
X286316Y190835D01*
X286368Y190861D01*
X286486Y190920D01*
X286601Y190972D01*
X286660Y190995D01*
X286712Y191017D01*
X286760Y191039D01*
X286804Y191054D01*
X286838Y191068D01*
X286867Y191080D01*
X286882Y191083D01*
X286890Y191087D01*
X286945Y191028D01*
D02*
G37*
G36*
X279845Y191057D02*
X279771Y190965D01*
X279700Y190876D01*
X279638Y190795D01*
X279582Y190713D01*
X279530Y190639D01*
X279486Y190569D01*
X279445Y190506D01*
X279408Y190451D01*
X279379Y190395D01*
X279353Y190351D01*
X279330Y190310D01*
X279316Y190277D01*
X279301Y190251D01*
X279293Y190232D01*
X279286Y190221D01*
Y190217D01*
X279275Y190177D01*
X279264Y190144D01*
X279249Y190114D01*
X279238Y190088D01*
X279223Y190069D01*
X279208Y190051D01*
X279182Y190025D01*
X279156Y190007D01*
X279138Y189999D01*
X279123Y189996D01*
X279119D01*
X279097Y189999D01*
X279075Y190014D01*
X279049Y190036D01*
X279027Y190058D01*
X279009Y190081D01*
X278994Y190103D01*
X278983Y190118D01*
X278979Y190121D01*
X278949Y190169D01*
X278931Y190217D01*
X278916Y190262D01*
X278905Y190303D01*
X278898Y190336D01*
X278894Y190366D01*
Y190380D01*
Y190388D01*
X278898Y190421D01*
X278901Y190458D01*
X278912Y190495D01*
X278920Y190528D01*
X278931Y190562D01*
X278942Y190587D01*
X278946Y190602D01*
X278949Y190610D01*
X278957Y190624D01*
X278968Y190639D01*
X278983Y190654D01*
X279001Y190673D01*
X279046Y190710D01*
X279105Y190754D01*
X279168Y190795D01*
X279238Y190839D01*
X279316Y190884D01*
X279390Y190928D01*
X279464Y190972D01*
X279538Y191009D01*
X279604Y191046D01*
X279667Y191080D01*
X279715Y191105D01*
X279756Y191124D01*
X279771Y191131D01*
X279782Y191139D01*
X279785Y191142D01*
X279789D01*
X279845Y191057D01*
D02*
G37*
G36*
X270669Y189951D02*
X270665Y189866D01*
X270661Y189781D01*
X270658Y189699D01*
Y189622D01*
X270654Y189551D01*
Y189489D01*
Y189426D01*
X270650Y189374D01*
Y189326D01*
Y189289D01*
Y189255D01*
Y189233D01*
Y189218D01*
Y189215D01*
X271934D01*
X271712Y188989D01*
X271375Y189048D01*
X270650D01*
Y188915D01*
Y188782D01*
X270654Y188660D01*
Y188538D01*
X270658Y188427D01*
Y188319D01*
X270661Y188219D01*
Y188131D01*
X270665Y188046D01*
X270669Y187975D01*
Y187909D01*
X270672Y187857D01*
Y187812D01*
X270676Y187783D01*
Y187764D01*
Y187757D01*
X270288Y187927D01*
Y188068D01*
X268723D01*
Y187816D01*
X268330Y187983D01*
X268334Y188034D01*
X268341Y188101D01*
X268345Y188175D01*
X268349Y188257D01*
Y188342D01*
X268353Y188430D01*
X268356Y188612D01*
Y188697D01*
X268360Y188778D01*
Y188852D01*
Y188919D01*
Y188971D01*
Y188993D01*
Y189011D01*
Y189030D01*
Y189041D01*
Y189045D01*
Y189048D01*
X266935D01*
X267464Y189577D01*
X267827Y189215D01*
X268360D01*
Y189663D01*
X268108Y189829D01*
X268748Y190106D01*
X268741Y189947D01*
X268734Y189792D01*
X268730Y189640D01*
X268726Y189570D01*
Y189503D01*
Y189444D01*
X268723Y189385D01*
Y189337D01*
Y189296D01*
Y189263D01*
Y189237D01*
Y189218D01*
Y189215D01*
X270288D01*
Y189688D01*
X270062Y189829D01*
X270676Y190136D01*
X270669Y189951D01*
D02*
G37*
G36*
X287474Y189463D02*
X287400Y189363D01*
X287330Y189267D01*
X287271Y189178D01*
X287215Y189096D01*
X287167Y189022D01*
X287123Y188952D01*
X287086Y188889D01*
X287052Y188834D01*
X287026Y188786D01*
X287000Y188745D01*
X286982Y188708D01*
X286967Y188678D01*
X286956Y188656D01*
X286949Y188641D01*
X286945Y188630D01*
Y188627D01*
X286934Y188593D01*
X286923Y188564D01*
X286915Y188534D01*
X286904Y188512D01*
X286886Y188479D01*
X286867Y188456D01*
X286856Y188442D01*
X286845Y188434D01*
X286838Y188430D01*
X286834D01*
X286812Y188438D01*
X286786Y188453D01*
X286756Y188479D01*
X286730Y188508D01*
X286704Y188534D01*
X286686Y188560D01*
X286671Y188575D01*
X286667Y188582D01*
X286649Y188612D01*
X286631Y188641D01*
X286608Y188708D01*
X286597Y188771D01*
X286594Y188830D01*
X286597Y188882D01*
X286601Y188923D01*
X286605Y188937D01*
Y188948D01*
X286608Y188956D01*
Y188960D01*
X286616Y188982D01*
X286627Y189004D01*
X286660Y189048D01*
X286704Y189096D01*
X286760Y189141D01*
X286819Y189189D01*
X286890Y189237D01*
X287034Y189322D01*
X287108Y189363D01*
X287178Y189400D01*
X287241Y189433D01*
X287300Y189463D01*
X287348Y189485D01*
X287385Y189503D01*
X287400Y189511D01*
X287411Y189515D01*
X287415Y189518D01*
X287419D01*
X287474Y189463D01*
D02*
G37*
G36*
X280348Y189492D02*
X280263Y189400D01*
X280185Y189311D01*
X280115Y189226D01*
X280052Y189145D01*
X279996Y189067D01*
X279945Y188997D01*
X279900Y188930D01*
X279863Y188871D01*
X279830Y188815D01*
X279804Y188767D01*
X279782Y188726D01*
X279763Y188689D01*
X279749Y188663D01*
X279741Y188645D01*
X279734Y188630D01*
Y188627D01*
X279719Y188582D01*
X279700Y188545D01*
X279686Y188512D01*
X279671Y188482D01*
X279656Y188456D01*
X279641Y188438D01*
X279615Y188408D01*
X279593Y188390D01*
X279578Y188379D01*
X279567Y188375D01*
X279563D01*
X279549Y188379D01*
X279530Y188393D01*
X279508Y188416D01*
X279486Y188438D01*
X279464Y188460D01*
X279445Y188482D01*
X279430Y188497D01*
X279427Y188501D01*
X279390Y188552D01*
X279364Y188615D01*
X279349Y188682D01*
X279338Y188745D01*
X279330Y188800D01*
Y188826D01*
Y188848D01*
Y188867D01*
Y188882D01*
Y188889D01*
Y188893D01*
X279334Y188919D01*
X279342Y188945D01*
X279356Y188971D01*
X279375Y189000D01*
X279397Y189026D01*
X279423Y189056D01*
X279486Y189111D01*
X279560Y189170D01*
X279641Y189226D01*
X279726Y189281D01*
X279815Y189337D01*
X279904Y189385D01*
X279989Y189429D01*
X280070Y189474D01*
X280144Y189507D01*
X280204Y189537D01*
X280229Y189548D01*
X280252Y189559D01*
X280270Y189566D01*
X280281Y189574D01*
X280289Y189577D01*
X280292D01*
X280348Y189492D01*
D02*
G37*
G36*
X275068Y190780D02*
X277525D01*
X277947Y191032D01*
X277943Y191002D01*
Y190969D01*
X277939Y190932D01*
X277936Y190887D01*
Y190843D01*
X277932Y190791D01*
X277928Y190684D01*
Y190565D01*
X277924Y190443D01*
X277921Y190192D01*
Y190069D01*
X277917Y189955D01*
Y189848D01*
Y189799D01*
Y189751D01*
Y189711D01*
Y189674D01*
Y189640D01*
Y189614D01*
Y189592D01*
Y189577D01*
Y189566D01*
Y189563D01*
Y189455D01*
Y189352D01*
Y189255D01*
Y189163D01*
Y189074D01*
X277921Y188993D01*
Y188915D01*
Y188845D01*
X277924Y188775D01*
Y188712D01*
Y188652D01*
Y188597D01*
X277928Y188545D01*
Y188497D01*
X277932Y188453D01*
Y188416D01*
X277936Y188345D01*
Y188286D01*
X277939Y188242D01*
X277943Y188208D01*
Y188182D01*
X277947Y188164D01*
Y188157D01*
Y188153D01*
X277554Y188323D01*
Y188575D01*
X275012D01*
Y188294D01*
X274620Y188434D01*
X274624Y188464D01*
Y188504D01*
X274628Y188552D01*
X274631Y188608D01*
Y188667D01*
X274635Y188734D01*
Y188808D01*
X274639Y188885D01*
Y188971D01*
Y189056D01*
X274642Y189237D01*
X274646Y189422D01*
Y189614D01*
Y189799D01*
X274650Y189977D01*
Y190062D01*
Y190140D01*
Y190217D01*
Y190288D01*
Y190351D01*
Y190410D01*
Y190462D01*
Y190502D01*
Y190536D01*
Y190562D01*
Y190580D01*
Y190584D01*
X274454Y190750D01*
X274898Y191057D01*
X275068Y190780D01*
D02*
G37*
G36*
X285595Y187679D02*
X285587Y187550D01*
X285583Y187491D01*
Y187435D01*
X285580Y187383D01*
Y187335D01*
Y187294D01*
X285576Y187258D01*
Y187224D01*
Y187198D01*
Y187176D01*
Y187161D01*
Y187150D01*
Y187146D01*
Y185308D01*
X286331D01*
X286079Y185056D01*
X285961Y185082D01*
X285846Y185104D01*
X285731Y185119D01*
X285628Y185126D01*
X285583Y185130D01*
X285539Y185134D01*
X285502D01*
X285472Y185137D01*
X280936D01*
X281358Y185641D01*
X281691Y185308D01*
X281776D01*
Y187317D01*
X281580Y187513D01*
X281998Y187820D01*
X282168Y187568D01*
X285213D01*
X285602Y187820D01*
X285595Y187679D01*
D02*
G37*
G36*
X268471Y187483D02*
X271405D01*
X271179Y187258D01*
X270928Y187317D01*
X270650D01*
X270565Y187172D01*
X270480Y187036D01*
X270395Y186902D01*
X270310Y186780D01*
X270225Y186665D01*
X270143Y186555D01*
X270066Y186455D01*
X269992Y186366D01*
X269925Y186281D01*
X269862Y186210D01*
X269807Y186147D01*
X269759Y186096D01*
X269722Y186055D01*
X269692Y186025D01*
X269677Y186007D01*
X269670Y186000D01*
X269899Y185855D01*
X270128Y185722D01*
X270365Y185600D01*
X270595Y185489D01*
X270824Y185389D01*
X271046Y185304D01*
X271261Y185222D01*
X271461Y185156D01*
X271557Y185123D01*
X271649Y185097D01*
X271738Y185071D01*
X271819Y185045D01*
X271897Y185023D01*
X271971Y185004D01*
X272041Y184986D01*
X272101Y184971D01*
X272160Y184960D01*
X272208Y184945D01*
X272249Y184938D01*
X272286Y184930D01*
X272315Y184923D01*
X272334Y184919D01*
X272348Y184915D01*
X272352D01*
X272326Y184801D01*
X272034Y184845D01*
X271753Y184897D01*
X271475Y184960D01*
X271213Y185030D01*
X270957Y185108D01*
X270839Y185149D01*
X270721Y185186D01*
X270606Y185226D01*
X270495Y185267D01*
X270388Y185308D01*
X270288Y185348D01*
X270191Y185389D01*
X270099Y185426D01*
X270010Y185463D01*
X269929Y185500D01*
X269851Y185533D01*
X269781Y185567D01*
X269714Y185600D01*
X269655Y185626D01*
X269603Y185655D01*
X269555Y185678D01*
X269514Y185700D01*
X269481Y185715D01*
X269455Y185729D01*
X269437Y185740D01*
X269426Y185744D01*
X269422Y185748D01*
X269270Y185637D01*
X269107Y185537D01*
X268937Y185441D01*
X268763Y185356D01*
X268589Y185278D01*
X268412Y185208D01*
X268242Y185145D01*
X268079Y185089D01*
X267923Y185041D01*
X267779Y184997D01*
X267716Y184978D01*
X267653Y184964D01*
X267594Y184949D01*
X267542Y184934D01*
X267494Y184923D01*
X267450Y184912D01*
X267413Y184904D01*
X267383Y184897D01*
X267357Y184893D01*
X267339Y184889D01*
X267328Y184886D01*
X267324D01*
X267305Y184938D01*
X267280Y184982D01*
X267246Y185023D01*
X267206Y185060D01*
X267165Y185093D01*
X267120Y185123D01*
X267028Y185174D01*
X266939Y185208D01*
X266902Y185222D01*
X266865Y185230D01*
X266835Y185241D01*
X266813Y185245D01*
X266798Y185248D01*
X266795D01*
Y185363D01*
X267065Y185378D01*
X267320Y185404D01*
X267446Y185422D01*
X267564Y185441D01*
X267679Y185459D01*
X267790Y185482D01*
X267897Y185504D01*
X268001Y185530D01*
X268101Y185556D01*
X268197Y185581D01*
X268290Y185607D01*
X268375Y185633D01*
X268460Y185663D01*
X268537Y185689D01*
X268612Y185718D01*
X268682Y185744D01*
X268748Y185770D01*
X268808Y185796D01*
X268867Y185818D01*
X268919Y185844D01*
X268963Y185866D01*
X269007Y185885D01*
X269044Y185903D01*
X269078Y185922D01*
X269107Y185937D01*
X269129Y185951D01*
X269148Y185959D01*
X269159Y185966D01*
X269166Y185974D01*
X269170D01*
X269085Y186051D01*
X268996Y186136D01*
X268904Y186229D01*
X268811Y186329D01*
X268626Y186525D01*
X268541Y186625D01*
X268456Y186721D01*
X268378Y186813D01*
X268304Y186899D01*
X268242Y186976D01*
X268186Y187043D01*
X268142Y187098D01*
X268123Y187121D01*
X268108Y187139D01*
X268093Y187158D01*
X268086Y187169D01*
X268079Y187172D01*
Y187176D01*
X267801Y187313D01*
X268219Y187735D01*
X268471Y187483D01*
D02*
G37*
G36*
X278587Y187764D02*
X278520Y187664D01*
X278461Y187572D01*
X278405Y187479D01*
X278357Y187394D01*
X278309Y187309D01*
X278269Y187232D01*
X278232Y187161D01*
X278202Y187095D01*
X278172Y187036D01*
X278150Y186980D01*
X278132Y186936D01*
X278113Y186895D01*
X278102Y186865D01*
X278095Y186843D01*
X278087Y186828D01*
Y186825D01*
X278035Y186680D01*
X278013Y186610D01*
X277991Y186547D01*
X277973Y186488D01*
X277954Y186432D01*
X277936Y186381D01*
X277921Y186332D01*
X277910Y186288D01*
X277895Y186251D01*
X277884Y186218D01*
X277876Y186192D01*
X277869Y186170D01*
X277865Y186155D01*
X277861Y186144D01*
Y186140D01*
X277850Y186096D01*
X277836Y186062D01*
X277821Y186037D01*
X277806Y186022D01*
X277795Y186011D01*
X277784Y186007D01*
X277780Y186003D01*
X277776D01*
X277765Y186007D01*
X277754Y186011D01*
X277728Y186029D01*
X277699Y186055D01*
X277673Y186088D01*
X277647Y186118D01*
X277628Y186144D01*
X277614Y186162D01*
X277610Y186170D01*
X277573Y186233D01*
X277547Y186292D01*
X277525Y186351D01*
X277514Y186399D01*
X277506Y186443D01*
X277499Y186477D01*
Y186499D01*
Y186506D01*
X277503Y186540D01*
X277506Y186577D01*
X277529Y186654D01*
X277562Y186736D01*
X277595Y186813D01*
X277632Y186884D01*
X277651Y186913D01*
X277665Y186943D01*
X277677Y186965D01*
X277688Y186980D01*
X277691Y186991D01*
X277695Y186995D01*
X277736Y187058D01*
X277784Y187124D01*
X277839Y187191D01*
X277902Y187261D01*
X277969Y187328D01*
X278035Y187398D01*
X278106Y187465D01*
X278172Y187528D01*
X278239Y187587D01*
X278298Y187642D01*
X278357Y187694D01*
X278405Y187735D01*
X278446Y187772D01*
X278479Y187798D01*
X278498Y187812D01*
X278505Y187820D01*
X278587Y187764D01*
D02*
G37*
G36*
X277158Y188382D02*
Y188323D01*
X277155Y188249D01*
Y188168D01*
X277151Y188079D01*
Y187979D01*
X277147Y187868D01*
Y187757D01*
Y187635D01*
X277144Y187509D01*
Y187380D01*
Y187246D01*
X277140Y186976D01*
Y186703D01*
Y186436D01*
X277136Y186303D01*
Y186177D01*
Y186059D01*
Y185944D01*
Y185833D01*
Y185733D01*
Y185641D01*
Y185559D01*
Y185485D01*
Y185422D01*
Y185374D01*
Y185337D01*
Y185326D01*
Y185315D01*
Y185311D01*
Y185308D01*
X279034D01*
X278783Y185056D01*
X278664Y185082D01*
X278550Y185104D01*
X278435Y185119D01*
X278331Y185126D01*
X278287Y185130D01*
X278243Y185134D01*
X278206D01*
X278176Y185137D01*
X273840D01*
X274313Y185667D01*
X274676Y185308D01*
X275627D01*
Y186029D01*
X275431Y186207D01*
X275338Y186292D01*
X275249Y186377D01*
X275164Y186458D01*
X275083Y186540D01*
X275009Y186614D01*
X274939Y186684D01*
X274876Y186747D01*
X274820Y186802D01*
X274768Y186854D01*
X274728Y186899D01*
X274694Y186932D01*
X274668Y186958D01*
X274654Y186976D01*
X274650Y186980D01*
X274572Y187065D01*
X274498Y187139D01*
X274432Y187206D01*
X274365Y187261D01*
X274306Y187313D01*
X274250Y187357D01*
X274202Y187391D01*
X274154Y187424D01*
X274113Y187446D01*
X274076Y187468D01*
X274047Y187483D01*
X274021Y187494D01*
X274002Y187502D01*
X273988Y187505D01*
X273980Y187509D01*
X273976D01*
X274480Y187957D01*
X274543Y187812D01*
X274617Y187664D01*
X274698Y187516D01*
X274787Y187369D01*
X274883Y187221D01*
X274979Y187076D01*
X275075Y186939D01*
X275168Y186810D01*
X275260Y186684D01*
X275345Y186573D01*
X275423Y186473D01*
X275457Y186429D01*
X275490Y186388D01*
X275519Y186355D01*
X275545Y186321D01*
X275571Y186292D01*
X275590Y186270D01*
X275605Y186251D01*
X275616Y186236D01*
X275623Y186229D01*
X275627Y186225D01*
Y187957D01*
X275431Y188123D01*
X276019Y188430D01*
X276015Y188379D01*
Y188312D01*
X276011Y188238D01*
X276008Y188153D01*
Y188060D01*
X276004Y187957D01*
Y187846D01*
X276000Y187731D01*
Y187609D01*
Y187483D01*
X275997Y187354D01*
Y187224D01*
X275993Y186954D01*
Y186680D01*
Y186418D01*
Y186288D01*
X275989Y186162D01*
Y186044D01*
Y185933D01*
Y185826D01*
Y185726D01*
Y185633D01*
Y185552D01*
Y185482D01*
Y185422D01*
Y185374D01*
Y185337D01*
Y185315D01*
Y185311D01*
Y185308D01*
X276770D01*
Y187986D01*
X276548Y188182D01*
X277162Y188430D01*
X277158Y188382D01*
D02*
G37*
G36*
X278479Y189825D02*
X278565Y189611D01*
X278646Y189411D01*
X278720Y189222D01*
X278794Y189045D01*
X278860Y188878D01*
X278923Y188723D01*
X278983Y188578D01*
X279038Y188445D01*
X279090Y188319D01*
X279138Y188208D01*
X279182Y188101D01*
X279223Y188005D01*
X279260Y187916D01*
X279293Y187838D01*
X279327Y187764D01*
X279356Y187698D01*
X279382Y187642D01*
X279404Y187591D01*
X279427Y187542D01*
X279445Y187505D01*
X279460Y187468D01*
X279475Y187443D01*
X279486Y187417D01*
X279497Y187394D01*
X279504Y187380D01*
X279519Y187357D01*
X279523Y187346D01*
X279526Y187343D01*
X279556Y187302D01*
X279582Y187269D01*
X279608Y187235D01*
X279634Y187209D01*
X279682Y187165D01*
X279723Y187135D01*
X279756Y187113D01*
X279782Y187098D01*
X279797Y187091D01*
X279804D01*
X279830Y187087D01*
X279867Y187084D01*
X279952D01*
X280048Y187087D01*
X280152Y187095D01*
X280200Y187102D01*
X280248Y187106D01*
X280289Y187109D01*
X280326Y187113D01*
X280359Y187117D01*
X280381D01*
X280400Y187121D01*
X280403D01*
Y187006D01*
X280333Y186984D01*
X280270Y186965D01*
X280211Y186947D01*
X280155Y186925D01*
X280111Y186910D01*
X280067Y186891D01*
X280030Y186873D01*
X279996Y186858D01*
X279971Y186847D01*
X279945Y186832D01*
X279926Y186821D01*
X279911Y186813D01*
X279900Y186806D01*
X279893Y186799D01*
X279885Y186795D01*
X279845Y186758D01*
X279811Y186714D01*
X279789Y186669D01*
X279774Y186628D01*
X279767Y186591D01*
X279760Y186558D01*
Y186540D01*
Y186536D01*
Y186532D01*
Y186499D01*
X279763Y186462D01*
X279778Y186384D01*
X279797Y186299D01*
X279815Y186218D01*
X279837Y186144D01*
X279848Y186114D01*
X279856Y186085D01*
X279863Y186062D01*
X279871Y186044D01*
X279874Y186033D01*
Y186029D01*
X279900Y185937D01*
X279922Y185852D01*
X279937Y185777D01*
X279945Y185711D01*
X279952Y185655D01*
Y185633D01*
X279956Y185615D01*
Y185600D01*
Y185589D01*
Y185585D01*
Y185581D01*
X279952Y185541D01*
X279948Y185504D01*
X279926Y185441D01*
X279893Y185385D01*
X279856Y185341D01*
X279822Y185308D01*
X279789Y185285D01*
X279767Y185271D01*
X279763Y185267D01*
X279760D01*
X279693Y185234D01*
X279634Y185208D01*
X279586Y185193D01*
X279549Y185178D01*
X279519Y185171D01*
X279497Y185167D01*
X279482D01*
X279452Y185171D01*
X279434Y185186D01*
X279419Y185204D01*
X279408Y185222D01*
X279401Y185245D01*
X279397Y185259D01*
Y185274D01*
Y185278D01*
Y185319D01*
Y185363D01*
Y185411D01*
X279393Y185467D01*
Y185578D01*
X279390Y185685D01*
Y185740D01*
Y185789D01*
Y185833D01*
X279386Y185870D01*
Y185903D01*
Y185925D01*
Y185944D01*
Y185948D01*
X279379Y186122D01*
X279371Y186203D01*
X279367Y186281D01*
X279360Y186358D01*
X279353Y186429D01*
X279345Y186495D01*
X279338Y186558D01*
X279330Y186614D01*
X279323Y186662D01*
X279316Y186706D01*
X279312Y186743D01*
X279308Y186769D01*
X279305Y186791D01*
X279301Y186806D01*
Y186810D01*
X279293Y186854D01*
X279279Y186910D01*
X279260Y186980D01*
X279238Y187061D01*
X279212Y187150D01*
X279179Y187254D01*
X279149Y187361D01*
X279112Y187479D01*
X279071Y187602D01*
X279034Y187731D01*
X278990Y187864D01*
X278946Y188001D01*
X278857Y188282D01*
X278764Y188564D01*
X278672Y188845D01*
X278627Y188978D01*
X278583Y189111D01*
X278542Y189237D01*
X278502Y189359D01*
X278465Y189474D01*
X278428Y189577D01*
X278398Y189674D01*
X278368Y189762D01*
X278343Y189840D01*
X278320Y189903D01*
X278302Y189955D01*
X278291Y189992D01*
X278287Y190007D01*
X278283Y190018D01*
X278280Y190021D01*
Y190025D01*
X278391Y190051D01*
X278479Y189825D01*
D02*
G37*
G36*
X285617Y190058D02*
X285657Y189933D01*
X285698Y189807D01*
X285735Y189688D01*
X285809Y189459D01*
X285879Y189241D01*
X285942Y189037D01*
X286005Y188848D01*
X286064Y188671D01*
X286116Y188508D01*
X286168Y188356D01*
X286216Y188212D01*
X286261Y188083D01*
X286301Y187964D01*
X286338Y187853D01*
X286375Y187753D01*
X286408Y187661D01*
X286438Y187579D01*
X286464Y187505D01*
X286490Y187443D01*
X286512Y187383D01*
X286531Y187331D01*
X286549Y187287D01*
X286564Y187246D01*
X286575Y187217D01*
X286590Y187187D01*
X286597Y187165D01*
X286605Y187146D01*
X286612Y187132D01*
X286619Y187121D01*
X286623Y187109D01*
X286627Y187106D01*
X286656Y187065D01*
X286682Y187028D01*
X286708Y186995D01*
X286730Y186965D01*
X286756Y186943D01*
X286775Y186921D01*
X286816Y186891D01*
X286845Y186873D01*
X286871Y186862D01*
X286886Y186854D01*
X286890D01*
X286915Y186851D01*
X286949D01*
X286986Y186854D01*
X287034D01*
X287082Y186858D01*
X287134Y186862D01*
X287237Y186869D01*
X287289Y186873D01*
X287337Y186876D01*
X287385Y186884D01*
X287422Y186888D01*
X287456Y186891D01*
X287481D01*
X287496Y186895D01*
X287504D01*
Y186784D01*
X287430Y186762D01*
X287359Y186743D01*
X287297Y186721D01*
X287241Y186703D01*
X287193Y186684D01*
X287148Y186665D01*
X287108Y186647D01*
X287074Y186628D01*
X287045Y186614D01*
X287023Y186599D01*
X287000Y186588D01*
X286986Y186577D01*
X286975Y186569D01*
X286967Y186562D01*
X286960Y186558D01*
X286919Y186514D01*
X286886Y186469D01*
X286864Y186421D01*
X286849Y186377D01*
X286841Y186340D01*
X286834Y186310D01*
Y186288D01*
Y186284D01*
Y186281D01*
X286838Y186214D01*
X286845Y186140D01*
X286860Y186066D01*
X286875Y185996D01*
X286890Y185929D01*
X286897Y185903D01*
X286904Y185881D01*
X286908Y185859D01*
X286912Y185844D01*
X286915Y185837D01*
Y185833D01*
X286945Y185744D01*
X286964Y185663D01*
X286978Y185592D01*
X286989Y185533D01*
X286997Y185485D01*
X287000Y185448D01*
Y185426D01*
Y185422D01*
Y185419D01*
X286997Y185382D01*
X286993Y185352D01*
X286971Y185293D01*
X286941Y185248D01*
X286908Y185211D01*
X286875Y185186D01*
X286849Y185167D01*
X286827Y185156D01*
X286823Y185152D01*
X286819D01*
X286756Y185130D01*
X286697Y185111D01*
X286645Y185100D01*
X286605Y185089D01*
X286571Y185086D01*
X286545Y185082D01*
X286527D01*
X286490Y185086D01*
X286460Y185100D01*
X286442Y185119D01*
X286427Y185141D01*
X286420Y185160D01*
X286412Y185178D01*
Y185193D01*
Y185197D01*
X286416Y185237D01*
X286420Y185282D01*
X286423Y185334D01*
X286427Y185385D01*
X286431Y185500D01*
Y185615D01*
Y185670D01*
Y185722D01*
Y185766D01*
X286427Y185807D01*
Y185840D01*
Y185866D01*
Y185885D01*
Y185889D01*
X286423Y185981D01*
X286420Y186070D01*
X286412Y186155D01*
X286408Y186233D01*
X286401Y186310D01*
X286394Y186381D01*
X286386Y186443D01*
X286379Y186503D01*
X286375Y186555D01*
X286368Y186603D01*
X286360Y186643D01*
X286357Y186677D01*
X286353Y186703D01*
X286349Y186725D01*
X286346Y186736D01*
Y186740D01*
X286342Y186758D01*
X286338Y186780D01*
X286331Y186806D01*
X286323Y186836D01*
X286309Y186906D01*
X286286Y186987D01*
X286264Y187080D01*
X286238Y187187D01*
X286209Y187302D01*
X286179Y187424D01*
X286146Y187554D01*
X286109Y187690D01*
X286072Y187831D01*
X286035Y187979D01*
X285957Y188279D01*
X285879Y188586D01*
X285802Y188885D01*
X285761Y189033D01*
X285724Y189174D01*
X285691Y189311D01*
X285654Y189441D01*
X285624Y189566D01*
X285591Y189681D01*
X285565Y189785D01*
X285539Y189881D01*
X285517Y189962D01*
X285498Y190032D01*
X285491Y190062D01*
X285484Y190088D01*
X285480Y190114D01*
X285472Y190132D01*
X285469Y190147D01*
Y190158D01*
X285465Y190162D01*
Y190166D01*
X285576Y190192D01*
X285617Y190058D01*
D02*
G37*
%LPC*%
G36*
X364161Y364081D02*
X362962D01*
Y362235D01*
X364216D01*
X364198Y362572D01*
X364191Y362738D01*
X364183Y362901D01*
X364179Y363060D01*
X364176Y363212D01*
X364172Y363356D01*
X364168Y363493D01*
X364165Y363619D01*
Y363733D01*
Y363785D01*
X364161Y363833D01*
Y363878D01*
Y363918D01*
Y363955D01*
Y363989D01*
Y364015D01*
Y364040D01*
Y364055D01*
Y364070D01*
Y364077D01*
Y364081D01*
D02*
G37*
G36*
X421826Y365280D02*
X420038D01*
Y364499D01*
X421826D01*
Y365280D01*
D02*
G37*
G36*
Y364333D02*
X420038D01*
Y363574D01*
X421826D01*
Y364333D01*
D02*
G37*
G36*
X386775Y365113D02*
X384233D01*
Y364274D01*
X386775D01*
Y365113D01*
D02*
G37*
G36*
Y364107D02*
X384233D01*
Y363241D01*
X386775D01*
Y364107D01*
D02*
G37*
G36*
X372046Y363715D02*
X369977D01*
Y363071D01*
X372046D01*
Y363715D01*
D02*
G37*
G36*
Y362905D02*
X369977D01*
Y362235D01*
X372046D01*
Y362905D01*
D02*
G37*
G36*
X284736Y190613D02*
X282531D01*
Y189744D01*
X284736D01*
Y190613D01*
D02*
G37*
G36*
Y189577D02*
X282531D01*
Y188571D01*
X284736D01*
Y189577D01*
D02*
G37*
G36*
X270288Y189048D02*
X268723D01*
Y188234D01*
X270288D01*
Y189048D01*
D02*
G37*
G36*
X277554Y190613D02*
X275012D01*
Y189773D01*
X277554D01*
Y190613D01*
D02*
G37*
G36*
Y189607D02*
X275012D01*
Y188741D01*
X277554D01*
Y189607D01*
D02*
G37*
G36*
X285213Y187402D02*
X284403D01*
Y185308D01*
X285213D01*
Y187402D01*
D02*
G37*
G36*
X284066D02*
X283286D01*
Y185308D01*
X284066D01*
Y187402D01*
D02*
G37*
G36*
X282949D02*
X282139D01*
Y185308D01*
X282949D01*
Y187402D01*
D02*
G37*
G36*
X270510Y187317D02*
X268497D01*
X268571Y187206D01*
X268649Y187098D01*
X268730Y186995D01*
X268811Y186895D01*
X268893Y186795D01*
X268970Y186703D01*
X269048Y186617D01*
X269118Y186536D01*
X269189Y186462D01*
X269252Y186395D01*
X269307Y186336D01*
X269355Y186288D01*
X269392Y186247D01*
X269422Y186222D01*
X269440Y186203D01*
X269448Y186196D01*
X269548Y186273D01*
X269648Y186355D01*
X269744Y186443D01*
X269840Y186536D01*
X269929Y186628D01*
X270018Y186721D01*
X270103Y186813D01*
X270177Y186902D01*
X270251Y186987D01*
X270314Y187065D01*
X270369Y187135D01*
X270417Y187198D01*
X270458Y187246D01*
X270487Y187283D01*
X270495Y187298D01*
X270502Y187309D01*
X270510Y187313D01*
Y187317D01*
D02*
G37*
%LPD*%
D10*
X356618Y182346D02*
Y225654D01*
X297563Y182346D02*
Y225654D01*
Y182346D02*
X356618D01*
X297563Y225654D02*
X356618D01*
D13*
X327500Y229248D02*
Y225500D01*
X326750Y224750D01*
X325251D01*
X324501Y225500D01*
Y229248D01*
X320002D02*
X323002D01*
Y226999D01*
X321502Y227749D01*
X320752D01*
X320002Y226999D01*
Y225500D01*
X320752Y224750D01*
X322252D01*
X323002Y225500D01*
D16*
X237500Y432003D02*
X240166D01*
X238833D01*
Y440000D01*
X237500D01*
X240166D01*
X244164D02*
Y432003D01*
X249496Y440000D01*
Y432003D01*
X252162Y434668D02*
X253495D01*
Y436001D01*
X252162D01*
Y434668D01*
Y438667D02*
X253495D01*
Y440000D01*
X252162D01*
Y438667D01*
X258826Y440000D02*
Y434668D01*
X261492Y432003D01*
X264158Y434668D01*
Y440000D01*
Y436001D01*
X258826D01*
X272155Y433335D02*
X270823Y432003D01*
X268157D01*
X266824Y433335D01*
Y438667D01*
X268157Y440000D01*
X270823D01*
X272155Y438667D01*
X274821Y440000D02*
X277487D01*
X276154D01*
Y432003D01*
X274821Y433335D01*
X281486Y440000D02*
X284152D01*
X282819D01*
Y432003D01*
X281486Y433335D01*
X288150D02*
X289483Y432003D01*
X292149D01*
X293482Y433335D01*
Y438667D01*
X292149Y440000D01*
X289483D01*
X288150Y438667D01*
Y433335D01*
X296148Y436001D02*
X301479D01*
X309477Y440000D02*
X304145D01*
X309477Y434668D01*
Y433335D01*
X308144Y432003D01*
X305478D01*
X304145Y433335D01*
X317474Y432003D02*
X312142D01*
Y436001D01*
X314808Y434668D01*
X316141D01*
X317474Y436001D01*
Y438667D01*
X316141Y440000D01*
X313475D01*
X312142Y438667D01*
X320140Y433335D02*
X321473Y432003D01*
X324139D01*
X325471Y433335D01*
Y438667D01*
X324139Y440000D01*
X321473D01*
X320140Y438667D01*
Y433335D01*
X328137Y432003D02*
Y437334D01*
X330803Y440000D01*
X333469Y437334D01*
Y432003D01*
M02*
