G04*
G04 #@! TF.GenerationSoftware,Altium Limited,Altium Designer,22.3.1 (43)*
G04*
G04 Layer_Color=2752767*
%FSLAX25Y25*%
%MOIN*%
G70*
G04*
G04 #@! TF.SameCoordinates,02BA5850-5A12-481F-9A08-F1AC3C9BE478*
G04*
G04*
G04 #@! TF.FilePolarity,Positive*
G04*
G01*
G75*
%ADD67C,0.00200*%
%ADD68C,0.00267*%
%ADD69C,0.00133*%
D67*
X508700Y214200D02*
Y215800D01*
X510300D01*
Y214200D01*
X508700D01*
X518700D02*
Y215800D01*
X520300D01*
Y214200D01*
X518700D01*
X508700Y204200D02*
Y205800D01*
X510300D01*
Y204200D01*
X508700D01*
X518700D02*
Y205800D01*
X520300D01*
Y204200D01*
X518700D01*
X508700Y194200D02*
Y195800D01*
X510300D01*
Y194200D01*
X508700D01*
X518700D02*
Y195800D01*
X520300D01*
Y194200D01*
X518700D01*
X508700Y184200D02*
Y185800D01*
X510300D01*
Y184200D01*
X508700D01*
X518700D02*
Y185800D01*
X520300D01*
Y184200D01*
X518700D01*
X508700Y174200D02*
Y175800D01*
X510300D01*
Y174200D01*
X508700D01*
X518700D02*
Y175800D01*
X520300D01*
Y174200D01*
X518700D01*
X528200Y288900D02*
X527400Y290500D01*
X529000D01*
X528200Y288900D01*
X511000D02*
X510200Y290500D01*
X511800D01*
X511000Y288900D01*
X210200Y448900D02*
X209400Y450500D01*
X211000D01*
X210200Y448900D01*
X193000D02*
X192200Y450500D01*
X193800D01*
X193000Y448900D01*
X439000Y191200D02*
X439400Y191600D01*
X439800D01*
X439400Y192000D01*
X439800Y192400D01*
X439400D01*
X439000Y192800D01*
X438600Y192400D01*
X438200D01*
X438600Y192000D01*
X438200Y191600D01*
X438600D01*
X439000Y191200D01*
Y196200D02*
X439400Y196600D01*
X439800D01*
X439400Y197000D01*
X439800Y197400D01*
X439400D01*
X439000Y197800D01*
X438600Y197400D01*
X438200D01*
X438600Y197000D01*
X438200Y196600D01*
X438600D01*
X439000Y196200D01*
Y201200D02*
X439400Y201600D01*
X439800D01*
X439400Y202000D01*
X439800Y202400D01*
X439400D01*
X439000Y202800D01*
X438600Y202400D01*
X438200D01*
X438600Y202000D01*
X438200Y201600D01*
X438600D01*
X439000Y201200D01*
X527652Y252062D02*
X528052Y252862D01*
X527652Y253662D01*
X528452Y253262D01*
X529252Y253662D01*
X528852Y252862D01*
X529252Y252062D01*
X528452Y252462D01*
X527652Y252062D01*
X165448Y448912D02*
X165848Y449712D01*
X165448Y450512D01*
X166248Y450112D01*
X167048Y450512D01*
X166648Y449712D01*
X167048Y448912D01*
X166248Y449312D01*
X165448Y448912D01*
X527652Y362298D02*
X528052Y363098D01*
X527652Y363898D01*
X528452Y363498D01*
X529252Y363898D01*
X528852Y363098D01*
X529252Y362298D01*
X528452Y362698D01*
X527652Y362298D01*
X472534Y165448D02*
X472934Y166248D01*
X472534Y167048D01*
X473334Y166648D01*
X474134Y167048D01*
X473734Y166248D01*
X474134Y165448D01*
X473334Y165848D01*
X472534Y165448D01*
X198542Y401200D02*
Y402800D01*
X200143D01*
Y401200D01*
X198542D01*
X178858D02*
Y402800D01*
X180457D01*
Y401200D01*
X178858D01*
X168358Y288700D02*
Y290300D01*
X169957D01*
Y288700D01*
X168358D01*
X188042D02*
Y290300D01*
X189643D01*
Y288700D01*
X188042D01*
X395600Y252407D02*
Y252007D01*
X396400D01*
Y252407D01*
X396800D01*
Y253207D01*
X396400D01*
Y253607D01*
X395600D01*
Y253207D01*
X395200D01*
Y252407D01*
X395600D01*
X385600Y252407D02*
Y252007D01*
X386400D01*
Y252407D01*
X386800D01*
Y253207D01*
X386400D01*
Y253607D01*
X385600D01*
Y253207D01*
X385200D01*
Y252407D01*
X385600D01*
X375600D02*
Y252007D01*
X376400D01*
Y252407D01*
X376800D01*
Y253207D01*
X376400D01*
Y253607D01*
X375600D01*
Y253207D01*
X375200D01*
Y252407D01*
X375600D01*
X365600D02*
Y252007D01*
X366400D01*
Y252407D01*
X366800D01*
Y253207D01*
X366400D01*
Y253607D01*
X365600D01*
Y253207D01*
X365200D01*
Y252407D01*
X365600D01*
X355600D02*
Y252007D01*
X356400D01*
Y252407D01*
X356800D01*
Y253207D01*
X356400D01*
Y253607D01*
X355600D01*
Y253207D01*
X355200D01*
Y252407D01*
X355600D01*
X345600D02*
Y252007D01*
X346400D01*
Y252407D01*
X346800D01*
Y253207D01*
X346400D01*
Y253607D01*
X345600D01*
Y253207D01*
X345200D01*
Y252407D01*
X345600D01*
X335600D02*
Y252007D01*
X336400D01*
Y252407D01*
X336800D01*
Y253207D01*
X336400D01*
Y253607D01*
X335600D01*
Y253207D01*
X335200D01*
Y252407D01*
X335600D01*
X325600D02*
Y252007D01*
X326400D01*
Y252407D01*
X326800D01*
Y253207D01*
X326400D01*
Y253607D01*
X325600D01*
Y253207D01*
X325200D01*
Y252407D01*
X325600D01*
X315600D02*
Y252007D01*
X316400D01*
Y252407D01*
X316800D01*
Y253207D01*
X316400D01*
Y253607D01*
X315600D01*
Y253207D01*
X315200D01*
Y252407D01*
X315600D01*
X305600D02*
Y252007D01*
X306400D01*
Y252407D01*
X306800D01*
Y253207D01*
X306400D01*
Y253607D01*
X305600D01*
Y253207D01*
X305200D01*
Y252407D01*
X305600D01*
X295600D02*
Y252007D01*
X296400D01*
Y252407D01*
X296800D01*
Y253207D01*
X296400D01*
Y253607D01*
X295600D01*
Y253207D01*
X295200D01*
Y252407D01*
X295600D01*
X285600D02*
Y252007D01*
X286400D01*
Y252407D01*
X286800D01*
Y253207D01*
X286400D01*
Y253607D01*
X285600D01*
Y253207D01*
X285200D01*
Y252407D01*
X285600D01*
X275600D02*
Y252007D01*
X276400D01*
Y252407D01*
X276800D01*
Y253207D01*
X276400D01*
Y253607D01*
X275600D01*
Y253207D01*
X275200D01*
Y252407D01*
X275600D01*
X265600Y252407D02*
Y252007D01*
X266400D01*
Y252407D01*
X266800D01*
Y253207D01*
X266400D01*
Y253607D01*
X265600D01*
Y253207D01*
X265200D01*
Y252407D01*
X265600D01*
X255600Y252407D02*
Y252007D01*
X256400D01*
Y252407D01*
X256800D01*
Y253207D01*
X256400D01*
Y253607D01*
X255600D01*
Y253207D01*
X255200D01*
Y252407D01*
X255600D01*
X245600D02*
Y252007D01*
X246400D01*
Y252407D01*
X246800D01*
Y253207D01*
X246400D01*
Y253607D01*
X245600D01*
Y253207D01*
X245200D01*
Y252407D01*
X245600D01*
X235600D02*
Y252007D01*
X236400D01*
Y252407D01*
X236800D01*
Y253207D01*
X236400D01*
Y253607D01*
X235600D01*
Y253207D01*
X235200D01*
Y252407D01*
X235600D01*
X225600D02*
Y252007D01*
X226400D01*
Y252407D01*
X226800D01*
Y253207D01*
X226400D01*
Y253607D01*
X225600D01*
Y253207D01*
X225200D01*
Y252407D01*
X225600D01*
X215600D02*
Y252007D01*
X216400D01*
Y252407D01*
X216800D01*
Y253207D01*
X216400D01*
Y253607D01*
X215600D01*
Y253207D01*
X215200D01*
Y252407D01*
X215600D01*
X205600D02*
Y252007D01*
X206400D01*
Y252407D01*
X206800D01*
Y253207D01*
X206400D01*
Y253607D01*
X205600D01*
Y253207D01*
X205200D01*
Y252407D01*
X205600D01*
X195600D02*
Y252007D01*
X196400D01*
Y252407D01*
X196800D01*
Y253207D01*
X196400D01*
Y253607D01*
X195600D01*
Y253207D01*
X195200D01*
Y252407D01*
X195600D01*
X185600D02*
Y252007D01*
X186400D01*
Y252407D01*
X186800D01*
Y253207D01*
X186400D01*
Y253607D01*
X185600D01*
Y253207D01*
X185200D01*
Y252407D01*
X185600D01*
X175600D02*
Y252007D01*
X176400D01*
Y252407D01*
X176800D01*
Y253207D01*
X176400D01*
Y253607D01*
X175600D01*
Y253207D01*
X175200D01*
Y252407D01*
X175600D01*
X165600D02*
Y252007D01*
X166400D01*
Y252407D01*
X166800D01*
Y253207D01*
X166400D01*
Y253607D01*
X165600D01*
Y253207D01*
X165200D01*
Y252407D01*
X165600D01*
Y165793D02*
Y165393D01*
X166400D01*
Y165793D01*
X166800D01*
Y166593D01*
X166400D01*
Y166993D01*
X165600D01*
Y166593D01*
X165200D01*
Y165793D01*
X165600D01*
X175600Y165793D02*
Y165393D01*
X176400D01*
Y165793D01*
X176800D01*
Y166593D01*
X176400D01*
Y166993D01*
X175600D01*
Y166593D01*
X175200D01*
Y165793D01*
X175600D01*
X185600D02*
Y165393D01*
X186400D01*
Y165793D01*
X186800D01*
Y166593D01*
X186400D01*
Y166993D01*
X185600D01*
Y166593D01*
X185200D01*
Y165793D01*
X185600D01*
X195600D02*
Y165393D01*
X196400D01*
Y165793D01*
X196800D01*
Y166593D01*
X196400D01*
Y166993D01*
X195600D01*
Y166593D01*
X195200D01*
Y165793D01*
X195600D01*
X205600D02*
Y165393D01*
X206400D01*
Y165793D01*
X206800D01*
Y166593D01*
X206400D01*
Y166993D01*
X205600D01*
Y166593D01*
X205200D01*
Y165793D01*
X205600D01*
X215600D02*
Y165393D01*
X216400D01*
Y165793D01*
X216800D01*
Y166593D01*
X216400D01*
Y166993D01*
X215600D01*
Y166593D01*
X215200D01*
Y165793D01*
X215600D01*
X225600D02*
Y165393D01*
X226400D01*
Y165793D01*
X226800D01*
Y166593D01*
X226400D01*
Y166993D01*
X225600D01*
Y166593D01*
X225200D01*
Y165793D01*
X225600D01*
X235600D02*
Y165393D01*
X236400D01*
Y165793D01*
X236800D01*
Y166593D01*
X236400D01*
Y166993D01*
X235600D01*
Y166593D01*
X235200D01*
Y165793D01*
X235600D01*
X245600D02*
Y165393D01*
X246400D01*
Y165793D01*
X246800D01*
Y166593D01*
X246400D01*
Y166993D01*
X245600D01*
Y166593D01*
X245200D01*
Y165793D01*
X245600D01*
X255600D02*
Y165393D01*
X256400D01*
Y165793D01*
X256800D01*
Y166593D01*
X256400D01*
Y166993D01*
X255600D01*
Y166593D01*
X255200D01*
Y165793D01*
X255600D01*
X265600D02*
Y165393D01*
X266400D01*
Y165793D01*
X266800D01*
Y166593D01*
X266400D01*
Y166993D01*
X265600D01*
Y166593D01*
X265200D01*
Y165793D01*
X265600D01*
X275600D02*
Y165393D01*
X276400D01*
Y165793D01*
X276800D01*
Y166593D01*
X276400D01*
Y166993D01*
X275600D01*
Y166593D01*
X275200D01*
Y165793D01*
X275600D01*
X285600D02*
Y165393D01*
X286400D01*
Y165793D01*
X286800D01*
Y166593D01*
X286400D01*
Y166993D01*
X285600D01*
Y166593D01*
X285200D01*
Y165793D01*
X285600D01*
X295600D02*
Y165393D01*
X296400D01*
Y165793D01*
X296800D01*
Y166593D01*
X296400D01*
Y166993D01*
X295600D01*
Y166593D01*
X295200D01*
Y165793D01*
X295600D01*
X305600D02*
Y165393D01*
X306400D01*
Y165793D01*
X306800D01*
Y166593D01*
X306400D01*
Y166993D01*
X305600D01*
Y166593D01*
X305200D01*
Y165793D01*
X305600D01*
X315600D02*
Y165393D01*
X316400D01*
Y165793D01*
X316800D01*
Y166593D01*
X316400D01*
Y166993D01*
X315600D01*
Y166593D01*
X315200D01*
Y165793D01*
X315600D01*
X325600D02*
Y165393D01*
X326400D01*
Y165793D01*
X326800D01*
Y166593D01*
X326400D01*
Y166993D01*
X325600D01*
Y166593D01*
X325200D01*
Y165793D01*
X325600D01*
X335600D02*
Y165393D01*
X336400D01*
Y165793D01*
X336800D01*
Y166593D01*
X336400D01*
Y166993D01*
X335600D01*
Y166593D01*
X335200D01*
Y165793D01*
X335600D01*
X345600D02*
Y165393D01*
X346400D01*
Y165793D01*
X346800D01*
Y166593D01*
X346400D01*
Y166993D01*
X345600D01*
Y166593D01*
X345200D01*
Y165793D01*
X345600D01*
X355600D02*
Y165393D01*
X356400D01*
Y165793D01*
X356800D01*
Y166593D01*
X356400D01*
Y166993D01*
X355600D01*
Y166593D01*
X355200D01*
Y165793D01*
X355600D01*
X365600D02*
Y165393D01*
X366400D01*
Y165793D01*
X366800D01*
Y166593D01*
X366400D01*
Y166993D01*
X365600D01*
Y166593D01*
X365200D01*
Y165793D01*
X365600D01*
X375600D02*
Y165393D01*
X376400D01*
Y165793D01*
X376800D01*
Y166593D01*
X376400D01*
Y166993D01*
X375600D01*
Y166593D01*
X375200D01*
Y165793D01*
X375600D01*
X385600D02*
Y165393D01*
X386400D01*
Y165793D01*
X386800D01*
Y166593D01*
X386400D01*
Y166993D01*
X385600D01*
Y166593D01*
X385200D01*
Y165793D01*
X385600D01*
X395600Y165793D02*
Y165393D01*
X396400D01*
Y165793D01*
X396800D01*
Y166593D01*
X396400D01*
Y166993D01*
X395600D01*
Y166593D01*
X395200D01*
Y165793D01*
X395600D01*
X301100Y218600D02*
Y218200D01*
X301900D01*
Y218600D01*
X302300D01*
Y219400D01*
X301900D01*
Y219800D01*
X301100D01*
Y219400D01*
X300700D01*
Y218600D01*
X301100D01*
Y208600D02*
Y208200D01*
X301900D01*
Y208600D01*
X302300D01*
Y209400D01*
X301900D01*
Y209800D01*
X301100D01*
Y209400D01*
X300700D01*
Y208600D01*
X301100D01*
Y198600D02*
Y198200D01*
X301900D01*
Y198600D01*
X302300D01*
Y199400D01*
X301900D01*
Y199800D01*
X301100D01*
Y199400D01*
X300700D01*
Y198600D01*
X301100D01*
Y188600D02*
Y188200D01*
X301900D01*
Y188600D01*
X302300D01*
Y189400D01*
X301900D01*
Y189800D01*
X301100D01*
Y189400D01*
X300700D01*
Y188600D01*
X301100D01*
X523590Y454039D02*
X523990D01*
X524390Y454439D01*
X524790Y454039D01*
X525190D01*
Y454439D01*
X524790Y454839D01*
X525190Y455239D01*
Y455639D01*
X524790D01*
X524390Y455239D01*
X523990Y455639D01*
X523590D01*
Y455239D01*
X523990Y454839D01*
X523590Y454439D01*
Y454039D01*
X492487D02*
X492887D01*
X493287Y454439D01*
X493687Y454039D01*
X494087D01*
Y454439D01*
X493687Y454839D01*
X494087Y455239D01*
Y455639D01*
X493687D01*
X493287Y455239D01*
X492887Y455639D01*
X492487D01*
Y455239D01*
X492887Y454839D01*
X492487Y454439D01*
Y454039D01*
X289732Y452858D02*
X290132D01*
X290532Y453258D01*
X290932Y452858D01*
X291332D01*
Y453258D01*
X290932Y453658D01*
X291332Y454058D01*
Y454458D01*
X290932D01*
X290532Y454058D01*
X290132Y454458D01*
X289732D01*
Y454058D01*
X290132Y453658D01*
X289732Y453258D01*
Y452858D01*
X264141D02*
X264541D01*
X264941Y453258D01*
X265341Y452858D01*
X265741D01*
Y453258D01*
X265341Y453658D01*
X265741Y454058D01*
Y454458D01*
X265341D01*
X264941Y454058D01*
X264541Y454458D01*
X264141D01*
Y454058D01*
X264541Y453658D01*
X264141Y453258D01*
Y452858D01*
X340070Y218961D02*
X340870Y219761D01*
X341670Y218961D01*
X340870Y218161D01*
X340070Y218961D01*
X203585Y313481D02*
Y315081D01*
X205185D01*
Y313481D01*
X203585D01*
X203985Y313881D02*
Y314681D01*
X204785D01*
Y313881D01*
X203985D01*
X332833Y270395D02*
Y271995D01*
X334433D01*
Y270395D01*
X332833D01*
X333233Y270795D02*
Y271595D01*
X334033D01*
Y270795D01*
X333233D01*
X334142Y259085D02*
Y260685D01*
X335742D01*
Y259085D01*
X334142D01*
X334542Y259485D02*
Y260285D01*
X335342D01*
Y259485D01*
X334542D01*
X454471Y217170D02*
Y218770D01*
X456071D01*
Y217170D01*
X454471D01*
X454871Y217570D02*
Y218370D01*
X455671D01*
Y217570D01*
X454871D01*
X335353Y229661D02*
Y231261D01*
X336953D01*
Y229661D01*
X335353D01*
X335753Y230061D02*
Y230861D01*
X336553D01*
Y230061D01*
X335753D01*
X331666Y226629D02*
Y228229D01*
X333266D01*
Y226629D01*
X331666D01*
X332066Y227029D02*
Y227829D01*
X332866D01*
Y227029D01*
X332066D01*
X429622Y217170D02*
Y218770D01*
X431222D01*
Y217170D01*
X429622D01*
X430022Y217570D02*
Y218370D01*
X430822D01*
Y217570D01*
X430022D01*
X436486Y163896D02*
Y165496D01*
X438086D01*
Y163896D01*
X436486D01*
X436886Y164296D02*
Y165096D01*
X437686D01*
Y164296D01*
X436886D01*
D68*
X431221Y285122D02*
X430668Y285883D01*
X429774Y285592D01*
Y284652D01*
X430668Y284361D01*
X431221Y285122D01*
X479253D02*
X478700Y285883D01*
X477806Y285592D01*
Y284652D01*
X478700Y284361D01*
X479253Y285122D01*
X423347Y261500D02*
X422794Y262261D01*
X421900Y261970D01*
Y261030D01*
X422794Y260739D01*
X423347Y261500D01*
X431221Y237878D02*
X430668Y238639D01*
X429774Y238348D01*
Y237408D01*
X430668Y237117D01*
X431221Y237878D01*
X479253D02*
X478700Y238639D01*
X477806Y238348D01*
Y237408D01*
X478700Y237117D01*
X479253Y237878D01*
X510300Y423500D02*
X509747Y424261D01*
X508853Y423970D01*
Y423030D01*
X509747Y422739D01*
X510300Y423500D01*
D69*
X509900D02*
X509300Y423846D01*
Y423154D01*
X509900Y423500D01*
M02*
