G04*
G04 #@! TF.GenerationSoftware,Altium Limited,Altium Designer,22.3.1 (43)*
G04*
G04 Layer_Color=8388736*
%FSLAX25Y25*%
%MOIN*%
G70*
G04*
G04 #@! TF.SameCoordinates,02BA5850-5A12-481F-9A08-F1AC3C9BE478*
G04*
G04*
G04 #@! TF.FilePolarity,Negative*
G04*
G01*
G75*
%ADD28R,0.05800X0.06800*%
%ADD29R,0.07099X0.07493*%
%ADD30R,0.13792X0.16548*%
%ADD31R,0.15761X0.16548*%
%ADD32R,0.09855X0.10642*%
%ADD33R,0.06221X0.05259*%
%ADD34R,0.41868X0.35052*%
%ADD35R,0.04816X0.14023*%
%ADD36R,0.05131X0.05721*%
%ADD37R,0.15761X0.09855*%
%ADD38R,0.05524X0.08674*%
%ADD39R,0.07099X0.06800*%
%ADD40C,0.07099*%
%ADD41C,0.10249*%
%ADD42O,0.11036X0.12611*%
%ADD43O,0.07099X0.04343*%
%ADD44R,0.07099X0.04343*%
%ADD45C,0.20800*%
%ADD46C,0.06800*%
%ADD47C,0.10643*%
%ADD48C,0.13398*%
%ADD49C,0.03202*%
%ADD50C,0.06706*%
D28*
X159455Y371008D02*
D03*
Y380008D02*
D03*
X314901Y275471D02*
D03*
Y284471D02*
D03*
X385500Y276045D02*
D03*
Y285045D02*
D03*
X403455Y276008D02*
D03*
Y285008D02*
D03*
X335455Y276008D02*
D03*
Y285008D02*
D03*
D29*
X293716Y281000D02*
D03*
X278283D02*
D03*
D30*
X524390Y454838D02*
D03*
X493287D02*
D03*
D31*
X290532Y453657D02*
D03*
X264941D02*
D03*
D32*
X245583Y280500D02*
D03*
X218417D02*
D03*
D33*
X425500Y172304D02*
D03*
Y164696D02*
D03*
X442000Y172304D02*
D03*
Y164696D02*
D03*
D34*
X191000Y361982D02*
D03*
D35*
X204386Y323019D02*
D03*
X197693D02*
D03*
X191000D02*
D03*
X184307D02*
D03*
X177614D02*
D03*
D36*
X468500Y206500D02*
D03*
X460500D02*
D03*
D37*
X355500Y294500D02*
D03*
D38*
Y269500D02*
D03*
X364555D02*
D03*
X346445D02*
D03*
D39*
X509500Y215000D02*
D03*
D40*
X519500D02*
D03*
X509500Y205000D02*
D03*
X519500D02*
D03*
X509500Y195000D02*
D03*
X519500D02*
D03*
X509500Y185000D02*
D03*
X519500D02*
D03*
X509500Y175000D02*
D03*
X519500D02*
D03*
X199343Y402000D02*
D03*
X179657D02*
D03*
X169158Y289500D02*
D03*
X188842D02*
D03*
D41*
X430421Y285122D02*
D03*
X478453D02*
D03*
X422547Y261500D02*
D03*
X430421Y237878D02*
D03*
X478453D02*
D03*
D42*
X528200Y289700D02*
D03*
X511000D02*
D03*
X210200Y449700D02*
D03*
X193000D02*
D03*
D43*
X439000Y192000D02*
D03*
Y197000D02*
D03*
D44*
Y202000D02*
D03*
D45*
X528452Y252862D02*
D03*
X166248Y449712D02*
D03*
X528452Y363098D02*
D03*
X473334Y166248D02*
D03*
D46*
X396000Y252807D02*
D03*
X386000Y252807D02*
D03*
X376000D02*
D03*
X366000D02*
D03*
X356000D02*
D03*
X346000D02*
D03*
X336000D02*
D03*
X326000D02*
D03*
X316000D02*
D03*
X306000D02*
D03*
X296000D02*
D03*
X286000D02*
D03*
X276000D02*
D03*
X266000Y252807D02*
D03*
X256000Y252807D02*
D03*
X246000D02*
D03*
X236000D02*
D03*
X226000D02*
D03*
X216000D02*
D03*
X206000D02*
D03*
X196000D02*
D03*
X186000D02*
D03*
X176000D02*
D03*
X166000D02*
D03*
Y166193D02*
D03*
X176000Y166193D02*
D03*
X186000D02*
D03*
X196000D02*
D03*
X206000D02*
D03*
X216000D02*
D03*
X226000D02*
D03*
X236000D02*
D03*
X246000D02*
D03*
X256000D02*
D03*
X266000D02*
D03*
X276000D02*
D03*
X286000D02*
D03*
X296000D02*
D03*
X306000D02*
D03*
X316000D02*
D03*
X326000D02*
D03*
X336000D02*
D03*
X346000D02*
D03*
X356000D02*
D03*
X366000D02*
D03*
X376000D02*
D03*
X386000D02*
D03*
X396000Y166193D02*
D03*
X301500Y219000D02*
D03*
Y209000D02*
D03*
Y199000D02*
D03*
Y189000D02*
D03*
D47*
X524390Y454839D02*
D03*
X493287D02*
D03*
X290532Y453658D02*
D03*
X264941D02*
D03*
D48*
X340870Y218961D02*
D03*
D49*
X204385Y314281D02*
D03*
X333633Y271195D02*
D03*
X334942Y259885D02*
D03*
X455271Y217970D02*
D03*
X336153Y230461D02*
D03*
X332466Y227429D02*
D03*
X430422Y217970D02*
D03*
X437286Y164696D02*
D03*
D50*
X509500Y423500D02*
D03*
M02*
