G04*
G04 #@! TF.GenerationSoftware,Altium Limited,Altium Designer,22.3.1 (43)*
G04*
G04 Layer_Color=128*
%FSLAX25Y25*%
%MOIN*%
G70*
G04*
G04 #@! TF.SameCoordinates,B6214844-F8FF-4874-8B12-997BA8331473*
G04*
G04*
G04 #@! TF.FilePolarity,Positive*
G04*
G01*
G75*
%ADD67C,0.00200*%
D67*
X507531Y215000D02*
X511469D01*
X509500Y213032D02*
Y216968D01*
X517531Y215000D02*
X521468D01*
X519500Y213032D02*
Y216968D01*
X507531Y205000D02*
X511469D01*
X509500Y203031D02*
Y206968D01*
X517531Y205000D02*
X521468D01*
X519500Y203031D02*
Y206968D01*
X507531Y195000D02*
X511469D01*
X509500Y193032D02*
Y196968D01*
X517531Y195000D02*
X521468D01*
X519500Y193032D02*
Y196968D01*
X507531Y185000D02*
X511469D01*
X509500Y183031D02*
Y186969D01*
X517531Y185000D02*
X521468D01*
X519500Y183031D02*
Y186969D01*
X507531Y175000D02*
X511469D01*
X509500Y173031D02*
Y176969D01*
X517531Y175000D02*
X521468D01*
X519500Y173031D02*
Y176969D01*
X427272Y285122D02*
X433571D01*
X430421Y281973D02*
Y288272D01*
X475303Y285122D02*
X481602D01*
X478453Y281973D02*
Y288272D01*
X419398Y261500D02*
X425697D01*
X422547Y258350D02*
Y264650D01*
X427272Y237878D02*
X433571D01*
X430421Y234728D02*
Y241028D01*
X475303Y237878D02*
X481602D01*
X478453Y234728D02*
Y241028D01*
X525247Y289700D02*
X531153D01*
X528200Y286747D02*
Y292653D01*
X508047Y289700D02*
X513953D01*
X511000Y286747D02*
Y292653D01*
X207247Y449700D02*
X213153D01*
X210200Y446747D02*
Y452653D01*
X190047Y449700D02*
X195953D01*
X193000Y446747D02*
Y452653D01*
X437622Y192000D02*
X440378D01*
X439000Y190622D02*
Y193378D01*
X437622Y197000D02*
X440378D01*
X439000Y195622D02*
Y198378D01*
X437622Y202000D02*
X440378D01*
X439000Y200622D02*
Y203378D01*
X522202Y252862D02*
X534702D01*
X528452Y246612D02*
Y259112D01*
X159998Y449712D02*
X172498D01*
X166248Y443462D02*
Y455962D01*
X522202Y363098D02*
X534702D01*
X528452Y356848D02*
Y369348D01*
X467084Y166248D02*
X479584D01*
X473334Y159998D02*
Y172498D01*
X197374Y402000D02*
X201311D01*
X199343Y400032D02*
Y403968D01*
X177689Y402000D02*
X181626D01*
X179657Y400032D02*
Y403968D01*
X167189Y289500D02*
X171126D01*
X169158Y287531D02*
Y291469D01*
X186874Y289500D02*
X190811D01*
X188842Y287531D02*
Y291469D01*
X394200Y252807D02*
X397800D01*
X396000Y251007D02*
Y254607D01*
X384200Y252807D02*
X387800D01*
X386000Y251007D02*
Y254607D01*
X374200Y252807D02*
X377800D01*
X376000Y251007D02*
Y254607D01*
X364200Y252807D02*
X367800D01*
X366000Y251007D02*
Y254607D01*
X354200Y252807D02*
X357800D01*
X356000Y251007D02*
Y254607D01*
X344200Y252807D02*
X347800D01*
X346000Y251007D02*
Y254607D01*
X334200Y252807D02*
X337800D01*
X336000Y251007D02*
Y254607D01*
X324200Y252807D02*
X327800D01*
X326000Y251007D02*
Y254607D01*
X314200Y252807D02*
X317800D01*
X316000Y251007D02*
Y254607D01*
X304200Y252807D02*
X307800D01*
X306000Y251007D02*
Y254607D01*
X294200Y252807D02*
X297800D01*
X296000Y251007D02*
Y254607D01*
X284200Y252807D02*
X287800D01*
X286000Y251007D02*
Y254607D01*
X274200Y252807D02*
X277800D01*
X276000Y251007D02*
Y254607D01*
X264200Y252807D02*
X267800D01*
X266000Y251007D02*
Y254607D01*
X254200Y252807D02*
X257800D01*
X256000Y251007D02*
Y254607D01*
X244200Y252807D02*
X247800D01*
X246000Y251007D02*
Y254607D01*
X234200Y252807D02*
X237800D01*
X236000Y251007D02*
Y254607D01*
X224200Y252807D02*
X227800D01*
X226000Y251007D02*
Y254607D01*
X214200Y252807D02*
X217800D01*
X216000Y251007D02*
Y254607D01*
X204200Y252807D02*
X207800D01*
X206000Y251007D02*
Y254607D01*
X194200Y252807D02*
X197800D01*
X196000Y251007D02*
Y254607D01*
X184200Y252807D02*
X187800D01*
X186000Y251007D02*
Y254607D01*
X174200Y252807D02*
X177800D01*
X176000Y251007D02*
Y254607D01*
X164200Y252807D02*
X167800D01*
X166000Y251007D02*
Y254607D01*
X164200Y166193D02*
X167800D01*
X166000Y164393D02*
Y167993D01*
X174200Y166193D02*
X177800D01*
X176000Y164393D02*
Y167993D01*
X184200Y166193D02*
X187800D01*
X186000Y164393D02*
Y167993D01*
X194200Y166193D02*
X197800D01*
X196000Y164393D02*
Y167993D01*
X204200Y166193D02*
X207800D01*
X206000Y164393D02*
Y167993D01*
X214200Y166193D02*
X217800D01*
X216000Y164393D02*
Y167993D01*
X224200Y166193D02*
X227800D01*
X226000Y164393D02*
Y167993D01*
X234200Y166193D02*
X237800D01*
X236000Y164393D02*
Y167993D01*
X244200Y166193D02*
X247800D01*
X246000Y164393D02*
Y167993D01*
X254200Y166193D02*
X257800D01*
X256000Y164393D02*
Y167993D01*
X264200Y166193D02*
X267800D01*
X266000Y164393D02*
Y167993D01*
X274200Y166193D02*
X277800D01*
X276000Y164393D02*
Y167993D01*
X284200Y166193D02*
X287800D01*
X286000Y164393D02*
Y167993D01*
X294200Y166193D02*
X297800D01*
X296000Y164393D02*
Y167993D01*
X304200Y166193D02*
X307800D01*
X306000Y164393D02*
Y167993D01*
X314200Y166193D02*
X317800D01*
X316000Y164393D02*
Y167993D01*
X324200Y166193D02*
X327800D01*
X326000Y164393D02*
Y167993D01*
X334200Y166193D02*
X337800D01*
X336000Y164393D02*
Y167993D01*
X344200Y166193D02*
X347800D01*
X346000Y164393D02*
Y167993D01*
X354200Y166193D02*
X357800D01*
X356000Y164393D02*
Y167993D01*
X364200Y166193D02*
X367800D01*
X366000Y164393D02*
Y167993D01*
X374200Y166193D02*
X377800D01*
X376000Y164393D02*
Y167993D01*
X384200Y166193D02*
X387800D01*
X386000Y164393D02*
Y167993D01*
X394200Y166193D02*
X397800D01*
X396000Y164393D02*
Y167993D01*
X299700Y219000D02*
X303300D01*
X301500Y217200D02*
Y220800D01*
X299700Y209000D02*
X303300D01*
X301500Y207200D02*
Y210800D01*
X299700Y199000D02*
X303300D01*
X301500Y197200D02*
Y200800D01*
X299700Y189000D02*
X303300D01*
X301500Y187200D02*
Y190800D01*
X520453Y454839D02*
X528327D01*
X524390Y450902D02*
Y458776D01*
X489350Y454839D02*
X497224D01*
X493287Y450902D02*
Y458776D01*
X286595Y453658D02*
X294469D01*
X290532Y449721D02*
Y457595D01*
X261004Y453658D02*
X268878D01*
X264941Y449721D02*
Y457595D01*
X334964Y218961D02*
X346776D01*
X340870Y213055D02*
Y224867D01*
X203785Y314281D02*
X204985D01*
X204385Y313681D02*
Y314881D01*
X333033Y271195D02*
X334233D01*
X333633Y270595D02*
Y271795D01*
X334342Y259885D02*
X335542D01*
X334942Y259285D02*
Y260485D01*
X508024Y423500D02*
X510976D01*
X509500Y422024D02*
Y424976D01*
X454671Y217970D02*
X455871D01*
X455271Y217370D02*
Y218570D01*
X335553Y230461D02*
X336753D01*
X336153Y229861D02*
Y231061D01*
X331866Y227429D02*
X333066D01*
X332466Y226829D02*
Y228029D01*
X429822Y217970D02*
X431022D01*
X430422Y217370D02*
Y218570D01*
X436686Y164696D02*
X437886D01*
X437286Y164096D02*
Y165296D01*
M02*
