M48
;Layer_Color=9474304
;FILE_FORMAT=2:5
INCH,LZ
;TYPE=PLATED
T1F00S00C0.01201
T2F00S00C0.02756
T3F00S00C0.02953
T4F00S00C0.03600
T5F00S00C0.03937
T6F00S00C0.05906
T7F00S00C0.06299
T8F00S00C0.07874
T9F00S00C0.11811
%
T01
X0332466Y0227429
X0336153Y0230461
X0334942Y0259885
X0333633Y0271195
X0430422Y021797
X0455271
X0437286Y0164696
X0204385Y0314281
T02
X0439Y0192
Y0197
Y0202
T03
X05095Y04235
T04
X0316Y0166193
X0326
X0336
X0346
X0356
X0366
X0376
X0386
X0396Y0166193
Y0252807
X0386Y0252807
X0376
X0366
X0356
X0346
X0336
X0326
X0316
X0306
X0296
X0286
X0276
X0266Y0252807
X0256Y0252807
X0246
X0236
X0226
X0216
X0206
X0196
X0186
X0176
X0166
Y0166193
X0176Y0166193
X0186
X0196
X0206
X0216
X0226
X0236
X0246
X0256
X0266
X0276
X0286
X0296
X0306
X03015Y0189
Y0199
Y0209
Y0219
T05
X05095Y0175
Y0185
Y0195
Y0205
Y0215
X05195
Y0205
Y0195
Y0185
Y0175
X0188842Y02895
X0169158
X0179657Y0402
X0199343
T06
X0511Y02897
X05282
X02102Y04497
X0193
T07
X0478453Y0237878
Y0285122
X0430421
X0422547Y02615
X0430421Y0237878
T08
X0264941Y0453658
X0290532
X0493287Y0454839
X052439
T09
X034087Y0218961
M30
